<?xml version="1.0" encoding="UTF-8"?>
<svg width="127" height="42" viewBox="0 0 127 23" xmlns="http://www.w3.org/2000/svg" class="jsx-2259896579 jsx-261554344"><title>Logo / monday.com</title><g fill="none" fill-rule="evenodd"><g transform="translate(0 5.552)" fill-rule="nonzero"><path d="M2.62 12.627a2.63 2.63 0 0 1-2.292-1.33A2.543 2.543 0 0 1 .4 8.679l4.72-7.412A2.632 2.632 0 0 1 7.45.001a2.627 2.627 0 0 1 2.255 1.39c.44.832.385 1.833-.142 2.614l-4.717 7.412a2.631 2.631 0 0 1-2.226 1.21z" fill="#F62B54"></path><path d="M10.716 12.627c-.952 0-1.828-.509-2.288-1.327A2.535 2.535 0 0 1 8.5 8.689l4.711-7.395A2.628 2.628 0 0 1 15.543.001c.96.021 1.83.558 2.27 1.398.437.84.373 1.847-.17 2.626l-4.71 7.395a2.627 2.627 0 0 1-2.217 1.207z" fill="#FC0"></path><ellipse fill="#00CA72" cx="18.631" cy="10.31" rx="2.43" ry="2.379"></ellipse></g><path d="M124.197 13.621c.734 0 1.173.522 1.173 1.377v2.93h.997v-2.997c0-1.454-.685-2.297-1.973-2.297-.504 0-1.304.138-1.781 1.065a1.633 1.633 0 0 0-1.337-1.01 2.3 2.3 0 0 0-.56-.033c-.41.033-1.14.288-1.413.866v-.777h-.998v5.183h.998v-2.797c0-1.088.712-1.51 1.425-1.51.668 0 1.107.511 1.107 1.366v2.941h.992v-2.797c0-.866.52-1.52 1.37-1.51zm-9.555 3.441c.456.01.896-.172 1.215-.502.32-.33.49-.779.473-1.24 0-1.044-.768-1.699-1.688-1.699-.921 0-1.688.655-1.688 1.699-.018.46.152.908.47 1.237.318.33.756.513 1.21.505h.008zm0 .972c-1.458 0-2.675-1.077-2.675-2.72 0-1.643 1.217-2.686 2.675-2.686 1.458 0 2.685 1.043 2.685 2.686s-1.234 2.725-2.692 2.725l.007-.005zm-7.81-2.72l-.01.006c0-1.643 1.249-2.686 2.717-2.692a2.635 2.635 0 0 1 1.973.832l-.756.644a1.704 1.704 0 0 0-1.217-.488c-.92 0-1.72.655-1.72 1.698 0 .705.419 1.34 1.062 1.61s1.383.12 1.875-.378l.767.644a2.651 2.651 0 0 1-1.984.844c-1.457 0-2.707-1.077-2.707-2.72zm-3.193 1.619a.69.69 0 0 1 .682-.698.69.69 0 0 1 .682.698.69.69 0 0 1-.682.655.69.69 0 0 1-.682-.655z" fill="#333" fill-rule="nonzero"></path><path d="M106.367 6.156h-3.551l-2.489 6.417-2.476-6.417H94.3l4.317 10.14L95.932 23h3.525l6.91-16.844zm-21.596 5.64c0 1.62 1.416 2.686 2.807 2.686 1.367 0 2.71-.992 2.71-2.687 0-1.695-1.343-2.688-2.71-2.688-1.391 0-2.807 1.067-2.807 2.688zm5.517 5.662v-1.283c-.72 1.09-2.4 1.502-3.262 1.502-2.854 0-5.709-2.25-5.709-5.882 0-3.631 2.854-5.881 5.709-5.881.719 0 2.399.24 3.262 1.5V6.16h3.31v11.3l-3.31-.001zm-9.913 0h-3.31v-1.404c-.553 1.04-1.894 1.646-3.286 1.646-2.879 0-5.422-2.299-5.422-5.859 0-3.627 2.543-5.929 5.422-5.929 1.39 0 2.735.58 3.286 1.621V0h3.31v17.458zm-3.382-5.688c0-1.694-1.223-2.687-2.59-2.687-1.416 0-2.592 1.065-2.592 2.687 0 1.674 1.176 2.734 2.591 2.734 1.393.002 2.591-1.112 2.591-2.734zm-16.82-.292c0-1.718.888-2.299 2.063-2.299 1.127 0 1.943.75 1.943 2.25v6.027h3.334v-6.752c0-3.218-1.584-4.792-4.103-4.792-1.319 0-2.638.75-3.238 1.888V6.156H56.84v11.3h3.333v-5.978zM50.07 17.65c-3.166 0-5.807-2.323-5.807-5.881 0-3.56 2.638-5.86 5.807-5.86 3.169 0 5.83 2.3 5.83 5.86 0 3.56-2.664 5.882-5.83 5.882v-.001zm0-3.29c1.39 0 2.543-1.018 2.543-2.59 0-1.525-1.152-2.566-2.543-2.566a2.468 2.468 0 0 0-1.802.741 2.513 2.513 0 0 0-.717 1.825c.001 1.574 1.152 2.59 2.519 2.59zM38.286 9.18c.983 0 1.847.775 1.847 2.25v6.028h3.31V11.04c0-3.412-1.659-5.13-4.318-5.13-.79 0-2.278.24-3.358 2.008-.624-1.307-1.823-1.985-3.595-1.985a3.203 3.203 0 0 0-2.926 1.864v-1.64H25.91v11.3h3.333v-5.979c0-1.718.936-2.299 1.943-2.299.96 0 1.822.75 1.847 2.178v6.1h3.334v-5.979c0-1.643.864-2.297 1.919-2.297z" fill="#333"></path></g></svg>