<svg xmlns="http://www.w3.org/2000/svg" width="167" height="47" viewBox="0 0 167 47">
    <g fill="none" fill-rule="evenodd">
        <path fill="#1F5C87" d="M163.173 21.508v-2.124h-.665v-.265h1.594v.265h-.667v2.124zM166.055 19.119l-.76 1.8-.758-1.8h-.435v2.39h.303v-1.967l.827 1.966h.124l.832-1.966v1.966h.304v-2.39zM56.204 19.119h-6.46a.362.362 0 0 0-.354.367v.98c0 .203.16.367.355.367h2.338v7.477c0 .203.16.368.355.368h1.06a.361.361 0 0 0 .354-.368v-7.477h2.352a.361.361 0 0 0 .355-.368v-.979a.361.361 0 0 0-.355-.367M63.643 25.005l1.27-3.377 1.26 3.377h-2.53zm2.237-5.656a.35.35 0 0 0-.325-.23H64.26a.35.35 0 0 0-.325.23l-3.368 8.824a.386.386 0 0 0 .034.343.344.344 0 0 0 .29.162h1.193a.35.35 0 0 0 .326-.232l.653-1.726h3.7l.654 1.726c.054.14.182.232.326.232h1.212a.36.36 0 0 0 .35-.368c0-.09-.03-.17-.08-.234l-3.346-8.727zM77.177 22.843c-1.119-.304-1.798-.526-1.798-1.056 0-.6.564-1.005 1.404-1.005.895 0 1.682.324 2.216.911.07.077.171.1.274.117a.359.359 0 0 0 .268-.13l.642-.783a.355.355 0 0 0-.017-.472c-.81-.854-1.954-1.306-3.306-1.306-1.913 0-3.301 1.149-3.301 2.732 0 1.924 1.724 2.392 3.11 2.767 1.22.332 1.967.57 1.967 1.276 0 .541-.436 1.12-1.66 1.12-1.256 0-2.064-.69-2.434-1.102a.356.356 0 0 0-.548.02l-.63.809a.356.356 0 0 0 .014.456c.601.676 1.706 1.481 3.558 1.481 2.597 0 3.522-1.485 3.522-2.874 0-2.073-1.897-2.587-3.28-2.961M89.455 23.682l3.338-3.952a.38.38 0 0 0 .056-.395.355.355 0 0 0-.323-.216H91.2a.352.352 0 0 0-.27.128l-3.133 3.807v-3.568a.361.361 0 0 0-.354-.367h-1.057a.36.36 0 0 0-.353.367v8.824a.36.36 0 0 0 .353.368h1.057a.361.361 0 0 0 .354-.368v-2.824l.494-.581 2.957 3.642a.349.349 0 0 0 .27.131h1.33a.362.362 0 0 0 .354-.368.373.373 0 0 0-.16-.308l-3.588-4.32zM109.567 19.119h-1.209a.367.367 0 0 0-.353.273l-1.584 6.037-1.65-6.04a.367.367 0 0 0-.353-.27h-.908c-.164 0-.309.11-.352.27l-1.652 6.044-1.596-6.041a.366.366 0 0 0-.353-.273h-1.209a.364.364 0 0 0-.291.146.371.371 0 0 0-.06.323l2.496 8.823a.365.365 0 0 0 .35.267h1.183c.165 0 .31-.11.353-.271l1.578-5.818 1.58 5.818c.043.16.187.271.352.271h1.182c.163 0 .307-.11.351-.267l2.496-8.823a.365.365 0 0 0-.351-.469M119.093 27.016c-1.586 0-2.652-1.253-2.652-3.118s1.066-3.118 2.652-3.118 2.652 1.253 2.652 3.118-1.066 3.118-2.652 3.118m0-7.897c-2.539 0-4.381 2.01-4.381 4.78 0 2.77 1.842 4.779 4.38 4.779 2.54 0 4.383-2.01 4.383-4.78 0-2.77-1.843-4.78-4.382-4.78M134.453 22.146c0 .793-.498 1.325-1.24 1.325h-1.733v-2.637h1.734c.752 0 1.24.515 1.24 1.312zm-.152 2.825c.97-.311 1.82-1.237 1.82-2.825 0-1.782-1.147-3.027-2.79-3.027h-3.155c-.182 0-.329.164-.329.368v8.823c0 .203.147.368.329.368h.976c.182 0 .328-.165.328-.368v-3.138h1.06l1.905 3.337c.06.105.165.169.276.169h1.172c.18 0 .327-.165.327-.368a.389.389 0 0 0-.117-.282L134.3 24.97zM147.027 26.963h-3.508v-7.476c0-.204-.155-.368-.346-.368h-1.03c-.192 0-.346.164-.346.368v8.823c0 .203.154.368.345.368h4.885c.191 0 .346-.165.346-.368v-.98c0-.203-.155-.367-.346-.367M159.909 23.905c0 1.522-.899 3.058-2.907 3.058h-1.492v-6.13h1.492c1.766 0 2.907 1.206 2.907 3.072m-2.907-4.786H154.1a.361.361 0 0 0-.354.368v8.823a.36.36 0 0 0 .354.368h2.902c2.774 0 4.71-1.962 4.71-4.773 0-2.773-1.98-4.786-4.71-4.786"/>
        <path fill="#27B6BA" d="M0 34.128L.011 12.85c0-.793.41-1.527 1.072-1.924L18.856.297a2.076 2.076 0 0 1 2.143.001L38.76 10.947a2.24 2.24 0 0 1 1.07 1.925l-.01 21.278a2.24 2.24 0 0 1-1.072 1.924l-17.773 10.63a2.08 2.08 0 0 1-2.143-.002L1.07 36.053A2.24 2.24 0 0 1 0 34.128"/>
        <path fill="#FFF" d="M11.626 29.775c.92 0 1.668-.752 1.668-1.677v-3.32c0-.924-.748-1.676-1.668-1.676-.92 0-1.668.752-1.668 1.677v3.319c0 .925.748 1.677 1.668 1.677"/>
        <path fill="#FFF" d="M30.082 17.609c0-.926.756-1.677 1.688-1.677.932 0 1.687.75 1.687 1.677v8.546c0 .476.043 2.137-1.134 3.44-.608.672-1.75 1.473-3.746 1.473H21.41c-1.996 0-3.138-.8-3.745-1.473-1.178-1.303-1.135-2.974-1.135-3.44v-4.837c0-.688-.157-1.177-.48-1.493-.462-.453-1.25-.549-1.52-.54l-.045.001H8.061c-.932 0-1.688-.75-1.688-1.677 0-.926.756-1.676 1.688-1.676h6.402c.385-.008 2.408.022 3.916 1.465.696.666 1.526 1.886 1.526 3.92v5.081c0 .145.007.673.28.965.27.29.816.35 1.225.35h7.167c.41 0 .955-.06 1.226-.35.273-.292.28-.826.28-.99v-8.765z"/>
        <path fill="#FFF" d="M24.77 24.996c.92 0 1.668-.753 1.668-1.678V20c0-.925-.748-1.677-1.668-1.677-.92 0-1.668.752-1.668 1.677v3.32c0 .924.748 1.677 1.668 1.677"/>
    </g>
</svg>
