<?xml version="1.0" encoding="utf-8"?>
<!-- Generator: Adobe Illustrator 22.0.1, SVG Export Plug-In . SVG Version: 6.00 Build 0)  -->
<svg version="1.1" id="Layer_1" xmlns="http://www.w3.org/2000/svg" xmlns:xlink="http://www.w3.org/1999/xlink" x="0px" y="0px"
	 viewBox="0 0 148 65" style="enable-background:new 0 0 148 65;" xml:space="preserve">
<g>
	<g>
		<g transform="translate(0.000000,1143.000000) scale(0.100000,-0.100000)">
			<path fill="#d08d00" d="M68.7,11179.8c-37.6-65.1-68.5-118.8-68.7-119.2c-0.2-0.6,1.2-3.3,9.5-17.7c7.3-12.6,9.9-16.8,10.1-16.5
				c0.2,0.2,31.1,53.8,68.7,118.9c37.6,65.2,68.5,118.5,68.6,118.5c0.4,0,7.4-12.7,7.3-13.2c-0.1-0.3-30.9-53.8-68.6-119.1
				c-37.6-65.2-68.4-118.7-68.4-118.9c0-0.5,19.4-34,19.6-33.9c0.1,0.1,31.1,53.6,68.8,118.9c37.7,65.3,68.6,118.8,68.7,118.8
				s1.9-3,4-6.6c3.3-5.9,3.7-6.7,3.4-7.3c-0.2-0.4-31.1-54-68.7-119.1c-37.6-65.1-68.3-118.5-68.2-118.6
				c0.9-1.7,19.1-33.2,19.3-33.5c0.3-0.3,16.2,27,69,118.5c37.8,65.4,68.8,118.8,68.9,118.7c0.1-0.1,14.1-24.3,31.1-53.7
				c17-29.4,30.9-53.5,30.9-53.7c0.1-0.1-14.4-0.2-32.1-0.2s-32.2,0-32.2-0.2c0-0.4,20-34.9,20.4-35.2c0.3-0.3,10.6-0.4,32.5-0.3
				h32.1l3.4-5.9c1.9-3.2,3.4-6,3.4-6.1s-14.5-0.2-32.2-0.2l-32.1-0.1l10.2-17.7l10.2-17.7l32.1-0.1c17.7,0,32.3-0.1,32.3-0.1
				c0.2,0,6.3-10.5,6.7-11.3c0.1-0.2-14.4-0.3-32.1-0.4l-32.2-0.1l10.2-17.7l10.2-17.7l31.9-0.1l31.8-0.1l10.2,17.7
				c8.4,14.6,10.1,17.8,9.8,18.1c-0.5,0.4-6.6,10.9-6.6,11.4c0,0.1,3.1,0.2,7,0.2c6.7,0,7,0,7.4,0.6c0.3,0.4,4.9,8.3,10.3,17.7
				c9,15.5,9.8,17.1,9.4,17.7c-0.6,1-6.7,11.4-6.7,11.5c0,0.1,3.1,0.1,6.9,0.1c3.8,0,7,0.1,7.2,0.2c0.1,0.1,4.8,8,10.3,17.6
				c6.7,11.7,9.9,17.6,9.8,17.8c-0.2,0.2-31.1,53.6-68.7,118.8l-68.4,118.4h-19.8h-19.8l-3.7-6.4c-2-3.5-3.8-6.4-3.9-6.4
				c-0.1,0-1.8,2.9-3.9,6.4l-3.7,6.4h-20h-20l-3.7-6.4c-2-3.5-3.8-6.4-3.9-6.4s-1.8,2.9-3.9,6.4l-3.7,6.4h-19.8h-19.8L68.7,11179.8z
				 M219.3,11251c0-0.3-4.8-8.9-7.1-12.6l-0.5-0.8l-3.8,6.6c-2.1,3.6-3.7,6.8-3.7,7c0.1,0.3,1.8,3.3,3.8,6.9l3.7,6.4l3.8-6.5
				C217.6,11254.3,219.3,11251.2,219.3,11251z M324.9,11163.3c32-55.4,58.3-101,58.5-101.4l0.4-0.7l-7.3,0c-5.3,0-7.5,0.1-7.8,0.4
				c-0.8,0.6-109.4,189.1-109.3,189.6c0.1,0.6,7.1,12.7,7.3,12.7C266.8,11263.9,293,11218.6,324.9,11163.3z M283.4,11140.4
				c24.2-41.9,44.4-76.9,44.8-77.7l0.9-1.5l-7.8,0l-7.8,0.1l-37.9,65.7c-20.9,36.1-39.3,68.1-41,71l-3.1,5.3l3.8,6.6
				c2.1,3.6,3.9,6.6,4,6.6C239.4,11216.5,259.2,11182.3,283.4,11140.4z M349.8,11025.3c0.3-0.4,6.7-11.6,6.7-11.7
				c0-0.1-3.4-0.2-7.7-0.2h-7.7l-3.4,5.9c-3.2,5.4-3.3,5.9-2.7,6C335.8,11025.6,349.7,11025.5,349.8,11025.3z"/>
		</g>
	</g>
	<g>
		<path fill="#d08d00" d="M60,37.1h-7.6l-1.5,4.5h-3.2l7.3-20.1h2.5l7.3,20.1h-3.2L60,37.1z M59.1,34.4l-2.9-8.8h-0.1l-2.9,8.8H59.1z"/>
		<path fill="#d08d00" d="M72.8,38.7c2.6,0,3.9-1,4-2.8c0-1.5-0.9-2.4-2.6-2.7c-0.8-0.1-1.7-0.2-2.7-0.4c-1.7-0.3-3-0.9-3.9-1.9
			c-0.9-1-1.4-2.3-1.4-3.7c0-1.8,0.6-3.2,1.7-4.2c1.1-1.1,2.7-1.6,4.8-1.6c2.5,0.1,4.7,0.7,6.5,2.1l-1.7,2.5c-1.5-1-3.2-1.5-5-1.5
			c-0.9,0-1.7,0.2-2.3,0.7c-0.7,0.5-1,1.2-1,2.2c0,0.6,0.2,1.1,0.7,1.6c0.4,0.5,1.2,0.8,2.2,1c0.6,0.1,1.3,0.2,2.3,0.3
			c1.9,0.3,3.3,0.9,4.2,2c0.9,1.1,1.3,2.3,1.3,3.7c-0.1,3.8-2.4,5.8-7,5.8c-3,0-5.5-0.9-7.7-2.8l2-2.3C68.7,38,70.6,38.7,72.8,38.7z
			"/>
		<path fill="#d08d00" d="M82.4,31.6c0-2.3,0.1-3.9,0.2-4.7c0.1-0.8,0.4-1.4,0.7-1.9c0.5-0.9,1.3-1.8,2.3-2.5c1.1-0.7,2.4-1.1,3.9-1.1
			c1.6,0,2.9,0.4,4,1.1c1.1,0.7,1.8,1.6,2.3,2.5c0.3,0.5,0.6,1.1,0.7,1.9c0.1,0.8,0.2,2.3,0.2,4.7c0,2.3-0.1,3.8-0.2,4.7
			c-0.1,0.8-0.4,1.5-0.7,1.9c-0.5,0.9-1.2,1.7-2.3,2.4c-1.1,0.7-2.4,1.1-4,1.2c-1.6,0-2.9-0.4-3.9-1.2c-1.1-0.7-1.9-1.5-2.3-2.4
			c-0.1-0.3-0.3-0.6-0.4-0.9c-0.1-0.3-0.2-0.6-0.3-1.1C82.4,35.4,82.4,33.9,82.4,31.6z M85.4,31.6c0,2,0.1,3.3,0.2,4
			c0.1,0.7,0.4,1.3,0.8,1.7c0.3,0.4,0.7,0.7,1.3,1c0.5,0.3,1.1,0.5,1.8,0.5c0.7,0,1.4-0.2,1.9-0.5c0.5-0.3,0.9-0.6,1.2-1
			c0.4-0.4,0.7-1,0.8-1.7c0.1-0.7,0.2-2,0.2-4c0-2-0.1-3.3-0.2-4c-0.1-0.7-0.4-1.2-0.8-1.7c-0.3-0.4-0.7-0.8-1.2-1
			c-0.5-0.3-1.2-0.4-1.9-0.4c-0.7,0-1.3,0.2-1.8,0.4c-0.5,0.3-0.9,0.6-1.3,1c-0.4,0.4-0.7,1-0.8,1.7C85.5,28.2,85.4,29.6,85.4,31.6z
			"/>
		<path fill="#d08d00" d="M99.6,31.6c0-2.3,0.1-3.9,0.2-4.7c0.1-0.8,0.4-1.4,0.7-1.9c0.5-0.9,1.3-1.8,2.3-2.5c1.1-0.7,2.4-1.1,3.9-1.1
			c1.6,0,2.9,0.4,4,1.1c1.1,0.7,1.8,1.6,2.3,2.5c0.3,0.5,0.6,1.1,0.7,1.9c0.1,0.8,0.2,2.3,0.2,4.7c0,2.3-0.1,3.8-0.2,4.7
			c-0.1,0.8-0.4,1.5-0.7,1.9c-0.5,0.9-1.2,1.7-2.3,2.4c-1.1,0.7-2.4,1.1-4,1.2c-1.6,0-2.9-0.4-3.9-1.2c-1.1-0.7-1.9-1.5-2.3-2.4
			c-0.1-0.3-0.3-0.6-0.4-0.9c-0.1-0.3-0.2-0.6-0.3-1.1C99.6,35.4,99.6,33.9,99.6,31.6z M102.6,31.6c0,2,0.1,3.3,0.2,4
			c0.1,0.7,0.4,1.3,0.8,1.7c0.3,0.4,0.7,0.7,1.3,1c0.5,0.3,1.1,0.5,1.8,0.5c0.7,0,1.4-0.2,1.9-0.5c0.5-0.3,0.9-0.6,1.2-1
			c0.4-0.4,0.7-1,0.8-1.7c0.1-0.7,0.2-2,0.2-4c0-2-0.1-3.3-0.2-4c-0.1-0.7-0.4-1.2-0.8-1.7c-0.3-0.4-0.7-0.8-1.2-1
			c-0.5-0.3-1.2-0.4-1.9-0.4c-0.7,0-1.3,0.2-1.8,0.4c-0.5,0.3-0.9,0.6-1.3,1c-0.4,0.4-0.7,1-0.8,1.7
			C102.7,28.2,102.6,29.6,102.6,31.6z"/>
		<path fill="#d08d00" d="M117.4,21.5h7c2.7,0,4.8,1.1,6.1,3.4c0.5,0.8,0.8,1.5,0.9,2.4c0.1,0.8,0.2,2.3,0.2,4.3c0,2.2-0.1,3.7-0.2,4.5
			c-0.1,0.4-0.2,0.8-0.3,1.2c-0.2,0.3-0.3,0.7-0.6,1c-0.6,0.9-1.4,1.7-2.4,2.3c-1,0.7-2.3,1-3.8,1h-6.8V21.5z M120.5,38.7h3.6
			c1.7,0,2.9-0.6,3.7-1.7c0.3-0.4,0.6-1,0.6-1.6c0.1-0.7,0.1-1.9,0.1-3.7c0-1.7,0-3-0.1-3.7c-0.1-0.8-0.4-1.4-0.8-1.8
			c-0.8-1.2-2-1.7-3.6-1.7h-3.6V38.7z"/>
		<path fill="#d08d00" d="M135.2,21.5H148v2.9h-9.8v5.7h8.3v2.7h-8.3v5.9h9.8v2.9h-12.8V21.5z"/>
	</g>
</g>
</svg>
