<?xml version="1.0" standalone="no"?>
<!DOCTYPE svg PUBLIC "-//W3C//DTD SVG 20010904//EN"
 "http://www.w3.org/TR/2001/REC-SVG-20010904/DTD/svg10.dtd">
<svg version="1.0" xmlns="http://www.w3.org/2000/svg"
 width="1317.000000pt" height="1143.000000pt" viewBox="0 0 1317.000000 1143.000000"
 preserveAspectRatio="xMidYMid meet">
<metadata>
Created by potrace 1.15, written by Peter Selinger 2001-2017
</metadata>
<g transform="translate(0.000000,1143.000000) scale(0.100000,-0.100000)"
fill="#d08d00" stroke="none">
<path d="M2140 7749 c-1169 -2024 -2129 -3690 -2134 -3703 -7 -19 38 -103 295
-549 226 -391 307 -523 314 -513 6 7 966 1670 2135 3694 1169 2025 2127 3682
2130 3682 12 0 231 -394 227 -409 -2 -9 -961 -1673 -2131 -3699 -1169 -2026
-2126 -3688 -2126 -3694 0 -16 603 -1057 609 -1053 4 2 965 1664 2136 3694
1172 2030 2132 3690 2135 3690 3 0 58 -92 123 -205 104 -182 116 -207 105
-227 -6 -12 -967 -1677 -2135 -3700 -1168 -2023 -2122 -3681 -2120 -3685 29
-54 593 -1031 601 -1040 9 -9 503 838 2145 3683 1174 2033 2137 3692 2141
3688 4 -4 438 -755 965 -1668 527 -913 959 -1663 961 -1667 3 -4 -446 -6 -996
-5 -550 1 -1000 -1 -1000 -5 0 -13 621 -1083 635 -1093 9 -8 330 -11 1009 -10
l996 0 105 -182 c58 -100 105 -185 105 -188 0 -3 -449 -6 -999 -7 l-998 -3
317 -550 318 -550 998 -2 c550 -1 1002 -2 1005 -2 5 -1 197 -327 207 -352 2
-5 -446 -10 -997 -11 l-1000 -3 318 -550 317 -550 990 -2 989 -3 318 551 c261
454 315 553 303 563 -14 11 -206 340 -206 354 0 4 97 6 216 6 209 -1 216 -1
229 20 8 11 151 259 319 550 279 483 305 532 293 550 -20 31 -207 355 -207
358 0 2 97 3 215 3 119 0 219 2 224 5 4 3 148 249 321 548 209 364 309 547
303 553 -6 6 -966 1666 -2134 3690 l-2124 3679 -615 0 -615 0 -115 -200 c-63
-110 -117 -200 -120 -200 -3 0 -57 90 -120 200 l-115 200 -620 0 -620 0 -115
-200 c-63 -110 -117 -200 -120 -200 -3 0 -57 90 -120 200 l-115 200 -615 0
-615 0 -2125 -3681z m4680 2210 c0 -9 -150 -275 -220 -391 l-16 -26 -118 204
c-64 112 -116 211 -114 218 2 8 55 104 118 213 l115 199 117 -203 c65 -112
118 -208 118 -214z m3280 -2725 c993 -1720 1810 -3137 1817 -3149 l12 -23
-228 -1 c-166 0 -232 3 -243 12 -24 19 -3400 5876 -3396 5891 4 19 221 396
228 396 3 0 817 -1407 1810 -3126z m-1290 -710 c751 -1301 1378 -2388 1393
-2414 l28 -48 -242 1 -243 2 -1178 2040 c-648 1122 -1221 2115 -1273 2207
l-96 166 118 206 c65 113 120 205 123 205 3 0 619 -1064 1370 -2365z m2063
-3575 c10 -13 207 -359 207 -363 0 -3 -107 -6 -238 -6 l-238 0 -106 183 c-98
168 -104 182 -85 187 24 6 456 5 460 -1z"/>
</g>
</svg>
