<?xml version="1.0" encoding="utf-8"?>
<!-- Generator: Adobe Illustrator 22.0.1, SVG Export Plug-In . SVG Version: 6.00 Build 0)  -->
<svg version="1.1" id="Layer_1" xmlns="http://www.w3.org/2000/svg" xmlns:xlink="http://www.w3.org/1999/xlink" x="0px" y="0px"
	 viewBox="0 0 216 237" style="enable-background:new 0 0 216 237;" xml:space="preserve">
<style type="text/css">
	.st0{fill:#FFFFFF;}
	.st1{fill:#FF5584;}
	.st2{opacity:0.8;fill:#FFFFFF;}
	.st3{fill:#4D4D4D;}
	.st4{fill:#C1272D;}
</style>
<g>
	<g>
		<circle class="st0" cx="67.5" cy="104.3" r="9.7"/>
		<circle class="st0" cx="104.1" cy="104.3" r="9.7"/>
		<circle class="st0" cx="140.8" cy="105.1" r="9.7"/>
	</g>
</g>
<g>
	<path class="st1" d="M197,118.7c0-45.7-37-82.7-82.7-82.7s-82.7,37-82.7,82.7c0,45.7,37,82.7,82.7,82.7V227c0,3.7,4.6,5.5,7.1,2.7
		l35.1-39.9C180.7,175.3,197,148.9,197,118.7z"/>
	<circle class="st2" cx="114.3" cy="119.9" r="69.9"/>
	<circle class="st3" cx="71.6" cy="112.1" r="4.9"/>
	<circle class="st3" cx="152.5" cy="112.1" r="4.9"/>
	<g>
		<path class="st3" d="M139.3,120.6c-6.3,10.2-17.7,15.9-29.1,14.5c-13.9-1.7-20.9-13.1-21.8-14.5H139.3z"/>
		<path class="st4" d="M100.3,128.3c-0.7,0.7-1.2,1.7-1.6,2.7c3.1,2,7,3.7,11.6,4.3c5.6,0.7,11.2-0.4,16.2-2.8
			C121,128,105.7,122.9,100.3,128.3z"/>
	</g>
	<g>
		<rect x="110.2" y="20" class="st1" width="5.4" height="21.6"/>
		<circle class="st1" cx="112.9" cy="13.2" r="10.4"/>
	</g>
</g>
</svg>
