<?xml version="1.0" standalone="no"?>
<!DOCTYPE svg PUBLIC "-//W3C//DTD SVG 20010904//EN"
 "http://www.w3.org/TR/2001/REC-SVG-20010904/DTD/svg10.dtd">
<svg version="1.0" xmlns="http://www.w3.org/2000/svg"
 width="1756.000000pt" height="1756.000000pt" viewBox="0 0 1756.000000 1756.000000"
 preserveAspectRatio="xMidYMid meet">
<metadata>
Created by potrace 1.11, written by Peter Selinger 2001-2013
</metadata>
<g transform="translate(0.000000,1756.000000) scale(0.100000,-0.100000)"
fill="#000000" stroke="none">
<path d="M5445 15983 c-132 -229 -252 -437 -266 -462 -14 -25 -109 -190 -211
-366 -102 -176 -228 -394 -280 -485 -52 -91 -129 -223 -170 -295 -41 -71 -88
-152 -105 -180 -16 -27 -32 -57 -36 -65 -4 -8 -15 -28 -26 -45 -10 -16 -154
-266 -321 -555 -167 -289 -360 -622 -428 -740 -68 -118 -136 -235 -150 -260
-14 -25 -81 -141 -149 -259 -69 -118 -133 -231 -144 -250 -11 -20 -29 -52 -40
-71 -12 -19 -113 -195 -226 -390 -113 -195 -222 -384 -243 -420 -40 -68 -291
-503 -320 -555 -26 -47 -120 -208 -130 -225 -10 -15 -48 -83 -92 -161 -45 -79
-190 -329 -312 -537 -36 -62 -66 -115 -66 -118 0 -3 -8 -18 -19 -32 -10 -15
-32 -52 -49 -83 -17 -31 -87 -153 -155 -270 -239 -413 -542 -939 -575 -999
-13 -25 -31 -52 -38 -61 -8 -8 -14 -18 -14 -21 0 -3 -41 -77 -91 -165 -80
-138 -296 -512 -397 -688 -19 -33 -43 -75 -53 -92 -11 -18 -27 -48 -37 -65
-11 -18 -80 -140 -155 -271 -76 -131 -137 -245 -137 -254 0 -24 74 -165 251
-474 152 -268 372 -646 426 -734 91 -148 124 -195 132 -191 5 3 30 43 56 88
26 46 56 99 67 118 11 19 46 78 77 130 31 52 61 106 68 120 7 14 24 43 38 65
13 22 28 47 32 55 3 8 16 31 28 50 12 19 33 55 47 80 14 25 62 108 107 184 44
76 81 140 81 142 0 2 27 48 60 103 33 55 60 105 60 111 0 5 5 10 10 10 6 0 10
4 10 9 0 5 64 118 141 252 78 134 151 260 161 279 80 142 374 650 389 672 11
15 19 29 19 32 0 2 27 50 60 106 33 56 60 104 60 107 0 3 8 17 19 31 10 15 30
48 44 73 14 25 76 133 137 240 111 190 222 384 244 424 7 11 24 39 39 62 15
24 27 45 27 47 0 2 39 71 86 153 48 81 96 164 107 183 10 19 137 238 280 485
143 248 303 524 355 615 52 91 117 202 143 248 27 45 49 87 49 92 0 6 5 10 10
10 6 0 10 4 10 10 0 5 32 64 71 132 40 67 80 136 89 153 17 29 389 673 538
930 67 116 151 261 320 555 72 124 87 151 289 500 94 162 180 311 190 330 36
63 83 145 93 160 5 8 31 53 58 100 27 47 75 130 107 185 32 55 66 114 75 130
9 17 65 113 125 215 59 102 115 199 125 215 50 89 224 389 298 515 47 80 90
154 96 165 47 84 91 155 96 155 5 0 7 -2 92 -150 68 -118 120 -213 170 -312
l39 -77 -96 -167 c-52 -92 -95 -171 -95 -176 0 -4 -4 -8 -10 -8 -5 0 -10 -5
-10 -10 0 -6 -49 -95 -109 -198 -59 -103 -197 -342 -306 -532 -109 -190 -257
-446 -328 -570 -72 -124 -180 -313 -242 -420 -152 -265 -203 -352 -215 -370
-6 -8 -13 -22 -17 -30 -4 -8 -28 -51 -54 -95 -46 -78 -116 -200 -572 -990
-123 -214 -239 -414 -256 -443 -17 -29 -31 -55 -31 -58 0 -3 -8 -17 -19 -32
-10 -15 -83 -139 -161 -277 -79 -137 -162 -281 -185 -320 -23 -38 -45 -77 -48
-85 -4 -8 -15 -28 -26 -45 -21 -35 -114 -196 -551 -955 -220 -382 -322 -559
-450 -780 -187 -324 -295 -513 -330 -576 -18 -32 -39 -66 -46 -75 -8 -8 -14
-19 -14 -22 0 -4 -22 -44 -49 -89 -27 -46 -59 -102 -72 -125 -13 -23 -62 -108
-109 -189 -47 -81 -97 -168 -111 -193 -48 -83 -251 -435 -269 -466 -9 -16 -69
-120 -132 -230 -63 -110 -185 -321 -270 -470 -86 -148 -165 -286 -175 -305
-11 -19 -88 -153 -171 -297 l-150 -261 57 -104 c143 -259 696 -1211 741 -1278
18 -25 -8 -67 395 630 17 30 58 100 90 155 32 55 67 116 78 135 10 19 34 60
52 90 18 30 82 141 142 245 61 105 178 307 260 450 83 143 160 276 170 295 24
43 230 400 283 490 95 163 287 496 293 510 4 8 15 29 26 45 10 17 75 129 146
250 128 222 210 363 232 400 7 11 15 26 19 34 4 8 36 64 72 125 66 114 282
488 312 541 9 17 108 188 220 380 111 193 210 364 220 380 28 50 463 802 534
924 36 62 66 115 66 116 0 1 42 74 93 161 51 87 96 166 100 174 4 8 17 31 28
50 12 19 97 166 189 325 92 160 241 416 330 570 90 154 174 300 188 325 14 25
48 86 77 135 29 50 62 106 73 125 10 19 52 91 92 160 40 69 114 197 165 285
152 262 381 657 403 695 12 19 34 58 50 85 40 70 241 416 255 440 7 10 23 37
35 58 l24 39 21 -33 c64 -103 268 -467 278 -496 12 -37 22 -15 -113 -248 -90
-155 -336 -582 -495 -857 -62 -109 -124 -217 -138 -240 -14 -24 -46 -80 -72
-126 -27 -46 -52 -91 -58 -100 -20 -33 -103 -178 -122 -212 -82 -145 -259
-450 -274 -472 -11 -15 -19 -29 -19 -31 0 -2 -64 -114 -141 -248 -78 -134
-153 -264 -167 -289 -40 -72 -191 -334 -202 -350 -5 -8 -25 -42 -42 -74 -18
-32 -37 -66 -43 -75 -5 -9 -25 -43 -44 -76 -19 -33 -80 -139 -136 -235 -56
-96 -113 -195 -127 -220 -14 -25 -49 -85 -78 -135 -29 -49 -64 -110 -78 -135
-14 -25 -32 -57 -41 -72 -9 -14 -34 -57 -55 -95 -22 -37 -104 -180 -184 -318
-80 -137 -156 -270 -170 -295 -13 -25 -37 -65 -52 -90 -15 -25 -107 -184 -205
-355 -97 -170 -188 -327 -201 -347 -13 -21 -24 -39 -24 -41 0 -3 -30 -56 -66
-118 -66 -114 -198 -342 -579 -1004 -111 -192 -246 -426 -300 -520 -54 -93
-106 -183 -115 -200 -10 -16 -32 -55 -50 -85 -18 -30 -45 -77 -60 -105 -15
-27 -85 -149 -155 -270 -70 -121 -188 -326 -263 -455 -74 -129 -143 -248 -153
-265 -10 -16 -26 -46 -37 -65 -11 -19 -81 -143 -157 -275 -76 -132 -210 -365
-297 -518 l-159 -278 31 -51 c17 -28 36 -60 41 -72 5 -12 18 -34 28 -51 10
-16 27 -46 38 -65 11 -19 89 -154 173 -300 84 -146 164 -285 178 -310 14 -25
28 -49 32 -55 4 -5 17 -26 28 -45 10 -19 61 -107 112 -195 52 -88 103 -177
114 -197 12 -21 26 -36 31 -35 6 2 69 102 141 223 73 120 141 235 153 254 12
19 58 98 103 175 44 77 88 152 97 167 9 14 45 77 81 138 36 62 72 124 80 139
9 14 28 49 44 76 16 28 50 86 76 130 112 192 270 464 295 510 15 28 31 55 35
60 4 6 42 71 85 145 43 74 175 304 295 510 119 206 226 390 236 409 10 18 24
41 29 50 6 9 25 43 44 76 19 33 114 197 211 365 299 515 507 875 572 990 32
54 112 193 125 215 7 11 15 27 19 35 4 8 25 43 46 78 21 34 38 64 38 66 0 2
17 33 38 67 22 35 50 84 64 109 34 61 425 735 455 785 13 22 29 52 36 68 6 15
15 27 19 27 4 0 8 4 8 9 0 7 340 602 389 681 9 13 135 232 202 349 159 277
370 639 378 648 6 7 11 15 11 18 0 4 16 34 36 68 20 34 46 78 56 97 44 77 175
302 198 340 5 8 31 53 58 100 27 47 65 112 84 145 19 33 66 114 105 180 124
214 244 420 254 435 18 30 195 336 202 350 4 8 15 29 26 45 10 17 56 95 103
175 119 202 180 305 183 308 1 1 23 -32 47 -75 88 -154 178 -308 188 -323 6
-8 13 -22 17 -30 4 -8 18 -33 31 -55 14 -22 39 -65 55 -95 16 -30 36 -62 43
-71 8 -8 14 -18 14 -21 0 -3 88 -158 196 -344 202 -348 220 -379 260 -451 35
-61 153 -266 164 -283 12 -19 67 -115 93 -160 11 -19 61 -107 112 -195 51 -88
102 -176 113 -195 10 -19 79 -138 152 -265 73 -126 142 -246 153 -265 10 -19
34 -60 52 -90 18 -30 144 -248 280 -485 302 -525 264 -458 377 -655 53 -91
123 -212 156 -270 33 -57 58 -108 56 -112 -5 -8 -82 -9 -1506 -11 -619 -1
-1129 -5 -1133 -9 -8 -8 69 -148 345 -623 94 -162 120 -209 120 -216 0 -5 5
-9 10 -9 6 0 10 -4 10 -10 0 -5 26 -53 59 -107 32 -54 69 -118 83 -143 41 -74
185 -314 200 -334 13 -17 34 -19 254 -22 131 -2 732 -3 1334 -4 l1095 0 50
-87 c28 -48 63 -110 78 -138 16 -27 39 -68 52 -90 70 -121 94 -173 82 -177
-13 -5 -379 -8 -1717 -13 -498 -2 -910 -4 -917 -4 -6 -1 43 -94 108 -208 66
-113 131 -225 143 -247 49 -87 579 -1001 582 -1005 2 -2 603 -5 1335 -7 1094
-2 1334 -5 1344 -16 12 -12 162 -263 234 -391 18 -32 31 -60 28 -63 -8 -8
-746 -16 -1734 -17 -502 -1 -913 -5 -913 -10 0 -8 20 -46 77 -142 55 -94 217
-373 241 -416 10 -19 61 -106 112 -194 51 -88 104 -180 118 -205 13 -25 28
-49 32 -55 4 -5 19 -30 32 -55 42 -75 220 -385 224 -389 2 -2 597 -5 1322 -7
l1319 -4 209 363 c115 199 214 371 220 382 6 11 34 60 63 108 28 49 51 90 51
93 0 2 17 32 38 66 59 98 220 389 236 428 l14 35 -75 125 c-110 182 -204 352
-199 358 3 2 126 6 274 7 147 1 278 5 289 9 13 4 41 42 71 94 27 48 89 155
137 237 193 333 459 794 543 945 51 91 92 175 92 192 0 9 -14 41 -32 70 -75
127 -198 342 -198 347 0 3 -9 17 -20 31 -38 48 -35 49 203 50 122 1 250 2 284
2 45 0 66 5 76 17 14 17 107 169 107 176 0 2 22 40 50 85 27 45 50 83 50 84 0
2 56 99 125 216 69 117 125 214 125 216 0 2 13 25 28 51 59 100 261 461 302
539 37 73 40 85 29 105 -11 22 -166 290 -209 362 -11 18 -34 59 -53 92 -18 33
-171 298 -340 589 -169 290 -307 532 -307 537 0 5 -4 9 -9 9 -5 0 -11 6 -13
13 -2 6 -41 79 -88 160 -94 164 -92 160 -196 339 -41 69 -74 131 -74 137 0 6
-4 11 -10 11 -5 0 -10 4 -10 9 0 5 -17 38 -38 72 -21 35 -52 89 -69 119 -17
30 -76 133 -132 229 -55 95 -101 175 -101 177 0 2 -25 44 -55 94 -30 50 -55
93 -55 96 0 3 -8 18 -19 32 -10 15 -30 48 -44 73 -14 25 -76 133 -137 240 -62
107 -122 210 -133 229 -11 19 -86 150 -167 290 -81 140 -157 271 -168 290 -10
19 -70 123 -132 230 -63 107 -130 223 -149 258 -20 34 -95 165 -167 290 -73
125 -201 346 -285 492 -84 146 -184 319 -222 385 -39 66 -77 134 -87 150 -9
17 -68 118 -130 225 -62 107 -123 213 -136 235 -12 22 -76 134 -143 248 -67
115 -121 211 -121 213 0 3 -15 28 -33 57 -18 29 -68 113 -111 187 -42 74 -81
142 -86 150 -26 43 -180 313 -180 315 0 2 -17 32 -38 66 -22 35 -50 84 -64
109 -14 25 -57 99 -95 165 -39 66 -81 140 -95 165 -14 25 -83 144 -153 265
-146 250 -228 392 -260 450 -12 22 -62 108 -110 190 -48 83 -99 170 -113 195
-13 25 -40 71 -59 103 -19 31 -47 79 -61 106 -15 26 -67 118 -117 204 l-90
156 -823 1 c-816 0 -824 0 -829 -20 -3 -11 -9 -20 -14 -20 -5 0 -9 -5 -9 -10
0 -6 -47 -91 -104 -188 -57 -97 -114 -195 -126 -217 -12 -22 -29 -48 -38 -58
-19 -21 -13 -30 -199 293 l-126 220 -827 0 -828 0 -78 -137 c-106 -188 -213
-365 -227 -380 -13 -13 -16 -9 -253 400 l-68 117 -821 0 -820 0 -240 -417z
m3377 -1061 c21 -37 48 -85 61 -107 72 -121 207 -366 207 -376 0 -19 -299
-549 -311 -549 -7 0 -233 397 -279 490 l-33 65 29 55 c16 30 32 57 35 60 3 3
8 10 10 16 8 22 234 414 239 414 3 0 22 -31 42 -68z m2278 -25 c0 -2 65 -115
145 -251 80 -137 145 -250 145 -253 0 -2 16 -29 35 -59 19 -30 35 -56 35 -58
0 -2 17 -33 38 -67 22 -35 50 -84 64 -109 14 -25 34 -61 45 -80 56 -96 168
-288 233 -400 40 -69 80 -138 90 -155 81 -141 258 -448 294 -510 26 -42 46
-78 46 -80 0 -3 25 -45 55 -95 30 -50 55 -93 55 -95 0 -3 16 -29 35 -59 19
-30 35 -57 35 -59 0 -2 52 -93 115 -202 63 -108 115 -199 115 -201 0 -1 17
-31 39 -66 35 -57 200 -342 248 -428 11 -19 87 -150 168 -290 81 -140 157
-271 167 -290 11 -19 42 -72 69 -118 27 -45 49 -85 49 -88 0 -3 8 -18 19 -32
10 -15 29 -47 43 -72 14 -25 134 -234 268 -465 133 -231 253 -439 266 -462 13
-23 80 -138 147 -255 334 -576 512 -885 524 -908 8 -14 23 -40 34 -58 10 -18
70 -122 132 -230 63 -108 126 -216 140 -239 15 -24 27 -44 27 -46 0 -2 54 -98
121 -212 66 -115 131 -227 143 -249 13 -23 74 -128 136 -235 61 -107 123 -215
137 -240 14 -25 34 -58 44 -73 11 -14 19 -28 19 -31 0 -2 61 -109 134 -236 74
-128 137 -240 140 -249 6 -17 -12 -18 -276 -16 -156 0 -297 4 -313 8 -30 6
-36 15 -110 145 -11 20 -43 74 -71 121 -53 87 -356 608 -402 690 -14 25 -36
63 -50 84 -13 22 -34 58 -46 80 -26 48 -451 784 -466 806 -5 8 -21 35 -35 60
-14 25 -33 59 -43 75 -9 17 -91 158 -181 315 -90 157 -172 297 -182 312 -11
15 -19 29 -19 32 0 3 -20 39 -45 79 -25 41 -45 78 -45 81 0 4 -13 27 -30 51
-16 24 -30 46 -30 48 0 4 -82 149 -140 247 -5 8 -30 51 -56 95 -26 44 -58 100
-72 125 -13 25 -39 70 -57 100 -18 30 -42 71 -53 91 -11 19 -54 95 -97 169
-43 74 -85 148 -95 164 -9 17 -109 191 -222 386 -113 195 -216 375 -230 400
-24 43 -80 140 -118 205 -9 17 -55 95 -102 175 -46 80 -87 152 -91 160 -4 8
-16 30 -27 48 -11 18 -98 169 -194 335 -95 166 -187 325 -203 352 -16 28 -32
57 -36 65 -4 8 -13 24 -19 35 -19 29 -51 84 -80 135 -14 25 -123 216 -243 425
-120 209 -229 400 -243 425 -14 25 -48 86 -77 135 -29 50 -62 107 -74 128 -12
20 -31 54 -42 75 -12 20 -33 57 -47 82 -14 25 -61 108 -104 184 l-79 139 37
71 c56 107 233 412 257 444 7 9 16 4 33 -22 13 -19 24 -37 24 -39z m-1018
-2162 c74 -126 178 -304 230 -395 52 -91 168 -291 258 -445 89 -154 174 -300
188 -325 14 -25 81 -142 150 -260 69 -118 134 -231 145 -250 11 -19 77 -134
147 -255 70 -121 137 -236 148 -255 50 -89 250 -434 295 -510 27 -47 61 -105
75 -130 25 -45 70 -124 276 -478 58 -101 106 -186 106 -189 0 -4 6 -14 14 -22
7 -9 27 -41 43 -71 17 -30 53 -95 82 -144 28 -49 51 -93 51 -97 0 -5 5 -9 10
-9 6 0 10 -4 10 -10 0 -5 22 -47 49 -92 27 -46 58 -99 69 -120 17 -29 185
-322 268 -465 36 -62 189 -326 204 -352 8 -14 31 -53 49 -86 34 -58 334 -579
551 -955 59 -102 114 -198 123 -215 l15 -30 -207 2 c-113 1 -258 2 -322 2
l-116 1 -32 58 c-18 31 -41 72 -51 90 -35 58 -242 415 -268 462 -13 25 -39 70
-57 100 -18 30 -43 72 -54 94 -12 21 -78 134 -146 252 -69 118 -125 215 -125
217 0 2 -25 45 -55 95 -30 50 -55 96 -55 102 0 5 -4 10 -10 10 -5 0 -10 4 -10
10 0 5 -32 64 -71 132 -40 67 -80 136 -89 153 -9 16 -50 86 -90 155 -39 69
-142 247 -227 395 -86 149 -159 275 -163 280 -4 6 -19 30 -32 55 -14 25 -85
149 -158 275 -73 127 -141 244 -150 260 -9 17 -126 219 -260 450 -134 231
-254 440 -268 465 -13 25 -28 50 -32 55 -4 6 -19 30 -32 55 -34 61 -40 71
-248 430 -100 173 -192 333 -205 355 -12 22 -48 85 -80 140 -32 55 -66 114
-75 130 -9 17 -77 134 -150 260 -73 127 -148 257 -166 291 l-34 61 139 241
c77 133 149 256 161 273 l22 30 13 -23 c7 -13 73 -126 147 -253z m4403 -7645
c27 -10 290 -471 275 -480 -7 -4 -149 -7 -318 -6 l-306 1 -88 150 c-48 83 -98
171 -112 196 -13 25 -34 62 -45 82 -26 46 -26 54 -3 60 32 7 577 4 597 -3z"/>
</g>
</svg>
