<?xml version="1.0" encoding="utf-8"?>
<!-- Generator: Adobe Illustrator 22.0.1, SVG Export Plug-In . SVG Version: 6.00 Build 0)  -->
<svg version="1.1" id="Layer_1" xmlns="http://www.w3.org/2000/svg" xmlns:xlink="http://www.w3.org/1999/xlink" x="0px" y="0px"
	 viewBox="0 0 115.5 112.2" style="enable-background:new 0 0 115.5 112.2;" xml:space="preserve">
<style type="text/css">
	.st0{fill:#F2F2F2;}
	.st1{clip-path:url(#SVGID_4_);}
	.st2{fill:#995F13;}
	.st3{fill:#F1F2F2;}
	.st4{fill:#FFFFFF;}
	.st5{fill:#D1D3D4;}
	.st6{fill:#EA6552;}
	.st7{fill:#FACB34;}
	.st8{fill:#F8DB1D;}
	.st9{fill:#F8A81D;}
</style>
<g>
	<circle class="st0" cx="58.1" cy="56" r="54"/>
	<g>
		<defs>
			<circle id="SVGID_1_" cx="58.1" cy="56" r="54"/>
		</defs>
		<clipPath id="SVGID_2_">
			<use xlink:href="#SVGID_1_"  style="overflow:visible;"/>
		</clipPath>
	</g>
</g>
<g>
	<g>
		<defs>
			<circle id="SVGID_3_" cx="58.1" cy="56" r="54"/>
		</defs>
		<clipPath id="SVGID_4_">
			<use xlink:href="#SVGID_3_"  style="overflow:visible;"/>
		</clipPath>
		<g class="st1">
			<g>
				<g>
					<g>
						<polygon class="st2" points="19.5,64.4 58.5,32 97.5,64.4 97.5,110.2 19.5,110.2 						"/>
						<g>
							<path class="st3" d="M84.8,91.8H32.2c-0.4,0-0.7-0.3-0.7-0.7V39.4c0-0.4,0.3-0.7,0.7-0.7h52.6c0.4,0,0.7,0.3,0.7,0.7v51.7
								C85.5,91.5,85.2,91.8,84.8,91.8z"/>
							<path class="st4" d="M84.8,38.7H32.2c-0.4,0-0.7,0.3-0.7,0.7v0.5c0-0.4,0.3-0.7,0.7-0.7h52.6c0.4,0,0.7,0.3,0.7,0.7v-0.5
								C85.5,39,85.2,38.7,84.8,38.7z"/>
							<g>
								<rect x="54.9" y="45.5" class="st5" width="23.7" height="2.8"/>
								<rect x="54.9" y="51.1" class="st5" width="23.7" height="2.8"/>
								<rect x="38.3" y="45.5" class="st6" width="14" height="14"/>
								<rect x="54.9" y="56.7" class="st5" width="23.7" height="2.8"/>
								<rect x="38.3" y="62.3" class="st5" width="40.4" height="2.8"/>
								<rect x="38.3" y="73.4" class="st5" width="40.4" height="2.8"/>
								<rect x="38.3" y="67.9" class="st5" width="40.4" height="2.8"/>
								<rect x="38.3" y="79" class="st5" width="40.4" height="2.8"/>
								<rect x="38.3" y="84.6" class="st5" width="40.4" height="2.8"/>
							</g>
						</g>
						<polygon class="st7" points="19.5,64.4 51.8,87.3 19.5,110.2 						"/>
						<polygon class="st8" points="19.5,64.4 19.5,64.8 51.2,87.3 19.5,109.7 19.5,110.2 51.8,87.3 						"/>
						<polygon class="st7" points="97.5,64.4 65.1,87.3 97.5,110.2 						"/>
						<polygon class="st8" points="97.5,64.4 97.5,64.8 65.8,87.3 97.5,109.7 97.5,110.2 65.1,87.3 						"/>
					</g>
					<polygon class="st9" points="65.2,87.3 51.8,87.3 51.8,87.2 19.5,110.2 97.5,110.2 					"/>
				</g>
			</g>
		</g>
	</g>
	<g>
		<defs>
			<circle id="SVGID_5_" cx="58.1" cy="56" r="54"/>
		</defs>
		<clipPath id="SVGID_6_">
			<use xlink:href="#SVGID_5_"  style="overflow:visible;"/>
		</clipPath>
	</g>
</g>
</svg>
