<?xml version="1.0" encoding="utf-8"?>
<!-- Generator: Adobe Illustrator 22.0.1, SVG Export Plug-In . SVG Version: 6.00 Build 0)  -->
<svg version="1.1" id="Layer_1" xmlns="http://www.w3.org/2000/svg" xmlns:xlink="http://www.w3.org/1999/xlink" x="0px" y="0px"
	 viewBox="0 0 115.5 112.2" style="enable-background:new 0 0 115.5 112.2;" xml:space="preserve">
<style type="text/css">
	.st0{fill:#F2F2F2;}
	.st1{clip-path:url(#SVGID_2_);}
	.st2{fill:#73726F;}
	.st3{fill:#FFCB02;}
	.st4{fill:#5C5A5A;}
	.st5{fill:#FBB515;}
</style>
<g>
	<circle class="st0" cx="57.6" cy="56" r="54"/>
	<g>
		<defs>
			<circle id="SVGID_1_" cx="57.6" cy="56" r="54"/>
		</defs>
		<clipPath id="SVGID_2_">
			<use xlink:href="#SVGID_1_"  style="overflow:visible;"/>
		</clipPath>
		<g class="st1">
			<g id="XMLID_266_">
				<g id="XMLID_267_">
					<g id="XMLID_270_">
						<path id="XMLID_271_" class="st2" d="M74.8,58.1h-4.8V42.3c0-6.9-5.6-12.5-12.5-12.5S45,35.4,45,42.3v15.8h-4.8V42.3
							C40.3,32.8,48,25,57.5,25s17.3,7.8,17.3,17.3V58.1z"/>
					</g>
					<g id="XMLID_268_">
						<path id="XMLID_269_" class="st3" d="M82.1,82c0,1-0.8,1.9-1.9,1.9H34.8c-1,0-1.9-0.8-1.9-1.9V52.4c0-1,0.8-1.9,1.9-1.9h45.5
							c1,0,1.9,0.8,1.9,1.9V82z"/>
					</g>
				</g>
			</g>
			<path class="st4" d="M70.1,50.6c0,0,4.1-5.1,4.6-10.6v10.6H70.1z"/>
			<path class="st5" d="M82.1,82V63.9c-15,12.7-36.6,17.4-48.8,19.2c0.3,0.5,0.9,0.8,1.5,0.8h45.5C81.3,83.9,82.1,83,82.1,82z"/>
			<path class="st2" d="M61.6,62.2c0-2.2-1.8-4.1-4.1-4.1c-2.2,0-4.1,1.8-4.1,4.1c0,1.3,0.6,2.5,1.6,3.3l-1.3,9.2h7.4L60,65.5
				C61,64.7,61.6,63.6,61.6,62.2z"/>
			<path class="st4" d="M53.8,74.7c0,0,5.8-2.2,6.2-8.5l1.2,8.5H53.8z"/>
		</g>
	</g>
</g>
</svg>
