<?xml version="1.0" encoding="utf-8"?>
<!-- Generator: Adobe Illustrator 22.0.1, SVG Export Plug-In . SVG Version: 6.00 Build 0)  -->
<svg version="1.1" id="Layer_1" xmlns="http://www.w3.org/2000/svg" xmlns:xlink="http://www.w3.org/1999/xlink" x="0px" y="0px"
	 viewBox="0 0 329.7 76" style="enable-background:new 0 0 329.7 76;" xml:space="preserve">
<style type="text/css">
	.st0{fill:#F2F2F2;}
	.st1{fill:#E6E6E6;}
	.st2{fill:#FFFFFF;}
	.st3{fill:#CCCCCC;}
</style>
<g>
	<rect x="-0.3" y="-0.3" class="st0" width="329" height="76"/>
	<rect x="220.7" y="6.7" class="st1" width="100" height="69"/>
	<rect x="114.2" y="6.7" class="st1" width="100" height="69"/>
	<rect x="7.7" y="6.7" class="st1" width="100" height="69"/>
	<path class="st2" d="M229.7,44.1h82c1.7,0,3-1.3,3-3V26.7c0-1.7-1.3-3-3-3h-82c-1.7,0-3,1.3-3,3v14.4
		C226.7,42.7,228.1,44.1,229.7,44.1z"/>
	<path class="st2" d="M122.7,44.1h82c1.7,0,3-1.3,3-3V26.7c0-1.7-1.3-3-3-3h-82c-1.7,0-3,1.3-3,3v14.4
		C119.7,42.7,121.1,44.1,122.7,44.1z"/>
	<path class="st2" d="M16.7,44.1h82c1.7,0,3-1.3,3-3V26.7c0-1.7-1.3-3-3-3h-82c-1.7,0-3,1.3-3,3v14.4C13.7,42.7,15.1,44.1,16.7,44.1
		z"/>
	<path class="st2" d="M229.7,67.7h82c1.7,0,3-1.3,3-3V50.3c0-1.7-1.3-3-3-3h-82c-1.7,0-3,1.3-3,3v14.4
		C226.7,66.4,228.1,67.7,229.7,67.7z"/>
	<path class="st2" d="M16.7,67.7h82c1.7,0,3-1.3,3-3V50.3c0-1.7-1.3-3-3-3h-82c-1.7,0-3,1.3-3,3v14.4C13.7,66.4,15.1,67.7,16.7,67.7
		z"/>
	<path class="st3" d="M251.2,18.7h61c1.4,0,2.5-1.1,2.5-2.5l0,0c0-1.4-1.1-2.5-2.5-2.5h-61c-1.4,0-2.5,1.1-2.5,2.5l0,0
		C248.7,17.6,249.8,18.7,251.2,18.7z"/>
	<path class="st3" d="M179.2,18.7h26c1.4,0,2.5-1.1,2.5-2.5l0,0c0-1.4-1.1-2.5-2.5-2.5h-26c-1.4,0-2.5,1.1-2.5,2.5l0,0
		C176.7,17.6,177.8,18.7,179.2,18.7z"/>
	<path class="st3" d="M64.2,17.7h35c1.4,0,2.5-1.1,2.5-2.5l0,0c0-1.4-1.1-2.5-2.5-2.5h-35c-1.4,0-2.5,1.1-2.5,2.5l0,0
		C61.7,16.6,62.8,17.7,64.2,17.7z"/>
</g>
</svg>
