<?xml version="1.0" encoding="utf-8"?>
<!-- Generator: Adobe Illustrator 22.0.1, SVG Export Plug-In . SVG Version: 6.00 Build 0)  -->
<svg version="1.1" id="Layer_1" xmlns="http://www.w3.org/2000/svg" xmlns:xlink="http://www.w3.org/1999/xlink" x="0px" y="0px"
	 viewBox="0 0 330.3 76.7" style="enable-background:new 0 0 330.3 76.7;" xml:space="preserve">
<style type="text/css">
	.st0{fill:#F2F2F2;}
	.st1{fill:none;stroke:#CCCCCC;stroke-width:0.5;stroke-miterlimit:10;}
	.st2{fill:none;stroke:#CCCCCC;stroke-width:0.5;stroke-miterlimit:10;stroke-dasharray:2.0299,1.0149;}
	.st3{fill:#FFFFFF;}
	.st4{fill:#333333;}
	.st5{fill:#B3B3B3;}
	.st6{fill:none;stroke:#B3B3B3;stroke-width:0.5;stroke-linecap:round;stroke-linejoin:round;}
</style>
<rect x="0.9" y="0.3" class="st0" width="329" height="76"/>
<g>
	<g>
		<polyline class="st1" points="256,72.4 256,73.4 255.3,73.4 255.3,72.4 		"/>
		<line class="st2" x1="255.3" y1="71.4" x2="255.3" y2="4.9"/>
		<polyline class="st1" points="255.3,4.4 255.3,3.4 256,3.4 256,4.4 		"/>
		<line class="st2" x1="256" y1="5.4" x2="256" y2="71.9"/>
	</g>
</g>
<g>
	<g>
		<polyline class="st1" points="172.2,72.4 172.2,73.4 171.5,73.4 171.5,72.4 		"/>
		<line class="st2" x1="171.5" y1="71.4" x2="171.5" y2="4.9"/>
		<polyline class="st1" points="171.5,4.4 171.5,3.4 172.2,3.4 172.2,4.4 		"/>
		<line class="st2" x1="172.2" y1="5.4" x2="172.2" y2="71.9"/>
	</g>
</g>
<g>
	<g>
		<polyline class="st1" points="78.3,72.3 78.3,73.3 77.7,73.3 77.7,72.3 		"/>
		<line class="st2" x1="77.7" y1="71.3" x2="77.7" y2="4.8"/>
		<polyline class="st1" points="77.7,4.3 77.7,3.3 78.3,3.3 78.3,4.3 		"/>
		<line class="st2" x1="78.3" y1="5.3" x2="78.3" y2="71.8"/>
	</g>
</g>
<rect x="175.2" y="9" class="st3" width="150.2" height="36.7"/>
<rect x="79.9" y="31.4" class="st3" width="89.7" height="14.3"/>
<rect x="4.7" y="56" class="st3" width="163.9" height="14.3"/>
<g>
	<path class="st4" d="M181.9,15c0.1,0,0.1,0,0.2,0.1l2,2c0.1,0.1,0.1,0.2,0,0.3s-0.2,0.1-0.3,0l-1.8-1.8l-1.8,1.8
		c-0.1,0.1-0.2,0.1-0.3,0c-0.1-0.1-0.1-0.2,0-0.3l2-2C181.8,15.1,181.9,15,181.9,15z"/>
</g>
<g>
	<path class="st4" d="M86.1,40.3c-0.1,0-0.1,0-0.2-0.1l-2-2c-0.1-0.1-0.1-0.2,0-0.3c0.1-0.1,0.2-0.1,0.3,0l1.8,1.8l1.8-1.8
		c0.1-0.1,0.2-0.1,0.3,0c0.1,0.1,0.1,0.2,0,0.3L86.1,40.3C86.2,40.2,86.1,40.3,86.1,40.3z"/>
</g>
<g>
	<path class="st4" d="M10.6,64.7c-0.1,0-0.1,0-0.2-0.1l-2-2c-0.1-0.1-0.1-0.2,0-0.3c0.1-0.1,0.2-0.1,0.3,0l1.8,1.8l1.8-1.8
		c0.1-0.1,0.2-0.1,0.3,0c0.1,0.1,0.1,0.2,0,0.3L10.6,64.7C10.7,64.6,10.6,64.7,10.6,64.7z"/>
</g>
<path class="st5" d="M266.2,17.4h51.9c0.7,0,1.2-0.6,1.2-1.2v0c0-0.7-0.6-1.2-1.2-1.2h-51.9c-0.7,0-1.2,0.6-1.2,1.2v0
	C264.9,16.9,265.5,17.4,266.2,17.4z"/>
<path class="st5" d="M123.2,64.4h37.5c0.7,0,1.2-0.6,1.2-1.2v0c0-0.7-0.6-1.2-1.2-1.2h-37.5c-0.7,0-1.2,0.6-1.2,1.2v0
	C122,63.9,122.5,64.4,123.2,64.4z"/>
<path class="st5" d="M124.2,40.3h37.5c0.7,0,1.2-0.6,1.2-1.2l0,0c0-0.7-0.6-1.2-1.2-1.2h-37.5c-0.7,0-1.2,0.6-1.2,1.2l0,0
	C123,39.7,123.5,40.3,124.2,40.3z"/>
<g>
	<rect x="257.9" y="24.1" class="st5" width="54.4" height="1"/>
	<polyline class="st6" points="316.8,23.4 315.1,25.1 314.3,24.3 	"/>
</g>
<g>
	<rect x="277.9" y="29.1" class="st5" width="34.4" height="1"/>
	<polyline class="st6" points="316.8,28.2 315.1,30 314.3,29.2 	"/>
</g>
<g>
	<rect x="262.9" y="34.2" class="st5" width="49.4" height="1"/>
	<polyline class="st6" points="316.8,33.4 315.1,35.1 314.3,34.3 	"/>
</g>
</svg>
