<?xml version="1.0" encoding="utf-8"?>
<!-- Generator: Adobe Illustrator 22.0.1, SVG Export Plug-In . SVG Version: 6.00 Build 0)  -->
<svg version="1.1" id="Layer_1" xmlns="http://www.w3.org/2000/svg" xmlns:xlink="http://www.w3.org/1999/xlink" x="0px" y="0px"
	 viewBox="0 0 344 92" style="enable-background:new 0 0 344 92;" xml:space="preserve">
<style type="text/css">
	.st0{fill:#F2F2F2;}
	.st1{fill:#E6E6E6;}
	.st2{fill:#FFFFFF;}
	.st3{fill:#CCCCCC;}
</style>
<g>
	<rect x="7.6" y="7.3" class="st0" width="329" height="76"/>
	<rect x="228.6" y="14.3" class="st1" width="100" height="69"/>
	<rect x="122.1" y="14.3" class="st1" width="100" height="69"/>
	<rect x="15.6" y="14.3" class="st1" width="100" height="69"/>
	<path class="st2" d="M237.6,51.7h82c1.7,0,3-1.3,3-3V34.3c0-1.7-1.3-3-3-3h-82c-1.7,0-3,1.3-3,3v14.4
		C234.6,50.3,236,51.7,237.6,51.7z"/>
	<path class="st2" d="M130.6,51.7h82c1.7,0,3-1.3,3-3V34.3c0-1.7-1.3-3-3-3h-82c-1.7,0-3,1.3-3,3v14.4
		C127.6,50.3,129,51.7,130.6,51.7z"/>
	<path class="st2" d="M24.6,51.7h82c1.7,0,3-1.3,3-3V34.3c0-1.7-1.3-3-3-3h-82c-1.7,0-3,1.3-3,3v14.4C21.6,50.3,23,51.7,24.6,51.7z"
		/>
	<path class="st2" d="M237.6,75.3h82c1.7,0,3-1.3,3-3V57.9c0-1.7-1.3-3-3-3h-82c-1.7,0-3,1.3-3,3v14.4C234.6,74,236,75.3,237.6,75.3
		z"/>
	<path class="st2" d="M24.6,75.3h82c1.7,0,3-1.3,3-3V57.9c0-1.7-1.3-3-3-3h-82c-1.7,0-3,1.3-3,3v14.4C21.6,74,23,75.3,24.6,75.3z"/>
	<path class="st3" d="M259.1,26.3h61c1.4,0,2.5-1.1,2.5-2.5v0c0-1.4-1.1-2.5-2.5-2.5h-61c-1.4,0-2.5,1.1-2.5,2.5v0
		C256.6,25.2,257.7,26.3,259.1,26.3z"/>
	<path class="st3" d="M187.1,26.3h26c1.4,0,2.5-1.1,2.5-2.5v0c0-1.4-1.1-2.5-2.5-2.5h-26c-1.4,0-2.5,1.1-2.5,2.5v0
		C184.6,25.2,185.7,26.3,187.1,26.3z"/>
	<path class="st3" d="M72.1,25.3h35c1.4,0,2.5-1.1,2.5-2.5v0c0-1.4-1.1-2.5-2.5-2.5h-35c-1.4,0-2.5,1.1-2.5,2.5v0
		C69.6,24.2,70.7,25.3,72.1,25.3z"/>
</g>
</svg>
