<?xml version="1.0" encoding="utf-8"?>
<!-- Generator: Adobe Illustrator 22.0.1, SVG Export Plug-In . SVG Version: 6.00 Build 0)  -->
<svg version="1.1" id="Layer_1" xmlns="http://www.w3.org/2000/svg" xmlns:xlink="http://www.w3.org/1999/xlink" x="0px" y="0px"
	 viewBox="0 0 344 92" style="enable-background:new 0 0 344 92;" xml:space="preserve">
<style type="text/css">
	.st0{fill:#F2F2F2;}
	.st1{fill:#333333;}
	.st2{fill:#B3B3B3;}
	.st3{fill:none;stroke:#666666;stroke-miterlimit:10;}
	.st4{fill:#CCCCCC;}
	.st5{fill:#999999;}
	.st6{fill:#E6E6E6;stroke:#B3B3B3;stroke-miterlimit:10;}
	.st7{fill:none;stroke:#B3B3B3;stroke-miterlimit:10;}
</style>
<g>
	<rect x="7.6" y="7.3" class="st0" width="329" height="76"/>
	<g>
		<g>
			<path class="st1" d="M323.9,18.3c-0.1,0-0.1,0-0.2-0.1l-2-2c-0.1-0.1-0.1-0.2,0-0.3s0.2-0.1,0.3,0l1.8,1.8l1.8-1.8
				c0.1-0.1,0.2-0.1,0.3,0c0.1,0.1,0.1,0.2,0,0.3l-2,2C324,18.2,323.9,18.3,323.9,18.3z"/>
		</g>
		<path class="st2" d="M259.6,20.3h55c1.7,0,3-1.3,3-3v0c0-1.7-1.3-3-3-3h-55c-1.7,0-3,1.3-3,3v0C256.6,19,258,20.3,259.6,20.3z"/>
	</g>
	<g>
		<g>
			<path class="st1" d="M300.7,44.9c-0.1,0-0.1,0-0.2-0.1l-2-2c-0.1-0.1-0.1-0.2,0-0.3c0.1-0.1,0.2-0.1,0.3,0l1.8,1.8l1.8-1.8
				c0.1-0.1,0.2-0.1,0.3,0s0.1,0.2,0,0.3l-2,2C300.8,44.8,300.7,44.9,300.7,44.9z"/>
		</g>
		<g>
			<g>
				<path class="st3" d="M294.4,41.3L294.4,41.3v4.4c0,0.3-0.2,0.5-0.5,0.5l0,0h-5.3c-0.3,0-0.5-0.2-0.5-0.5l0,0V42
					c0-0.3,0.2-0.5,0.5-0.5l0,0h3c0.2,0,0.3-0.1,0.4-0.2l0,0l0.2-0.3c0.1-0.1,0.3-0.2,0.4-0.2l0,0h1.2
					C294.2,40.7,294.4,41,294.4,41.3z"/>
			</g>
		</g>
		<path class="st4" d="M244.1,46.3h35c1.4,0,2.5-1.1,2.5-2.5v0c0-1.4-1.1-2.5-2.5-2.5h-35c-1.4,0-2.5,1.1-2.5,2.5v0
			C241.6,45.2,242.7,46.3,244.1,46.3z"/>
	</g>
	<g>
		<g>
			<path class="st1" d="M271.1,63.5c-0.1,0-0.1,0-0.2-0.1l-2-2c-0.1-0.1-0.1-0.2,0-0.3s0.2-0.1,0.3,0l1.8,1.8l1.8-1.8
				c0.1-0.1,0.2-0.1,0.3,0c0.1,0.1,0.1,0.2,0,0.3l-2,2C271.2,63.4,271.2,63.5,271.1,63.5z"/>
		</g>
		<g id="surface1_2_">
			<path class="st5" d="M259.6,58.5c-0.4,0-0.8,0.3-0.8,0.8v4.8c0,0.4,0.3,0.8,0.8,0.8h4.8c0.4,0,0.8-0.3,0.8-0.8v-4.8
				c0-0.4-0.3-0.8-0.8-0.8H259.6z M259.6,58.8h4.8c0.3,0,0.5,0.2,0.5,0.5v4.8c0,0.3-0.2,0.5-0.5,0.5h-4.8c-0.3,0-0.5-0.2-0.5-0.5
				v-4.8C259.2,59,259.4,58.8,259.6,58.8z M260.1,59.2c-0.2,0-0.5,0.2-0.5,0.5v3.6c0,0.2,0.2,0.5,0.5,0.5h1.1c0.2,0,0.5-0.2,0.5-0.5
				v-3.6c0-0.2-0.2-0.5-0.5-0.5H260.1z M262.9,59.2c-0.2,0-0.5,0.2-0.5,0.5v1.8c0,0.2,0.2,0.5,0.5,0.5h1.1c0.2,0,0.5-0.2,0.5-0.5
				v-1.8c0-0.2-0.2-0.5-0.5-0.5H262.9z M260.1,59.5h1.1c0.1,0,0.2,0.1,0.2,0.2v3.6c0,0.1-0.1,0.2-0.2,0.2h-1.1
				c-0.1,0-0.2-0.1-0.2-0.2v-3.6C259.9,59.6,260,59.5,260.1,59.5z M262.9,59.5h1.1c0.1,0,0.2,0.1,0.2,0.2v1.8c0,0.1-0.1,0.2-0.2,0.2
				h-1.1c-0.1,0-0.2-0.1-0.2-0.2v-1.8C262.8,59.6,262.8,59.5,262.9,59.5z"/>
		</g>
		<path class="st4" d="M189.1,62.3h63c0.8,0,1.5-0.7,1.5-1.5l0,0c0-0.8-0.7-1.5-1.5-1.5h-63c-0.8,0-1.5,0.7-1.5,1.5l0,0
			C187.6,61.6,188.3,62.3,189.1,62.3z"/>
	</g>
	<line class="st6" x1="313" y1="23" x2="313" y2="76.3"/>
	<line class="st6" x1="291" y1="49.3" x2="291" y2="83.3"/>
	<line class="st6" x1="305.1" y1="43.4" x2="313" y2="43.4"/>
	<line class="st7" x1="277.5" y1="62.6" x2="291.2" y2="62.6"/>
	<g>
		<g>
			<g>
				<path class="st1" d="M271.1,76.5c-0.1,0-0.1,0-0.2-0.1l-2-2c-0.1-0.1-0.1-0.2,0-0.3c0.1-0.1,0.2-0.1,0.3,0l1.8,1.8l1.8-1.8
					c0.1-0.1,0.2-0.1,0.3,0c0.1,0.1,0.1,0.2,0,0.3l-2,2C271.2,76.4,271.2,76.5,271.1,76.5z"/>
			</g>
			<g id="surface1_3_">
				<path class="st5" d="M259.6,71.5c-0.4,0-0.8,0.3-0.8,0.8v4.8c0,0.4,0.3,0.8,0.8,0.8h4.8c0.4,0,0.8-0.3,0.8-0.8v-4.8
					c0-0.4-0.3-0.8-0.8-0.8H259.6z M259.6,71.8h4.8c0.3,0,0.5,0.2,0.5,0.5v4.8c0,0.3-0.2,0.5-0.5,0.5h-4.8c-0.3,0-0.5-0.2-0.5-0.5
					v-4.8C259.2,72,259.4,71.8,259.6,71.8z M260.1,72.2c-0.2,0-0.5,0.2-0.5,0.5v3.6c0,0.2,0.2,0.5,0.5,0.5h1.1
					c0.2,0,0.5-0.2,0.5-0.5v-3.6c0-0.2-0.2-0.5-0.5-0.5H260.1z M262.9,72.2c-0.2,0-0.5,0.2-0.5,0.5v1.8c0,0.2,0.2,0.5,0.5,0.5h1.1
					c0.2,0,0.5-0.2,0.5-0.5v-1.8c0-0.2-0.2-0.5-0.5-0.5H262.9z M260.1,72.5h1.1c0.1,0,0.2,0.1,0.2,0.2v3.6c0,0.1-0.1,0.2-0.2,0.2
					h-1.1c-0.1,0-0.2-0.1-0.2-0.2v-3.6C259.9,72.6,260,72.5,260.1,72.5z M262.9,72.5h1.1c0.1,0,0.2,0.1,0.2,0.2v1.8
					c0,0.1-0.1,0.2-0.2,0.2h-1.1c-0.1,0-0.2-0.1-0.2-0.2v-1.8C262.8,72.6,262.8,72.5,262.9,72.5z"/>
			</g>
			<path class="st4" d="M189.1,75.3h63c0.8,0,1.5-0.7,1.5-1.5v0c0-0.8-0.7-1.5-1.5-1.5h-63c-0.8,0-1.5,0.7-1.5,1.5v0
				C187.6,74.6,188.3,75.3,189.1,75.3z"/>
		</g>
		<line class="st7" x1="277.5" y1="75.6" x2="291.2" y2="75.6"/>
	</g>
</g>
</svg>
