<?xml version="1.0" encoding="utf-8"?>
<!-- Generator: Adobe Illustrator 22.0.1, SVG Export Plug-In . SVG Version: 6.00 Build 0)  -->
<svg version="1.1" id="Layer_1" xmlns="http://www.w3.org/2000/svg" xmlns:xlink="http://www.w3.org/1999/xlink" x="0px" y="0px"
	 viewBox="0 0 199.9 187.5" style="enable-background:new 0 0 199.9 187.5;" xml:space="preserve">
<style type="text/css">
	.st0{fill:#DADADA;}
	.st1{fill:#717171;}
	.st2{fill:#FEFEFE;}
	.st3{fill:#999999;}
	.st4{fill:none;stroke:#CCCCCC;stroke-miterlimit:10;}
	.st5{fill:#CCCCCC;}
</style>
<path class="st0" d="M142.2,73.6c5.2,0,10.5,0,15.7,0c3.3,0,4.7,1.4,4.7,4.7c0,32.5,0,65,0,97.5c0,3.4-1.4,4.8-4.9,4.8
	c-21.6,0-43.2,0-64.7,0c-3.6,0-4.9-1.4-4.9-5c0-6,0-6-6-6c-9.2,0-18.3,0-27.5,0c-4.6,0-8-3.4-8-8c0-36.8,0-73.7,0-110.5
	c0-4.6,2.4-7.5,6.8-8c0,1.1,0.1,2.2,0.1,3.2c0,35.1,0,70.3,0,105.4c0,1.2,0,2.3,0,3.5c0.2,4.3,3.6,7.7,7.9,7.9c1.2,0.1,2.3,0,3.5,0
	c22.9,0,45.8,0,68.7,0.1c-1.7,4.9-3.7,6.4-8.8,6.4c-9.8,0-19.7,0-29.5,0c-5.9,0-5.9,0-5.8,5.9c0.1,2.7,0.9,3.5,3.6,3.5
	c21.4,0,42.8,0,64.2,0c2.7,0,3.6-0.9,3.6-3.6c0-32.3,0-64.6,0-97c0-2.6-0.8-3.4-3.4-3.4c-5.2,0-10.3,0-15.5,0
	C142.2,74.6,142.2,74.1,142.2,73.6z"/>
<path class="st1" d="M142.2,73.6c0,0.5,0,1,0,1.5c-0.1,6-0.4,12,0.2,17.9c-0.3,6.9-0.3,13.7,0,20.6c-0.6,2.6-0.1,5.3-0.3,7.9
	c-0.1,1.4,0.4,2.3,1.4,3.3c2.8,2.7,5.6,5.5,8.3,8.3c2.7,2.8,2.8,4.9,0.3,7.8c-4.6,2.6-6.8-1.6-9.8-4.1c0,1.8,0,3,0,4.3
	c0,4.2,0,8.4-0.1,12.6c0,5.5-3,8.7-8.4,9.4c-22.9,0-45.8,0-68.7-0.1c-1.2,0-2.3,0-3.5,0c-4.3-0.2-7.7-3.6-7.9-7.9
	c-0.1-1.2,0-2.3,0-3.5c0-35.1,0-70.3,0-105.4c0-1.1-0.1-2.2-0.1-3.2c1-5.5,4-8.1,9.6-8.1c23.1,0,46.3,0,69.4,0
	c6.2,0,9.5,3.5,9.5,9.6C142.1,54.3,142.2,63.9,142.2,73.6z M126,119.6c0.1-1-0.1-2,0.4-2.9c0.6-1.1-0.2-1.7-0.8-2.3
	c-1-0.9-1.5,0.1-2,0.5c-2,1.7-4.1,3.1-6.3,4.3c-4.1,2.2-8.6,3-13.1,3.9c-1.3,0-2.7,0-4,0c-2-0.6-4-0.8-6-0.9c-1.7-0.6-3.3-1.2-5-1.9
	c-0.6-0.2-1.3-0.5-1.9-0.7c-3.1-2-6.3-3.9-9-6.6c-1-1.1-2-2.3-2.9-3.4c-1.3-2.3-2.6-4.6-3.8-6.9c-3.3-8.5-3.4-17.1,0-25.6
	c1.1-2,2.1-3.9,3.2-5.9c1.2-1.5,2.4-3,3.6-4.5c2.3-1.8,4.6-3.7,6.9-5.5c2.2-1,4.4-2,6.5-3c5.9-1.5,11.9-2,17.9-0.6
	c0.2,1.6-0.7,1.3-1.7,1.1c-6.3-1.1-12.4-0.6-18.3,2.2c-2.2,0.7-4.1,1.8-5.9,3.2c-2.4,1.6-4.4,3.6-6.1,5.9
	C68,80.8,68.2,99.9,78,110.2c2,2.6,4.4,4.6,7.2,6.3c2.9,1.9,6,3.3,9.4,3.9c5.4,1.5,10.7,1.5,16-0.4c3.2-0.5,6.1-1.9,8.7-3.9
	c2.7-1.5,4.9-3.6,6.8-6c2.2-2.2,3.6-4.9,4.9-7.7c0.3-0.6,0.4-1.5,1.3-1.1c0.6,0.3,0.2,1,0,1.6c-1,2.6-2.6,4.8-4,7.1
	c-0.4,1.2-3.4,1.4-1.4,3.5c0.5,0.7,0.9,1.1,1.8,0.7c2.4-0.9,4.3,0,6,1.9c1.7,1.9,3.5,3.7,5.2,5.5c0.2-0.1,0.4-0.2,0.6-0.4
	c0-0.8,0-1.6,0-2.4c0-24.7,0-49.3,0-74c0-5.9-2.6-8.6-8.5-8.6c-22.9,0-45.8,0-68.7,0c-5.9,0-8.5,2.6-8.5,8.5c0,36.1,0,72.1,0,108.2
	c0,6.1,2.6,8.6,8.7,8.6c13.4,0,26.8,0,40.2,0c9.7,0,19.3,0,29,0c4.9,0,7.7-2.9,7.8-7.8c0-5.7,0-11.3,0-17c0-0.9,0.1-1.8-0.7-2.5
	c-3.9-3.8-7.8-7.7-11.8-11.5C127.5,121.8,126.4,120.9,126,119.6z M130.6,115.4c-1.3,0-2.3,0.5-2.8,1.7c-0.7,1.6-0.2,3,1.1,4.3
	c5.8,5.8,11.6,11.6,17.5,17.4c1.8,1.8,3.6,2,5,0.7c1.5-1.4,1.4-3.3-0.5-5.2c-5.8-5.8-11.6-11.6-17.4-17.5
	C132.6,116,131.8,115.4,130.6,115.4z"/>
<path class="st2" d="M142.3,93.1c-0.5-6-0.3-11.9-0.2-17.9c5.2,0,10.3,0,15.5,0c2.6,0,3.4,0.8,3.4,3.4c0,32.3,0,64.6,0,97
	c0,2.7-0.9,3.6-3.6,3.6c-21.4,0-42.8,0-64.2,0c-2.7,0-3.6-0.9-3.6-3.5c-0.1-5.9-0.1-5.9,5.8-5.9c9.8,0,19.7,0,29.5,0
	c5,0,7.1-1.5,8.8-6.4c5.5-0.7,8.4-3.9,8.4-9.4c0-4.2,0-8.4,0.1-12.6c0.8,0.7,1.6,1.4,2.4,2.2c1.2,1.2,2.5,2.2,4.4,1.6
	c1.9-0.6,3-1.9,3.1-4c2.5-2.9,2.4-5-0.3-7.8c-2.7-2.8-5.5-5.6-8.3-8.3c-1-0.9-1.5-1.9-1.4-3.3c0.2-2.6-0.3-5.3,0.3-7.9
	c3.6-4.1,3.7-9,3-14C145,97.3,144.4,94.8,142.3,93.1z"/>
<path class="st2" d="M85.1,61.2c-2.3,1.8-4.6,3.7-6.9,5.5c-1.8,0-3.7-0.2-5.5-0.1c-3.3,0.2-5.1,1.8-5.2,4.6c0,12.5,0,24.9,0,37.4
	c0,2.5,1.9,4.4,4.4,4.5c2.1,0.1,4.1,0,6.2-0.1c2.7,2.7,5.8,4.6,9,6.6c-5.5,0-10.9,0-16.4,0c-1.5,0-3.1,0-3.1,1.9
	c0,2.1,1.7,2.1,3.2,2.1c4.9,0,9.8-0.1,14.7,0c2.4,0,3.6-0.9,3.5-3.3c1.7,0.6,3.3,1.2,5,1.9c1,1.7,3.2,2,6,0.9c1.3,0,2.7,0,4,0
	c0.3,0.5,0.8,0.5,1.3,0.5c7,0,14,0,21,0c0.7,0,1.3,0,1.7-0.7c3.9,3.8,7.8,7.7,11.8,11.5c0.8,0.8,0.7,1.6,0.7,2.5c0,5.7,0,11.3,0,17
	c0,4.9-2.8,7.8-7.8,7.8c-9.7,0.1-19.3,0-29,0c-13.4,0-26.8,0-40.2,0c-6.1,0-8.7-2.5-8.7-8.6c0-36.1,0-72.1,0-108.2
	c0-5.9,2.6-8.5,8.5-8.5c22.9,0,45.8,0,68.7,0c5.9,0,8.5,2.6,8.5,8.6c0,24.7,0,49.3,0,74c0,0.8,0,1.6,0,2.4c-0.2,0.1-0.4,0.2-0.6,0.4
	c-1.7-1.8-3.5-3.6-5.2-5.5c-1.7-1.8-3.6-2.8-6-1.9c-1,0.4-1.4-0.1-1.8-0.7c1.4-0.2,2.3-1,2.6-2.4c0.1-0.8-0.4-1.1-1.2-1.1
	c1.3-2.4,3-4.6,4-7.1c0.2-0.6,0.6-1.3,0-1.6c-0.9-0.4-1,0.5-1.3,1.1c-1.3,2.8-2.7,5.5-4.9,7.7c-16.1,0-32.1,0-48.2,0.1
	C68.2,99.9,68,80.8,77.5,70c16.4,0,32.7,0,49.1,0.1c5.2,6.3,7.3,13.7,7,21.8c0,1.3-1.4,3.4,0.3,3.6c1.2,0.1,1-2.5,1.1-3.9
	c0.5-7.7-1.8-14.6-5.9-21c0.8-2.5,0.2-3.3-3-3.6c-1-0.9-1.9-1.8-2.9-2.6c-0.6-0.5-1.2-1-1.7,0.1c-12,0-24,0-36,0
	c-0.6,0-1.4,0.2-1.9-0.4c1.8-1.4,3.7-2.6,5.9-3.2c0.4,0.7,1.1,0.6,1.8,0.6c7.2,0,14.3,0,21.5,0c0.7,0,1.4,0.1,1.8-0.6
	c1.1,0.5,2.2,1,3.3,1.5c0.8,0.4,1.7,0.6,1.4-0.8c2.3,0,4.7,0,7-0.1c1.4,0,2.6-0.7,2.6-2.1c0-1.6-1.3-1.9-2.7-1.9
	c-5.6,0-11.2,0-16.7,0.1c-6-1.4-12-0.9-17.9,0.6c-0.5-1-1.4-0.6-2.2-0.6c-6.4,0-12.8,0-19.1,0c-1.3,0-2.6-0.1-2.7,1.7
	c0,1.9,1.3,1.8,2.6,1.8C75.2,61.2,80.2,61.2,85.1,61.2z M98.1,150.6c9,0,18,0,27,0c0.8,0,1.7,0,2.5-0.3c0.9-0.2,1.4-0.9,1.4-1.8
	c-0.1-0.8-0.6-1.4-1.4-1.6c-0.7-0.2-1.5-0.3-2.2-0.3c-18.2,0-36.3,0-54.5,0c-1.6,0-3.3,0-3.2,2.1c0.1,1.9,1.7,1.9,3.2,1.9
	C80,150.6,89,150.6,98.1,150.6z M98.1,52.1c9,0,18,0,27,0c1.6,0,3.8,0.4,3.8-2c-0.1-2.3-2.3-2-3.9-2c-17.7,0-35.5,0-53.2,0
	c-0.9,0-1.8-0.1-2.7,0.3c-0.8,0.4-1.5,0.8-1.4,1.8c0.1,1,0.7,1.7,1.7,1.8c0.7,0.1,1.3,0.1,2,0.1C80.3,52.1,89.2,52.1,98.1,52.1z
	 M98.1,132.6c9.4,0,18.8,0,28.2,0c1.3,0,2.6-0.3,2.6-1.7c0.1-1.6-1.3-1.9-2.6-1.9c-0.3,0-0.7,0-1,0c-18.2,0-36.3,0-54.5,0
	c-0.7,0-1.3,0-2,0.1c-0.9,0.1-1.2,0.7-1.3,1.6c0,0.9,0.2,1.7,1.3,1.8c0.7,0.1,1.3,0.1,2,0.1C80,132.6,89.1,132.6,98.1,132.6z
	 M85.4,137.6c-5.1,0-10.1,0-15.2,0c-1.2,0-2.4-0.1-2.5,1.6c-0.1,1.6,1,2,2.2,2c10.2,0.6,20.4,0.6,30.6,0c1.2-0.1,2.3-0.4,2.2-2
	c-0.1-1.7-1.3-1.6-2.5-1.6C95.2,137.6,90.3,137.6,85.4,137.6z M117.6,137.6c-2.5,0-5,0-7.5,0c-1.2,0-2.4,0-2.5,1.7
	c-0.1,1.7,1.1,2.2,2.4,2.3c2.8,0.1,5.7,0.1,8.5,0.1c2.5,0,5,0,7.5-0.2c1-0.1,2.3-0.4,2.1-1.9c-0.2-1.4-1.2-1.9-2.5-1.9
	C122.9,137.6,120.2,137.6,117.6,137.6z M94.1,92.5c-3.6,0-6.7,1-9.4,3.2c-0.4,0.3-0.9,0.7-0.5,1.2c0.4,0.5,0.9,0.2,1.3-0.1
	c1.1-0.6,2.1-1.4,3.2-1.9c4.6-1.9,8.9-1.3,13,1.6c0.5,0.4,1.2,1.1,1.7,0.4c0.5-0.7-0.4-1.1-0.9-1.5C100,93.5,97.1,92.4,94.1,92.5z
	 M100.6,85.5c1.5-0.1,2.7-0.8,3.6-1.9c0.3-0.4,0.6-0.8,0.1-1.3c-0.4-0.4-0.8,0-1.1,0.3c-1.8,1.9-3.7,2-5.5,0c-0.3-0.3-0.6-0.6-1-0.2
	c-0.4,0.3-0.2,0.8,0,1.1C97.8,84.7,99,85.3,100.6,85.5z M86,85.5c1.3-0.1,2.5-0.6,3.5-1.6c0.4-0.4,1-0.9,0.5-1.5
	c-0.6-0.6-1,0-1.4,0.4c-1.4,1.3-2.8,1.6-4.4,0.5c-0.6-0.4-1.1-1.8-1.9-0.9c-0.7,0.9,0.6,1.5,1.2,2.1C84.2,85.1,85.1,85.3,86,85.5z"
	/>
<path class="st0" d="M78,110.2c16.1,0,32.1,0,48.2-0.1c-1.9,2.4-4.1,4.5-6.8,6c-10.7,0-21.4,0-32.1,0c-0.7,0-1.5-0.2-2.1,0.4
	C82.4,114.8,80,112.8,78,110.2z"/>
<path class="st0" d="M83.7,64.2c0.5,0.6,1.2,0.4,1.9,0.4c12,0,24,0,36,0c1.5,2,3.8,3.4,5.1,5.5c-16.4,0-32.7,0-49.1-0.1
	C79.3,67.8,81.3,65.8,83.7,64.2z"/>
<path class="st2" d="M130.6,115.4c1.2,0,2,0.6,2.8,1.4c5.8,5.8,11.6,11.6,17.4,17.5c1.9,1.9,2,3.8,0.5,5.2c-1.4,1.3-3.2,1.2-5-0.7
	c-5.8-5.8-11.6-11.6-17.5-17.4c-1.2-1.2-1.8-2.6-1.1-4.3C128.3,116,129.3,115.4,130.6,115.4z"/>
<path class="st0" d="M78.3,113c-2.1,0-4.1,0.2-6.2,0.1c-2.5-0.1-4.4-2-4.4-4.5c0-12.5,0-24.9,0-37.4c0-2.8,1.9-4.4,5.2-4.6
	c1.8-0.1,3.6,0,5.5,0.1c-1.2,1.5-2.4,3-3.6,4.5c-1.4-0.7-3-1.3-3.4,0.8c-0.3,1.6-0.5,3.4,0.2,5.1c-3.3,8.6-3.3,17.1,0,25.6
	c-1.4,5.4-0.5,6.9,3.8,6.9C76.3,110.7,77.3,111.9,78.3,113z"/>
<path class="st0" d="M114.6,61c-0.4,0.7-1.1,0.6-1.8,0.6c-7.2,0-14.3,0-21.5,0c-0.7,0-1.4,0.1-1.8-0.6c5.8-2.8,12-3.3,18.3-2.2
	c1,0.2,1.9,0.5,1.7-1.1c5.6,0,11.2,0,16.7-0.1c1.4,0,2.7,0.2,2.7,1.9c0,1.5-1.2,2.1-2.6,2.1c-2.3,0.1-4.7,0.1-7,0.1
	c-1.6-0.8-3.2-1.7-4.9-2.4c-0.5-0.2-1.4-0.9-1.7-0.1c-0.5,1,0.7,1.1,1.2,1.4C114.2,60.7,114.4,60.9,114.6,61z"/>
<path class="st2" d="M85.2,116.5c0.6-0.7,1.4-0.4,2.1-0.4c10.7,0,21.4,0,32.1,0c-2.6,2-5.5,3.4-8.7,3.9c-0.3-0.1-0.6-0.4-0.9-0.4
	c-4.6,0-9.2,0-13.8,0c-0.6,0-1.1,0.1-1.3,0.8C91.2,119.9,88.1,118.4,85.2,116.5z"/>
<path class="st0" d="M89.1,120.3c0.1,2.5-1.2,3.4-3.5,3.3c-4.9-0.1-9.8,0-14.7,0c-1.6,0-3.3,0-3.2-2.1c0-1.9,1.7-1.9,3.1-1.9
	c5.5,0,10.9,0,16.4,0C87.9,119.8,88.5,120.1,89.1,120.3z"/>
<path class="st0" d="M85.1,61.2c-5,0-9.9-0.1-14.9-0.1c-1.3,0-2.6,0.1-2.6-1.8c0-1.9,1.4-1.7,2.7-1.7c6.4,0,12.8,0,19.1,0
	c0.8,0,1.7-0.3,2.2,0.6C89.5,59.2,87.3,60.2,85.1,61.2z"/>
<path class="st0" d="M128.2,122.9c-0.4,0.7-1,0.7-1.7,0.7c-7,0-14,0-21,0c-0.5,0-1,0-1.3-0.5c4.5-0.8,9-1.6,13.1-3.9
	c2.9,0.8,5.9,0.2,8.8,0.4C126.4,120.9,127.5,121.8,128.2,122.9z"/>
<path class="st0" d="M142.3,93.1c2.1,1.7,2.6,4.2,3,6.6c0.8,5,0.6,9.9-3,14C142,106.8,142.1,99.9,142.3,93.1z"/>
<path class="st0" d="M152,140.9c-0.1,2.1-1.2,3.4-3.1,4c-1.9,0.6-3.2-0.4-4.4-1.6c-0.8-0.8-1.6-1.4-2.4-2.2c0-1.2,0-2.5,0-4.3
	C145.2,139.4,147.4,143.5,152,140.9z"/>
<path class="st2" d="M126,119.6c-2.9-0.2-5.9,0.5-8.8-0.4c2.3-1.2,4.4-2.6,6.3-4.3c0.6-0.5,1.1-1.4,2-0.5c0.7,0.6,1.5,1.2,0.8,2.3
	C125.9,117.6,126.1,118.6,126,119.6z"/>
<path class="st0" d="M94.6,120.4c0.2-0.7,0.7-0.8,1.3-0.8c4.6,0,9.2,0,13.8,0c0.3,0,0.6,0.3,0.9,0.4C105.3,122,100,122,94.6,120.4z"
	/>
<path class="st2" d="M75.3,109.6c-4.4,0-5.2-1.5-3.8-6.9C72.8,105,74.1,107.3,75.3,109.6z"/>
<path class="st2" d="M71.5,77c-0.7-1.7-0.6-3.4-0.2-5.1c0.4-2.1,2-1.5,3.4-0.8C73.6,73.1,72.6,75.1,71.5,77z"/>
<path class="st0" d="M128.4,110.1c0.8,0,1.3,0.3,1.2,1.1c-0.2,1.4-1.2,2.2-2.6,2.4C125,111.5,128,111.3,128.4,110.1z"/>
<path class="st0" d="M100.1,123.1c-2.8,1.1-5,0.7-6-0.9C96.1,122.3,98.2,122.5,100.1,123.1z"/>
<path class="st0" d="M98.1,150.6c-9.1,0-18.2,0-27.2,0c-1.5,0-3.1,0-3.2-1.9c-0.1-2.1,1.6-2.1,3.2-2.1c18.2,0,36.3,0,54.5,0
	c0.7,0,1.5,0.1,2.2,0.3c0.8,0.2,1.3,0.8,1.4,1.6c0.1,0.9-0.5,1.6-1.4,1.8c-0.8,0.2-1.6,0.2-2.5,0.3
	C116.1,150.6,107.1,150.6,98.1,150.6z"/>
<path class="st0" d="M98.1,52.1c-8.9,0-17.8,0-26.7,0c-0.7,0-1.3,0-2-0.1c-1-0.2-1.6-0.8-1.7-1.8c-0.1-1,0.6-1.5,1.4-1.8
	c0.9-0.4,1.8-0.3,2.7-0.3c17.7,0,35.5,0,53.2,0c1.6,0,3.8-0.3,3.9,2c0.1,2.4-2.1,2-3.8,2C116.1,52.1,107.1,52.1,98.1,52.1z"/>
<path class="st0" d="M98.1,132.6c-9.1,0-18.2,0-27.2,0c-0.7,0-1.3,0-2-0.1c-1-0.1-1.3-0.9-1.3-1.8c0-0.9,0.4-1.5,1.3-1.6
	c0.7-0.1,1.3-0.1,2-0.1c18.2,0,36.3,0,54.5,0c0.3,0,0.7,0,1,0c1.4,0,2.7,0.3,2.6,1.9c-0.1,1.4-1.3,1.7-2.6,1.7
	C116.9,132.6,107.5,132.6,98.1,132.6z"/>
<path class="st0" d="M85.4,137.6c4.9,0,9.8,0,14.7,0c1.2,0,2.4-0.1,2.5,1.6c0.1,1.6-1,2-2.2,2c-10.2,0.6-20.4,0.6-30.6,0
	c-1.2-0.1-2.3-0.4-2.2-2c0.1-1.7,1.4-1.6,2.5-1.6C75.2,137.6,80.3,137.6,85.4,137.6z"/>
<path class="st0" d="M117.6,137.6c2.7,0,5.3,0,8,0c1.3,0,2.3,0.4,2.5,1.9c0.2,1.5-1.1,1.8-2.1,1.9c-2.5,0.2-5,0.2-7.5,0.2
	c-2.8,0-5.7,0.1-8.5-0.1c-1.3-0.1-2.5-0.6-2.4-2.3c0.1-1.7,1.3-1.7,2.5-1.7C112.6,137.6,115.1,137.6,117.6,137.6z"/>
<path class="st1" d="M126.6,70.1c-1.3-2.2-3.6-3.5-5.1-5.5c0.5-1.1,1.1-0.6,1.7-0.1c1,0.9,1.9,1.7,2.9,2.6c1,1.2,2,2.4,3,3.6
	c4.1,6.4,6.4,13.3,5.9,21c-0.1,1.4,0.2,4-1.1,3.9c-1.7-0.2-0.3-2.4-0.3-3.6C133.9,83.8,131.9,76.4,126.6,70.1z"/>
<path class="st1" d="M94.1,92.5c3.1,0,5.9,1,8.4,2.9c0.5,0.4,1.4,0.8,0.9,1.5c-0.5,0.7-1.2,0-1.7-0.4c-4-2.9-8.4-3.5-13-1.6
	c-1.1,0.5-2.1,1.2-3.2,1.9c-0.4,0.3-0.9,0.6-1.3,0.1c-0.4-0.5,0.1-0.9,0.5-1.2C87.4,93.5,90.5,92.4,94.1,92.5z"/>
<path class="st1" d="M100.6,85.5c-1.6-0.1-2.8-0.8-3.8-2c-0.3-0.3-0.4-0.8,0-1.1c0.4-0.4,0.8-0.1,1,0.2c1.8,2,3.7,2,5.5,0
	c0.3-0.3,0.7-0.6,1.1-0.3c0.5,0.4,0.2,0.9-0.1,1.3C103.3,84.7,102.1,85.3,100.6,85.5z"/>
<path class="st1" d="M86,85.5c-0.9-0.1-1.8-0.3-2.5-0.9c-0.6-0.6-1.9-1.2-1.2-2.1c0.8-1,1.3,0.5,1.9,0.9c1.7,1.1,3.1,0.8,4.4-0.5
	c0.4-0.4,0.8-1.1,1.4-0.4c0.5,0.6-0.1,1.1-0.5,1.5C88.5,84.9,87.3,85.4,86,85.5z"/>
<path class="st1" d="M114.6,61c-0.2-0.1-0.4-0.3-0.6-0.4c-0.6-0.3-1.7-0.4-1.2-1.4c0.4-0.8,1.2-0.2,1.7,0.1c1.7,0.7,3.2,1.6,4.9,2.4
	c0.2,1.5-0.6,1.2-1.4,0.8C116.9,62,115.7,61.5,114.6,61z"/>
<path class="st0" d="M129.1,70.7c-1-1.2-2-2.4-3-3.6C129.2,67.3,129.9,68.1,129.1,70.7z"/>
<path class="st3" d="M194.5,70.2l-0.7-0.7l-2.1,2.1l-2.1-2.1l-0.7,0.7l2.1,2.1l-2.1,2.1l0.7,0.7l2.1-2.1l2.1,2.1l0.7-0.7l-2.1-2.1
	L194.5,70.2z"/>
<path class="st3" d="M9,82.5H8.4v2.2H6.1v0.7h2.2v2.2H9v-2.2h2.2v-0.7H9V82.5z"/>
<path class="st4" d="M152.8,26.1l2.8,1.6c0.7,0.4,1.5-0.1,1.5-0.9v-3.2c0-0.8-0.8-1.3-1.5-0.9l-2.8,1.6
	C152.1,24.8,152.1,25.7,152.8,26.1z"/>
<path class="st4" d="M25.1,152l6.5,3.8c0.7,0.4,1.5-0.1,1.5-0.9v-7.5c0-0.8-0.8-1.3-1.5-0.9l-6.5,3.8
	C24.4,150.6,24.4,151.6,25.1,152z"/>
<path class="st5" d="M79.9,14.5c0.2,0.2,0.2,0.6,0,0.8c-0.2,0.2-0.6,0.2-0.8,0l-1.1-1.1c-0.2-0.2-0.2-0.6,0-0.8
	c0.2-0.2,0.6-0.2,0.8,0L79.9,14.5z M74.5,9.1c0.2,0.2,0.2,0.6,0,0.8c-0.2,0.2-0.6,0.2-0.8,0l-1.1-1.1c-0.2-0.2-0.2-0.6,0-0.8
	c0.2-0.2,0.6-0.2,0.8,0L74.5,9.1z M79.2,8.1c0.2-0.2,0.6-0.2,0.8,0s0.2,0.6,0,0.8l-1.1,1.1c-0.2,0.2-0.6,0.2-0.8,0
	c-0.2-0.2-0.2-0.6,0-0.8L79.2,8.1z M73.8,13.5c0.2-0.2,0.6-0.2,0.8,0c0.2,0.2,0.2,0.6,0,0.8l-1.1,1.1c-0.2,0.2-0.6,0.2-0.8,0
	s-0.2-0.6,0-0.8L73.8,13.5z M76.3,7.4c0.3,0,0.5,0.2,0.5,0.5V9c0,0.3-0.2,0.5-0.5,0.5c-0.3,0-0.5-0.2-0.5-0.5V7.9
	C75.8,7.6,76,7.4,76.3,7.4z M76.3,13.8c0.3,0,0.5,0.2,0.5,0.5v1.1c0,0.3-0.2,0.5-0.5,0.5c-0.3,0-0.5-0.2-0.5-0.5v-1.1
	C75.8,14.1,76,13.8,76.3,13.8z M72,11.7c0-0.3,0.2-0.5,0.5-0.5h1.1c0.3,0,0.5,0.2,0.5,0.5c0,0.3-0.2,0.5-0.5,0.5h-1.1
	C72.2,12.2,72,12,72,11.7z M78.5,11.7c0-0.3,0.2-0.5,0.5-0.5h1.1c0.3,0,0.5,0.2,0.5,0.5c0,0.3-0.2,0.5-0.5,0.5H79
	C78.7,12.2,78.5,12,78.5,11.7z"/>
<path class="st3" d="M173.4,157.3c0.1,0.1,0.1,0.3,0,0.4c-0.1,0.1-0.3,0.1-0.4,0l-0.6-0.6c-0.1-0.1-0.1-0.3,0-0.4s0.3-0.1,0.4,0
	L173.4,157.3z M170.4,154.3c0.1,0.1,0.1,0.3,0,0.4c-0.1,0.1-0.3,0.1-0.4,0l-0.6-0.6c-0.1-0.1-0.1-0.3,0-0.4c0.1-0.1,0.3-0.1,0.4,0
	L170.4,154.3z M172.9,153.8c0.1-0.1,0.3-0.1,0.4,0c0.1,0.1,0.1,0.3,0,0.4l-0.6,0.6c-0.1,0.1-0.3,0.1-0.4,0s-0.1-0.3,0-0.4
	L172.9,153.8z M170,156.7c0.1-0.1,0.3-0.1,0.4,0c0.1,0.1,0.1,0.3,0,0.4l-0.6,0.6c-0.1,0.1-0.3,0.1-0.4,0s-0.1-0.3,0-0.4L170,156.7z
	 M171.4,153.4c0.2,0,0.3,0.1,0.3,0.3v0.6c0,0.2-0.1,0.3-0.3,0.3s-0.3-0.1-0.3-0.3v-0.6C171.1,153.5,171.2,153.4,171.4,153.4z
	 M171.4,156.9c0.2,0,0.3,0.1,0.3,0.3v0.6c0,0.2-0.1,0.3-0.3,0.3s-0.3-0.1-0.3-0.3v-0.6C171.1,157.1,171.2,156.9,171.4,156.9z
	 M169,155.7c0-0.2,0.1-0.3,0.3-0.3h0.6c0.2,0,0.3,0.1,0.3,0.3c0,0.2-0.1,0.3-0.3,0.3h-0.6C169.1,156,169,155.9,169,155.7z
	 M172.6,155.7c0-0.2,0.1-0.3,0.3-0.3h0.6c0.2,0,0.3,0.1,0.3,0.3c0,0.2-0.1,0.3-0.3,0.3h-0.6C172.7,156,172.6,155.9,172.6,155.7z"/>
<path class="st3" d="M31.3,43.1c0.1,0.1,0.1,0.4,0,0.5s-0.4,0.1-0.5,0L30,42.9c-0.1-0.1-0.1-0.4,0-0.5s0.4-0.1,0.5,0L31.3,43.1z
	 M27.7,39.6c0.1,0.1,0.1,0.4,0,0.5s-0.4,0.1-0.5,0l-0.7-0.7c-0.1-0.1-0.1-0.4,0-0.5s0.4-0.1,0.5,0L27.7,39.6z M30.8,38.8
	c0.1-0.1,0.4-0.1,0.5,0s0.1,0.4,0,0.5l-0.7,0.7c-0.1,0.1-0.4,0.1-0.5,0s-0.1-0.4,0-0.5L30.8,38.8z M27.2,42.4c0.1-0.1,0.4-0.1,0.5,0
	s0.1,0.4,0,0.5L27,43.6c-0.1,0.1-0.4,0.1-0.5,0s-0.1-0.4,0-0.5L27.2,42.4z M28.9,38.4c0.2,0,0.4,0.2,0.4,0.4v0.7
	c0,0.2-0.2,0.4-0.4,0.4c-0.2,0-0.4-0.2-0.4-0.4v-0.7C28.5,38.5,28.7,38.4,28.9,38.4z M28.9,42.7c0.2,0,0.4,0.2,0.4,0.4v0.7
	c0,0.2-0.2,0.4-0.4,0.4c-0.2,0-0.4-0.2-0.4-0.4V43C28.5,42.8,28.7,42.7,28.9,42.7z M26,41.2c0-0.2,0.2-0.4,0.4-0.4h0.7
	c0.2,0,0.4,0.2,0.4,0.4s-0.2,0.4-0.4,0.4h-0.7C26.2,41.6,26,41.4,26,41.2z M30.3,41.2c0-0.2,0.2-0.4,0.4-0.4h0.7
	c0.2,0,0.4,0.2,0.4,0.4s-0.2,0.4-0.4,0.4h-0.7C30.5,41.6,30.3,41.4,30.3,41.2z"/>
</svg>
