<?xml version="1.0" standalone="no"?>
<!DOCTYPE svg PUBLIC "-//W3C//DTD SVG 1.1//EN" "http://www.w3.org/Graphics/SVG/1.1/DTD/svg11.dtd" >
<svg xmlns="http://www.w3.org/2000/svg">
<metadata>Generated by IcoMoon</metadata>
<defs>
<font id="ASOODE" horiz-adv-x="1024">
<font-face units-per-em="1024" ascent="960" descent="-64" />
<missing-glyph horiz-adv-x="1024" />
<glyph unicode="&#x20;" horiz-adv-x="512" d="" />
<glyph unicode="&#xe900;" glyph-name="home2" d="M1024 369.536l-512 397.44-512-397.44v162.048l512 397.44 512-397.44zM896 384v-384h-256v256h-256v-256h-256v384l384 288z" />
<glyph unicode="&#xe901;" glyph-name="office" d="M0-64h512v1024h-512v-1024zM320 832h128v-128h-128v128zM320 576h128v-128h-128v128zM320 320h128v-128h-128v128zM64 832h128v-128h-128v128zM64 576h128v-128h-128v128zM64 320h128v-128h-128v128zM576 640h448v-64h-448zM576-64h128v256h192v-256h128v576h-448z" />
<glyph unicode="&#xe902;" glyph-name="city" d="M992 704h-32v96c0 17.664-14.336 32-32 32h-96v96c0 17.664-14.336 32-32 32s-32-14.336-32-32v-96h-96c-17.664 0-32-14.336-32-32v-96h-32c-17.664 0-32-14.336-32-32v-160h192c35.328 0 64-28.672 64-64v-448h-64v416c0 17.664-14.336 32-32 32h-384c-17.664 0-32-14.336-32-32v-416h-64v448c0 35.328 28.672 64 64 64h128v288c0 17.664-14.336 32-32 32h-384c-17.664 0-32-14.336-32-32v-832c0-17.664 14.336-32 32-32h960c17.664 0 32 14.336 32 32v704c0 17.664-14.336 32-32 32zM704 576h-64v64h64v-64zM320 768h64v-64h-64v64zM320 640h64v-64h-64v64zM192 768h64v-64h-64v64zM128 192h-64v64h64v-64zM128 320h-64v64h64v-64zM128 448h-64v64h64v-64zM128 576h-64v64h64v-64zM128 704h-64v64h64v-64zM192 640h64v-64h-64v64zM704 0h-320v384h320v-384zM832 576h-64v64h64v-64zM960 192h-64v128h64v-128zM960 384h-64v128h64v-128zM960 576h-64v64h64v-64zM448 320h64v-64h-64v64zM576 320h64v-64h-64v64zM448 192h64v-64h-64v64zM576 192h64v-64h-64v64z" />
<glyph unicode="&#xe903;" glyph-name="pencil" d="M864 960c88.384 0 160-71.616 160-160 0-36.032-11.904-69.248-32-96l-64-64-224 224 64 64c26.752 20.096 59.968 32 96 32zM64 224l-64-288 288 64 592 592-224 224-592-592zM715.584 596.416l-448-448-55.168 55.168 448 448 55.168-55.168z" />
<glyph unicode="&#xe904;" glyph-name="image2" d="M959.872 832c0.064-0.064 0.064-0.064 0.128-0.128v-767.744c-0.064-0.064-0.064-0.064-0.128-0.128h-895.744c-0.064 0.064-0.064 0.064-0.128 0.128v767.744c0.064 0.064 0.064 0.064 0.128 0.128h895.744zM960 896h-896c-35.2 0-64-28.8-64-64v-768c0-35.2 28.8-64 64-64h896c35.2 0 64 28.8 64 64v768c0 35.2-28.8 64-64 64v0zM832 672c0-52.992-43.008-96-96-96s-96 43.008-96 96 43.008 96 96 96 96-43.008 96-96zM896 128h-768v128l224 384 256-320h64l224 192z" />
<glyph unicode="&#xe905;" glyph-name="images2" horiz-adv-x="1152" d="M1088 832h-64v64c0 35.2-28.8 64-64 64h-896c-35.2 0-64-28.8-64-64v-768c0-35.2 28.8-64 64-64h64v-64c0-35.2 28.8-64 64-64h896c35.2 0 64 28.8 64 64v768c0 35.2-28.8 64-64 64zM128 768v-640h-63.872c-0.064 0.064-0.064 0.064-0.128 0.128v767.744c0.064 0.064 0.064 0.064 0.128 0.128h895.744c0.064-0.064 0.064-0.064 0.128-0.128v-63.872h-768c-35.2 0-64-28.8-64-64v0zM1088 0.128c-0.064-0.064-0.064-0.064-0.128-0.128h-895.744c-0.064 0.064-0.064 0.064-0.128 0.128v767.744c0.064 0.064 0.064 0.064 0.128 0.128h895.744c0.064-0.064 0.064-0.064 0.128-0.128v-767.744zM960 608c0-52.992-43.008-96-96-96s-96 43.008-96 96 43.008 96 96 96 96-43.008 96-96zM1024 64h-768v128l224 384 256-320h64l224 192z" />
<glyph unicode="&#xe906;" glyph-name="play" d="M981.184 799.872c-143.616 20.672-302.336 32.128-469.184 32.128s-325.568-11.456-469.184-32.128c-27.52-107.712-42.816-226.752-42.816-351.872s15.296-244.16 42.816-351.872c143.616-20.672 302.336-32.128 469.184-32.128s325.568 11.456 469.184 32.128c27.52 107.712 42.816 226.752 42.816 351.872s-15.296 244.16-42.816 351.872zM384 256v384l320-192-320-192z" />
<glyph unicode="&#xe907;" glyph-name="files-empty" d="M917.824 602.944c-22.208 30.272-53.184 65.728-87.168 99.712s-69.44 64.96-99.712 87.168c-51.584 37.824-76.608 42.176-90.944 42.176h-368c-44.096 0-80-35.904-80-80v-736c0-44.096 35.904-80 80-80h608c44.096 0 80 35.904 80 80v496c0 14.336-4.352 39.36-42.176 90.944zM785.344 657.344c30.72-30.72 54.784-58.368 72.576-81.344h-153.984v153.92c22.976-17.792 50.688-41.856 81.344-72.576v0zM896 16c0-8.704-7.296-16-16-16h-608c-8.704 0-16 7.296-16 16v736c0 8.64 7.296 16 16 16 0 0 367.936 0 368 0v-224c0-17.664 14.336-32 32-32h224v-496zM602.944 917.824c-51.584 37.824-76.608 42.176-90.944 42.176h-368c-44.096 0-80-35.904-80-80v-736c0-38.656 27.52-70.976 64-78.4v814.4c0 8.64 7.36 16 16 16h486.848c-9.664 7.936-19.008 15.232-27.968 21.824z" />
<glyph unicode="&#xe908;" glyph-name="file-zip" d="M917.824 730.944c-22.208 30.272-53.184 65.728-87.168 99.712s-69.44 64.96-99.712 87.168c-51.584 37.824-76.608 42.176-90.944 42.176h-496c-44.096 0-80-35.904-80-80v-864c0-44.096 35.904-80 80-80h736c44.096 0 80 35.904 80 80v624c0 14.336-4.352 39.36-42.176 90.944v0 0zM785.344 785.344c30.72-30.72 54.784-58.368 72.576-81.344h-153.984v153.92c22.976-17.792 50.688-41.856 81.344-72.576v0 0zM896 16c0-8.704-7.296-16-16-16h-736c-8.64 0-16 7.296-16 16v864c0 8.64 7.36 16 16 16 0 0 495.936 0 496 0v-224c0-17.664 14.336-32 32-32h224v-624zM256 896h128v-64h-128v64zM384 832h128v-64h-128v64zM256 768h128v-64h-128v64zM384 704h128v-64h-128v64zM256 640h128v-64h-128v64zM384 576h128v-64h-128v64zM256 512h128v-64h-128v64zM384 448h128v-64h-128v64zM256 112c0-26.368 21.632-48 48-48h160c26.368 0 48 21.632 48 48v160c0 26.368-21.632 48-48 48h-80v64h-128v-272zM448 192v-64h-128v64h128z" />
<glyph unicode="&#xe909;" glyph-name="stack3" d="M512 384l-512 256 512 256 512-256zM921.472 499.264l102.528-51.264-512-256-512 256 102.528 51.264 409.472-204.736zM921.472 307.264l102.528-51.264-512-256-512 256 102.528 51.264 409.472-204.736z" />
<glyph unicode="&#xe90a;" glyph-name="folder-upload3" d="M576 704l-128 128h-448v-832h1024v704h-448zM960 64h-384v192h192l-256 256-256-256h192v-192h-384v704h357.504l128-128h410.496v-576z" />
<glyph unicode="&#xe90b;" glyph-name="cc" d="M511.296 960c-140.288 0-263.744-51.904-359.104-148.672-98.176-99.584-151.488-228.672-151.488-363.328 0-136.064 51.904-262.272 150.080-360.512s225.856-151.488 360.512-151.488 265.152 53.312 366.144 152.896c95.424 94.016 145.856 218.816 145.856 359.104 0 138.88-50.496 265.152-147.264 361.92-98.176 98.176-224.448 150.080-364.736 150.080zM512.704 867.392c115.008 0 217.408-43.456 297.408-123.456 78.528-78.592 120.64-182.336 120.64-296 0-115.008-40.704-216-119.232-293.184-82.752-81.344-189.376-124.864-298.816-124.864-110.784 0-214.656 43.456-294.592 123.456s-124.864 185.152-124.864 294.592c0 110.848 44.928 216 124.864 297.408 78.528 79.936 179.584 122.048 294.592 122.048zM506.112 533.056c-28.928 52.736-78.272 73.728-135.552 73.728-83.392 0-149.76-59.008-149.76-158.784 0-101.504 62.4-158.784 152.576-158.784 57.856 0 107.2 31.744 134.4 79.936l-63.552 32.32c-14.208-34.048-35.712-44.224-62.976-44.224-47.040 0-68.608 39.104-68.608 90.752s18.176 90.752 68.608 90.752c13.632 0 40.832-7.36 56.704-41.408l68.032 35.712zM801.472 533.056c-28.928 52.736-78.272 73.728-135.552 73.728-83.392 0-149.76-59.008-149.76-158.784 0-101.504 62.4-158.784 152.576-158.784 57.856 0 107.2 31.744 134.4 79.936l-63.552 32.32c-14.144-34.048-35.712-44.224-62.976-44.224-47.040 0-68.608 39.104-68.608 90.752s18.176 90.752 68.608 90.752c13.632 0 40.832-7.36 56.768-41.408l68.032 35.712z" />
<glyph unicode="&#xe90c;" glyph-name="price-tags4" horiz-adv-x="1152" d="M752 576c9.472 0 30.016-8.512 36.672-15.168l272.832-272.832-272.832-272.832c-6.656-6.656-27.264-15.168-36.672-15.168h-560v576h560zM752 640h-576c-26.432 0-48-21.632-48-48v-608c0-26.368 21.568-48 48-48h576c26.368 0 63.296 15.296 81.92 33.92l284.096 284.096c18.688 18.688 18.688 49.216 0 67.904l-284.096 284.096c-18.688 18.688-55.552 33.92-81.92 33.92v0zM896 288c0-52.992-43.008-96-96-96s-96 43.008-96 96c0 52.992 43.008 96 96 96s96-43.008 96-96zM64 128v576h672l-30.080 30.080c-18.688 18.688-55.552 33.92-81.92 33.92h-576c-26.368 0-48-21.568-48-48v-608c0-26.368 21.632-48 48-48h16v64z" />
<glyph unicode="&#xe90d;" glyph-name="location" d="M512 960c-176.704 0-320-143.296-320-320 0-320 320-704 320-704s320 384 320 704c0 176.704-143.296 320-320 320zM512 448c-106.048 0-192 85.952-192 192s85.952 192 192 192 192-85.952 192-192-85.952-192-192-192z" />
<glyph unicode="&#xe90e;" glyph-name="map5" d="M672 768l-320 128-352-128v-768l352 128 320-128 352 128v768l-352-128zM384 814.272l256-102.4v-630.144l-256 102.4v630.144zM64 723.2l256 93.12v-631.808l-256-93.056v631.808zM960 172.8l-256-93.12v631.808l256 93.12v-631.808z" />
<glyph unicode="&#xe90f;" glyph-name="reset" d="M264.064 384c-5.248-20.48-8.064-41.92-8.064-64 0-141.376 114.624-256 256-256s256 114.624 256 256-114.624 256-256 256v-192l-320 256 320 256v-192c212.096 0 384-171.904 384-384s-171.904-384-384-384-384 171.904-384 384c0 21.824 1.856 43.2 5.376 64h130.752z" />
<glyph unicode="&#xe910;" glyph-name="bubble-dots2" d="M836.032 896h-648c-103.424 0-188.032-84.608-188.032-188.032v-708.032l192 192h644.032c103.424 0 188.032 84.608 188.032 188.032v328c0 103.424-84.608 188.032-188.032 188.032zM896 379.968c0-32.512-27.456-60.032-60.032-60.032h-708.032v388.032c0 32.512 27.456 60.032 60.032 60.032h648c32.512 0 60.032-27.456 60.032-60.032v-328zM256 512c0 35.328 28.672 64 64 64s64-28.672 64-64c0-35.328-28.672-64-64-64s-64 28.672-64 64zM448 512c0 35.328 28.672 64 64 64s64-28.672 64-64c0-35.328-28.672-64-64-64s-64 28.672-64 64zM640 512c0 35.328 28.672 64 64 64s64-28.672 64-64c0-35.328-28.672-64-64-64s-64 28.672-64 64z" />
<glyph unicode="&#xe911;" glyph-name="users2" horiz-adv-x="1152" d="M768 189.376v52.8c70.464 39.744 128 138.752 128 237.824 0 159.040 0 288-192 288s-192-128.96-192-288c0-99.072 57.472-198.080 128-237.824v-52.8c-217.088-17.728-384-124.416-384-253.376h896c0 128.96-166.912 235.648-384 253.376zM207.488 344c-13.568-4.928-26.624-10.304-39.104-16h306.048c-2.432 5.312-4.8 10.624-6.976 16h-259.968zM27.2 216c-3.392-5.248-6.464-10.56-9.216-16h373.376c12.288 5.696 24.896 11.008 37.952 16h-402.176zM87.488 280c-6.72-5.184-13.056-10.496-19.136-16h443.712c-3.84 5.184-7.552 10.56-11.136 16h-413.504zM336.704 376c-27.136-3.968-53.312-9.344-78.208-16h202.88c-1.92 5.312-3.648 10.624-5.312 16h-119.296zM384 408v-16h67.456c-1.408 5.312-2.624 10.624-3.776 16h-63.68zM374.464 440c3.136-2.048 6.336-4.032 9.536-5.824v-10.176h60.608c-0.896 5.312-1.6 10.688-2.24 16h-67.968zM1.92 152c-0.832-5.312-1.408-10.624-1.728-16h288.064c6.528 5.44 13.376 10.816 20.544 16h-306.88zM110.016 296h381.12c-1.536 2.688-3.072 5.376-4.608 8.128-1.408 2.624-2.816 5.248-4.224 7.872h-345.728c-9.28-5.12-18.112-10.432-26.56-16zM256.32 728c-0.128-5.312-0.192-10.624-0.192-16h213.696c0.256 0.576 0.512 1.152 0.768 1.792 2.24 4.864 4.672 9.6 7.168 14.208h-221.44zM10.752 184c-2.048-5.248-3.84-10.624-5.312-16h326.976c8.704 5.568 17.728 10.88 27.072 16h-348.736zM297.152 904h301.632c-4.48 5.696-9.472 11.072-14.976 16h-271.68c-5.504-4.928-10.496-10.304-14.976-16zM38.528 232h438.080c16.384 4.864 33.216 9.28 50.368 13.056-0.832 0.96-1.6 1.92-2.432 2.944h-472.384c-4.864-5.248-9.408-10.56-13.632-16zM336.32 472c5.44-5.696 11.072-11.072 16.832-16h87.744c-0.384 5.312-0.64 10.688-0.768 16h-103.808zM310.272 504c3.84-5.504 7.872-10.88 12.032-16h117.76c0 5.376 0 10.688 0 16h-129.728zM272.32 856c-1.728-5.184-3.2-10.496-4.608-16h360.448c-1.344 5.504-2.88 10.816-4.608 16h-351.296zM264.32 824c-0.96-5.248-1.856-10.56-2.624-16h296c11.456 6.272 23.808 11.584 36.992 16h-330.368zM257.408 760c-0.256-5.248-0.512-10.624-0.64-16h230.72c3.712 5.568 7.68 10.88 11.84 16h-241.92zM259.776 792c-0.512-5.248-1.024-10.56-1.408-16h255.68c5.888 5.696 12.096 11.072 18.688 16h-272.96zM375.424 952c-15.552-3.968-29.12-9.344-40.832-16h226.816c-11.776 6.656-25.344 12.032-40.896 16h-145.024zM290.816 536c2.88-5.44 5.888-10.816 9.024-16h140.288c0.064 5.376 0.128 10.688 0.192 16h-149.504zM286.4 888c-2.944-5.12-5.632-10.432-8-16h339.2c-2.368 5.568-5.056 10.88-8 16h-323.2zM265.728 600c1.408-5.376 3.072-10.688 4.736-16h171.712c0.32 5.376 0.768 10.688 1.216 16h-177.728zM276.224 568c2.112-5.44 4.352-10.752 6.72-16h157.696c0.192 5.376 0.384 10.688 0.576 16h-165.056zM256 696c0-5.312 0-10.624 0-16h201.92c1.6 5.44 3.392 10.752 5.376 16h-207.232zM256.128 664c0.192-5.312 0.512-10.688 1.024-16h192.896c1.024 5.376 2.24 10.752 3.52 16h-197.44zM259.072 632c0.832-5.376 1.728-10.688 2.88-16h183.168c0.64 5.376 1.344 10.688 2.176 16h-188.224z" />
<glyph unicode="&#xe912;" glyph-name="cut" horiz-adv-x="819" d="M368.64 657.92l-225.28 225.28c-10.24 10.24-25.6 10.24-35.84 0-5.12-5.12-5.12-10.24-5.12-20.48v-81.92l194.56-199.68 71.68 76.8zM655.36 494.080c-35.84 10.24-76.8 5.12-112.64-10.24l-61.44 61.44 235.52 240.64v81.92c0 15.36-10.24 25.6-25.6 25.6-5.12 0-15.36-5.12-20.48-5.12l-266.24-271.36-133.12-133.12c-35.84 15.36-71.68 20.48-107.52 10.24-56.32-15.36-102.4-66.56-112.64-122.88-15.36-81.92 40.96-163.84 128-174.080 15.36-5.12 30.72-5.12 51.2 0 56.32 10.24 107.52 51.2 122.88 112.64 10.24 35.84 5.12 71.68-10.24 107.52l61.44 61.44 66.56-66.56c-10.24-35.84-15.36-66.56-5.12-102.4 20.48-81.92 102.4-133.12 184.32-117.76 81.92 20.48 133.12 102.4 117.76 184.32-15.36 56.32-56.32 102.4-112.64 117.76zM204.8 294.4c-30.72 0-51.2 20.48-51.2 51.2s20.48 51.2 51.2 51.2 51.2-20.48 51.2-51.2c0-30.72-20.48-51.2-51.2-51.2zM614.4 294.4c-30.72 0-51.2 20.48-51.2 51.2s20.48 51.2 51.2 51.2 51.2-20.48 51.2-51.2c0-30.72-20.48-51.2-51.2-51.2z" />
<glyph unicode="&#xe913;" glyph-name="copy3" d="M640 704v256h-448l-192-192v-576h384v-256h640v768h-384zM192 869.504v-101.504h-101.504l101.504 101.504zM64 256v448h192v192h320v-192l-192-192v-256h-320zM576 613.504v-101.504h-101.504l101.504 101.504zM960 0h-512v448h192v192h320v-640z" />
<glyph unicode="&#xe914;" glyph-name="workpackage" d="M480 896l-480-192v-448l480-256 480 256v448l-480 192zM448 89.6l-384 204.8v311.488l384-204.8v-311.488zM83.008 668.288l396.992 158.784 396.992-158.784-396.992-211.712-396.992 211.712zM896 294.4l-384-204.8v311.488l384 204.8v-311.488z" />
<glyph unicode="&#xe915;" glyph-name="sub-season" d="M0 960h448v-448h-448zM576 960h448v-448h-448zM0 384h448v-448h-448zM576 384h448v-448h-448z" />
<glyph unicode="&#xe916;" glyph-name="arrow-up8" d="M877.248 557.248l-320 320c-24.96 25.024-65.536 25.024-90.496 0l-320-320c-25.024-25.024-25.024-65.536 0-90.496s65.536-25.024 90.496 0l210.752 210.752v-613.504c0-35.328 28.672-64 64-64s64 28.672 64 64v613.504l210.752-210.752c12.48-12.48 28.864-18.752 45.248-18.752s32.768 6.272 45.248 18.752c25.024 25.024 25.024 65.536 0 90.496z" />
<glyph unicode="&#xe917;" glyph-name="arrow-right81" d="M621.248 82.752l320 320c25.024 24.96 25.024 65.536 0 90.496l-320 320c-25.024 25.024-65.536 25.024-90.496 0s-25.024-65.536 0-90.496l210.752-210.752h-613.504c-35.328 0-64-28.672-64-64s28.672-64 64-64h613.504l-210.752-210.752c-12.48-12.48-18.752-28.864-18.752-45.248s6.272-32.768 18.752-45.248c25.024-25.024 65.536-25.024 90.496 0z" />
<glyph unicode="&#xe918;" glyph-name="arrow-down8" d="M877.248 338.752l-320-320c-24.96-25.024-65.536-25.024-90.496 0l-320 320c-25.024 25.024-25.024 65.536 0 90.496s65.536 25.024 90.496 0l210.752-210.752v613.504c0 35.328 28.672 64 64 64s64-28.672 64-64v-613.504l210.752 210.752c12.48 12.48 28.864 18.752 45.248 18.752s32.768-6.272 45.248-18.752c25.024-25.024 25.024-65.536 0-90.496z" />
<glyph unicode="&#xe919;" glyph-name="arrow-left8" d="M402.752 82.752l-320 320c-25.024 24.96-25.024 65.536 0 90.496l320 320c25.024 25.024 65.536 25.024 90.496 0s25.024-65.536 0-90.496l-210.752-210.752h613.504c35.328 0 64-28.672 64-64s-28.672-64-64-64h-613.504l210.752-210.752c12.48-12.48 18.752-28.864 18.752-45.248s-6.272-32.768-18.752-45.248c-25.024-25.024-65.536-25.024-90.496 0z" />
<glyph unicode="&#xe91a;" glyph-name="trophy4" d="M832 832h-640l-192-256 512-576-142.208 512h284.416l-142.208-512 512 576-192 256zM80 576l146.048 194.752 108.16-194.752h-254.208zM369.792 576l106.688 192h71.104l106.688-192h-284.416zM797.952 770.752l146.048-194.752h-254.208l108.16 194.752z" />
<glyph unicode="&#xe91b;" glyph-name="bin" d="M128 640v-640c0-35.2 28.8-64 64-64h576c35.2 0 64 28.8 64 64v640h-704zM320 64h-64v448h64v-448zM448 64h-64v448h64v-448zM576 64h-64v448h64v-448zM704 64h-64v448h64v-448zM848 832h-208v80c0 26.368-21.632 48-48 48h-224c-26.368 0-48-21.632-48-48v-80h-208c-26.432 0-48-21.568-48-48v-80h832v80c0 26.432-21.632 48-48 48zM576 832h-192v63.168h192v-63.168z" />
<glyph unicode="&#xe91c;" glyph-name="paperplane" d="M448 256l393.664-140.48 182.336 797.376zM320 300.096l704 612.8-1024-506.432zM448 188.032v-252.032l185.728 185.728z" />
<glyph unicode="&#xe91d;" glyph-name="list2" d="M384 896h640v-128h-640v128zM384 512h640v-128h-640v128zM384 128h640v-128h-640v128zM0 832c0 70.72 57.28 128 128 128s128-57.28 128-128c0-70.72-57.28-128-128-128s-128 57.28-128 128zM0 448c0 70.72 57.28 128 128 128s128-57.28 128-128c0-70.72-57.28-128-128-128s-128 57.28-128 128zM0 64c0 70.72 57.28 128 128 128s128-57.28 128-128c0-70.72-57.28-128-128-128s-128 57.28-128 128z" />
<glyph unicode="&#xe91e;" glyph-name="more2" d="M384 768c0 70.72 57.28 128 128 128s128-57.28 128-128c0-70.72-57.28-128-128-128s-128 57.28-128 128zM384 448c0 70.72 57.28 128 128 128s128-57.28 128-128c0-70.72-57.28-128-128-128s-128 57.28-128 128zM384 128c0 70.72 57.28 128 128 128s128-57.28 128-128c0-70.72-57.28-128-128-128s-128 57.28-128 128z" />
<glyph unicode="&#xe91f;" glyph-name="grid6" d="M0 960h448v-448h-448zM576 960h448v-448h-448zM0 384h448v-448h-448zM576 384h448v-448h-448z" />
<glyph unicode="&#xe920;" glyph-name="tree7" d="M976 192h-16v208c0 61.76-50.24 112-112 112h-272v128h16c26.368 0 48 21.632 48 48v160c0 26.432-21.632 48-48 48h-160c-26.368 0-48-21.568-48-48v-160c0-26.368 21.632-48 48-48h16v-128h-272c-61.76 0-112-50.24-112-112v-208h-16c-26.368 0-48-21.632-48-48v-160c0-26.368 21.632-48 48-48h160c26.432 0 48 21.632 48 48v160c0 26.368-21.568 48-48 48h-16v192h256v-192h-16c-26.368 0-48-21.632-48-48v-160c0-26.368 21.632-48 48-48h160c26.368 0 48 21.632 48 48v160c0 26.368-21.632 48-48 48h-16v192h256v-192h-16c-26.368 0-48-21.632-48-48v-160c0-26.368 21.632-48 48-48h160c26.368 0 48 21.632 48 48v160c0 26.368-21.632 48-48 48zM192 0h-128v128h128v-128zM576 0h-128v128h128v-128zM448 704v128h128v-128h-128zM960 0h-128v128h128v-128z" />
<glyph unicode="&#xe921;" glyph-name="menu" d="M832 512c70.72 0 128-57.28 128-128s-57.28-128-128-128c-70.72 0-128 57.28-128 128s57.28 128 128 128zM512 512c70.72 0 128-57.28 128-128s-57.28-128-128-128c-70.72 0-128 57.28-128 128s57.28 128 128 128zM192 512c70.72 0 128-57.28 128-128s-57.28-128-128-128c-70.72 0-128 57.28-128 128s57.28 128 128 128z" />
<glyph unicode="&#xe922;" glyph-name="circle-small" d="M320 448c0 106.048 85.952 192 192 192s192-85.952 192-192c0-106.048-85.952-192-192-192s-192 85.952-192 192z" />
<glyph unicode="&#xe923;" glyph-name="menu3" d="M64 768h896v-192h-896zM64 512h896v-192h-896zM64 256h896v-192h-896z" />
<glyph unicode="&#xe924;" glyph-name="download4" d="M896 256v-128h-768v128h-128v-256h1024v256zM768 576h-192v320h-128v-320h-192l256-384z" />
<glyph unicode="&#xe925;" glyph-name="upload4" d="M896 256v-128h-768v128h-128v-256h1024v256zM256 512h192v-320h128v320h192l-256 384z" />
<glyph unicode="&#xe926;" glyph-name="sphere" d="M480 896c-265.088 0-480-214.912-480-480s214.912-480 480-480c265.088 0 480 214.912 480 480s-214.912 480-480 480zM751.616 256c8.576 40.448 14.016 83.392 15.744 128h127.424c-3.328-44.224-13.632-87.104-30.656-128h-112.512zM208.384 576c-8.576-40.448-14.016-83.392-15.744-128h-127.424c3.328 44.224 13.632 87.104 30.656 128h112.512zM686.016 576c9.6-40.96 15.424-83.84 17.28-128h-191.296v128h174.016zM512 640v187.328c14.592-4.224 29.056-11.392 43.2-21.376 26.56-18.752 52.032-47.616 73.536-83.456 14.912-24.832 27.776-52.416 38.464-82.496h-155.264zM331.264 722.496c21.504 35.904 46.976 64.768 73.536 83.456 14.208 9.984 28.608 17.152 43.2 21.376v-187.328h-155.264c10.752 30.080 23.616 57.664 38.464 82.496zM448 576v-128h-191.296c1.856 44.16 7.68 87.040 17.28 128h174.016zM95.872 256c-17.024 40.896-27.328 83.776-30.656 128h127.424c1.792-44.608 7.168-87.552 15.744-128h-112.512zM256.704 384h191.296v-128h-174.016c-9.6 40.96-15.424 83.84-17.28 128zM448 192v-187.328c-14.592 4.224-29.056 11.392-43.2 21.376-26.56 18.752-52.032 47.616-73.536 83.456-14.912 24.832-27.776 52.416-38.528 82.496h155.264zM628.8 109.504c-21.504-35.904-46.976-64.768-73.536-83.456-14.208-9.984-28.608-17.152-43.2-21.376v187.328h155.264c-10.752-30.080-23.616-57.664-38.528-82.496zM512 256v128h191.296c-1.856-44.16-7.68-87.040-17.28-128h-174.016zM767.36 448c-1.792 44.608-7.168 87.552-15.744 128h112.512c17.088-40.896 27.328-83.776 30.656-128h-127.424zM830.656 640h-95.872c-18.624 58.752-44.352 110.272-75.328 151.424 42.56-20.352 81.088-47.616 114.688-81.28 21.504-21.504 40.384-44.928 56.512-70.144zM185.856 710.144c33.664 33.664 72.192 60.928 114.688 81.28-30.912-41.152-56.704-92.672-75.328-151.424h-95.872c16.128 25.216 35.008 48.704 56.512 70.144zM129.344 192h95.872c18.624-58.752 44.352-110.272 75.328-151.424-42.56 20.352-81.088 47.616-114.688 81.28-21.504 21.504-40.384 44.928-56.512 70.144zM774.144 121.856c-33.664-33.664-72.192-60.928-114.688-81.28 30.912 41.152 56.704 92.672 75.328 151.424h95.872c-16.128-25.216-35.008-48.704-56.512-70.144z" />
<glyph unicode="&#xe927;" glyph-name="link2" d="M320 256c17.6-17.6 47.296-16.704 65.92 1.92l316.096 316.096c18.688 18.688 19.52 48.32 1.92 65.92s-47.296 16.704-65.92-1.92l-316.096-316.096c-18.688-18.688-19.52-48.32-1.92-65.92zM476.864 284.864c4.544-9.024 6.976-19.136 6.976-29.696 0-17.6-6.72-34.048-19.008-46.336l-163.392-163.392c-12.224-12.224-28.672-19.008-46.336-19.008s-34.048 6.72-46.336 19.008l-99.392 99.392c-12.224 12.224-19.008 28.672-19.008 46.336s6.72 34.048 19.008 46.336l163.392 163.392c12.224 12.224 28.672 19.008 46.336 19.008 10.56 0 20.672-2.432 29.696-6.976l65.344 65.344c-27.84 21.44-61.44 32.128-95.040 32.128-40 0-80-15.168-110.336-45.504l-163.392-163.392c-60.672-60.672-60.672-159.936 0-220.608l99.392-99.392c30.336-30.336 70.336-45.504 110.336-45.504s80 15.168 110.336 45.504l163.392 163.392c55.808 55.808 60.224 144.32 13.376 205.376l-65.344-65.344zM978.496 815.104l-99.392 99.392c-30.336 30.336-70.336 45.504-110.336 45.504s-80-15.168-110.336-45.504l-163.392-163.392c-55.808-55.808-60.224-144.32-13.312-205.312l65.344 65.344c-4.544 9.024-6.976 19.136-6.976 29.696 0 17.6 6.72 34.048 19.008 46.336l163.392 163.392c12.224 12.224 28.672 19.008 46.336 19.008s34.048-6.72 46.336-19.008l99.392-99.392c12.224-12.224 19.008-28.672 19.008-46.336s-6.72-34.048-19.008-46.336l-163.392-163.392c-12.224-12.224-28.672-19.008-46.336-19.008-10.56 0-20.672 2.432-29.696 6.976l-65.344-65.344c27.84-21.44 61.44-32.128 95.040-32.128 40 0 80 15.168 110.336 45.504l163.392 163.392c60.672 60.672 60.672 159.936 0 220.608z" />
<glyph unicode="&#xe928;" glyph-name="flag3" d="M0 960h128v-1024h-128v1024zM640 896c-32 0-48 16-64 32s-32 32-64 32h-320v-640h320c32 0 48-16 64-32s32-32 64-32h320v640h-320z" />
<glyph unicode="&#xe929;" glyph-name="attachment" d="M665.856 632.96l-64.96 64.896-324.8-324.736c-53.824-53.824-53.824-141.056 0-194.816s141.056-53.824 194.88 0l389.76 389.696c89.728 89.664 89.728 235.072 0 324.736s-235.136 89.728-324.8 0l-409.216-409.152c-0.32-0.32-0.64-0.576-0.896-0.832-125.12-125.12-125.12-327.872 0-452.928s327.872-125.056 452.992 0c0.256 0.256 0.512 0.576 0.832 0.896l0.064-0.064 279.36 279.296-64.96 64.896-279.36-279.232c-0.32-0.256-0.576-0.576-0.832-0.832-89.088-89.088-233.984-89.088-323.072 0s-89.088 233.92 0 323.008c0.32 0.32 0.576 0.576 0.896 0.832l-0.064 0.064 409.28 409.152c53.696 53.76 141.12 53.76 194.88 0s53.696-141.12 0-194.816l-389.76-389.696c-17.92-17.92-47.040-17.92-64.96 0s-17.92 47.040 0 64.896l324.8 324.8z" />
<glyph unicode="&#xe92a;" glyph-name="eye2" d="M512 736c-256 0-512-224-512-288v0c0-64 256-288 512-288s512 224 512 288v0c0 64-256 288-512 288zM512 256c-106.048 0-192 85.952-192 192s85.952 192 192 192c106.048 0 192-85.952 192-192s-85.952-192-192-192zM384 448c0 70.72 57.28 128 128 128s128-57.28 128-128c0-70.72-57.28-128-128-128s-128 57.28-128 128z" />
<glyph unicode="&#xe92b;" glyph-name="star-empty" d="M808.64-49.728c-6.592 0-13.184 2.048-18.752 6.080l-277.888 201.024-277.888-201.024c-11.2-8.128-26.432-8.064-37.632 0.064s-15.872 22.592-11.584 35.776l106.048 325.056-277.76 200.896c-11.264 8.128-15.936 22.592-11.712 35.776s16.576 22.144 30.464 22.144h343.488l106.112 325.12c4.288 13.184 16.576 22.080 30.4 22.080s26.112-8.896 30.4-22.080l106.112-325.12h343.488c13.888 0 26.176-8.96 30.464-22.144s-0.448-27.648-11.712-35.776l-277.76-200.896 106.048-325.056c4.288-13.184-0.384-27.648-11.584-35.776-5.632-4.096-12.224-6.144-18.88-6.144zM130.816 512.128l216.576-156.672c11.264-8.128 16-22.656 11.648-35.84l-82.816-253.696 216.96 156.928c11.2 8.128 26.304 8.128 37.504 0l216.96-156.928-82.816 253.696c-4.288 13.184 0.384 27.712 11.648 35.84l216.576 156.672h-267.84c-13.824 0-26.112 8.896-30.4 22.080l-82.88 254.016-82.88-254.016c-4.288-13.184-16.576-22.080-30.4-22.080h-267.84z" />
<glyph unicode="&#xe92c;" glyph-name="star-full" d="M1022.464 553.92c-4.288 13.184-16.576 22.144-30.464 22.144h-343.488l-106.112 325.12c-4.288 13.184-16.576 22.080-30.4 22.080s-26.112-8.896-30.4-22.080l-106.112-325.12h-343.488c-13.888 0-26.176-8.96-30.464-22.144s0.448-27.648 11.712-35.776l277.76-200.896-106.048-325.056c-4.288-13.184 0.384-27.648 11.584-35.776s26.368-8.192 37.632-0.064l277.888 201.024 277.888-201.024c5.568-4.032 12.16-6.080 18.752-6.080s13.248 2.048 18.88 6.144c11.2 8.192 15.872 22.592 11.584 35.776l-106.048 325.056 277.76 200.896c11.264 8.128 15.936 22.592 11.712 35.776z" />
<glyph unicode="&#xe92d;" glyph-name="thumbs-up2" d="M992 288c0 32.896-17.984 61.952-45.312 79.232 8.448 14.272 13.312 30.976 13.312 48.768 0 52.992-43.008 96-96 96h-187.776c22.464 80.896 33.792 164.608 33.792 249.984 0 73.92-60.096 134.016-134.016 134.016s-134.016-60.096-134.016-134.016c0-104-38.72-183.936-115.072-237.696-20.992-14.784-44.736-27.456-70.912-38.080v89.792h-256v-640h256v62.976c59.904-3.904 88.96-18.944 117.184-33.472 28.096-14.528 57.152-29.504 106.816-29.504h320c52.992 0 96 43.008 96 96 0 12.48-2.432 24.448-6.784 35.392 40.768 11.072 70.784 48.32 70.784 92.608 0 17.792-4.864 34.432-13.312 48.768 27.328 17.28 45.312 46.336 45.312 79.232zM96 0c-17.664 0-32 14.336-32 32s14.336 32 32 32 32-14.336 32-32-14.336-32-32-32zM888 256h-56v-64h32c17.664 0 32-14.336 32-32s-14.336-32-32-32h-64v-64c17.664 0 32-14.336 32-32s-14.336-32-32-32h-320c-34.112 0-52.288 9.408-77.44 22.4-31.744 16.384-70.4 36.352-146.56 40.704v342.208c42.944 14.4 81.408 33.408 114.688 56.832 96.384 67.84 147.328 171.52 147.328 299.84 0 32 26.048 57.984 57.984 57.984s57.984-26.048 57.984-57.984c0-85.632-12.416-169.408-36.992-249.984-6.208-23.040-12.096-45.824-16-64h283.008c17.664 0 32-14.336 32-32s-14.336-32-32-32h-32v-64h56c21.696 0 40-14.656 40-32s-18.304-32-40-32z" />
<glyph unicode="&#xe92e;" glyph-name="thumbs-down2" d="M32 544c0-32.896 17.984-61.952 45.312-79.232-8.448-14.272-13.312-30.976-13.312-48.768 0-52.992 43.008-96 96-96h187.776c-22.464-80.896-33.792-164.608-33.792-249.984 0-73.92 60.096-134.016 134.016-134.016s134.016 60.096 134.016 134.016c0 104 38.72 183.936 115.072 237.696 20.992 14.784 44.736 27.456 70.912 38.080v-89.792h256v640h-256v-62.976c-59.904 3.904-88.96 18.944-117.184 33.472-28.096 14.528-57.152 29.504-106.816 29.504h-320c-52.992 0-96-43.008-96-96 0-12.48 2.432-24.448 6.784-35.392-40.768-11.072-70.784-48.32-70.784-92.608 0-17.792 4.864-34.432 13.312-48.768-27.328-17.28-45.312-46.336-45.312-79.232zM928 832c17.664 0 32-14.336 32-32s-14.336-32-32-32-32 14.336-32 32 14.336 32 32 32zM136 576h56v64h-32c-17.664 0-32 14.336-32 32s14.336 32 32 32h64v64c-17.664 0-32 14.336-32 32s14.336 32 32 32h320c34.112 0 52.288-9.408 77.44-22.4 31.744-16.384 70.4-36.288 146.56-40.704v-342.208c-42.944-14.4-81.408-33.408-114.688-56.832-96.384-67.84-147.328-171.52-147.328-299.84 0-32-26.048-57.984-57.984-57.984s-57.984 26.048-57.984 57.984c0 85.632 12.416 169.408 36.928 249.984 6.208 23.040 12.096 45.824 16 64h-283.008c-17.664 0-32 14.336-32 32s14.336 32 32 32h32v64h-56c-21.696 0-40 14.656-40 32s18.304 32 40 32z" />
<glyph unicode="&#xe92f;" glyph-name="warning2" d="M1009.984 44.224v0l-437.056 871.104c-16.768 29.76-38.784 44.672-60.864 44.672s-44.16-14.912-60.864-44.672l-437.056-871.104c-33.472-59.52-4.992-108.224 63.296-108.224h869.312c68.288 0 96.768 48.704 63.296 108.224zM512 64c-35.328 0-64 28.672-64 64s28.672 64 64 64c35.328 0 64-28.672 64-64s-28.672-64-64-64zM576 320c0-35.328-28.672-64-64-64s-64 28.672-64 64v192c0 35.328 28.672 64 64 64s64-28.672 64-64v-192z" />
<glyph unicode="&#xe930;" glyph-name="notification2" d="M512 960c-282.752 0-512-229.248-512-512s229.248-512 512-512 512 229.248 512 512-229.248 512-512 512zM576 128h-128v128h128v-128zM576 384h-128v384h128v-384z" />
<glyph unicode="&#xe931;" glyph-name="cancel-circle" d="M512 960c-282.752 0-512-229.248-512-512s229.248-512 512-512 512 229.248 512 512-229.248 512-512 512zM512 32c-229.76 0-416 186.24-416 416s186.24 416 416 416 416-186.24 416-416-186.24-416-416-416zM672 704l-160-160-160 160-96-96 160-160-160-160 96-96 160 160 160-160 96 96-160 160 160 160z" />
<glyph unicode="&#xe932;" glyph-name="blocked" d="M874.048 810.048c-96.704 96.704-225.28 149.952-362.048 149.952s-265.344-53.248-362.048-149.952c-96.704-96.704-149.952-225.28-149.952-362.048s53.248-265.344 149.952-362.048c96.704-96.704 225.28-149.952 362.048-149.952s265.344 53.248 362.048 149.952c96.704 96.704 149.952 225.28 149.952 362.048s-53.248 265.344-149.952 362.048zM896 448c0-82.816-26.368-159.616-71.104-222.4l-535.296 535.296c62.784 44.736 139.584 71.104 222.4 71.104 211.712 0 384-172.288 384-384zM128 448c0 82.816 26.368 159.616 71.104 222.4l535.296-535.296c-62.784-44.736-139.584-71.104-222.4-71.104-211.712 0-384 172.288-384 384z" />
<glyph unicode="&#xe933;" glyph-name="cross" d="M1014.656 137.344c0 0 0 0 0 0l-310.656 310.656 310.656 310.656c0 0 0 0 0 0 3.328 3.328 5.76 7.232 7.296 11.392 4.224 11.392 1.792 24.704-7.296 33.856l-146.752 146.752c-9.152 9.152-22.464 11.584-33.856 7.296-4.16-1.536-8.064-3.968-11.392-7.296 0 0 0 0 0 0l-310.656-310.656-310.656 310.656c0 0 0 0 0 0-3.328 3.328-7.232 5.76-11.392 7.296-11.392 4.224-24.704 1.856-33.856-7.296l-146.752-146.752c-9.152-9.152-11.584-22.464-7.296-33.856 1.536-4.16 3.968-8.064 7.296-11.392 0 0 0 0 0 0l310.656-310.656-310.656-310.656c0 0 0 0 0 0-3.328-3.328-5.76-7.232-7.296-11.392-4.224-11.392-1.856-24.704 7.296-33.856l146.752-146.752c9.152-9.152 22.464-11.584 33.856-7.296 4.16 1.536 8.064 3.968 11.392 7.296 0 0 0 0 0 0l310.656 310.656 310.656-310.656c0 0 0 0 0 0 3.328-3.328 7.232-5.76 11.392-7.296 11.392-4.224 24.704-1.856 33.856 7.296l146.752 146.752c9.152 9.152 11.584 22.464 7.296 33.856-1.536 4.16-3.968 8.064-7.296 11.392z" />
<glyph unicode="&#xe934;" glyph-name="checkmark3" d="M896 800l-544-544-224 224-96-96 320-320 640 640z" />
<glyph unicode="&#xe935;" glyph-name="play4" d="M192 832l640-384-640-384z" />
<glyph unicode="&#xe936;" glyph-name="stop2" d="M128 832h768v-768h-768z" />
<glyph unicode="&#xe937;" glyph-name="arrow-up2" d="M0 288l128-128 384 384 384-384 128 128-512 512-512-512z" />
<glyph unicode="&#xe938;" glyph-name="arrow-right2" d="M352 960l-128-128 384-384-384-384 128-128 512 512-512 512z" />
<glyph unicode="&#xe939;" glyph-name="arrow-down2" d="M1024 608l-128 128-384-384-384 384-128-128 512-512 512 512z" />
<glyph unicode="&#xe93a;" glyph-name="arrow-left2" d="M672-64l128 128-384 384 384 384-128 128-512-512 512-512z" />
<glyph unicode="&#xe93b;" glyph-name="arrow-right8" d="M621.248 82.752l320 320c25.024 24.96 25.024 65.536 0 90.496l-320 320c-25.024 25.024-65.536 25.024-90.496 0s-25.024-65.536 0-90.496l210.752-210.752h-613.504c-35.328 0-64-28.672-64-64s28.672-64 64-64h613.504l-210.752-210.752c-12.48-12.48-18.752-28.864-18.752-45.248s6.272-32.768 18.752-45.248c25.024-25.024 65.536-25.024 90.496 0z" />
<glyph unicode="&#xe93c;" glyph-name="paragraph-right3" d="M0 896h1024v-128h-1024zM384 640h640v-128h-640zM384 128h640v-128h-640zM0 384h1024v-128h-1024z" />
<glyph unicode="&#xe93d;" glyph-name="google-drive" d="M438.016 320l-184.576-320h580.608l184.576 320zM992.384 384l-295.616 512h-369.6l295.616-512zM290.176 832l-290.176-502.784 184.832-320 290.176 502.784z" />
<glyph unicode="&#xe93e;" glyph-name="instagram" d="M928 960h-832c-52.8 0-96-43.2-96-96v-832c0-52.8 43.2-96 96-96h832c52.8 0 96 43.2 96 96v832c0 52.8-43.2 96-96 96zM704 800c0 17.6 14.4 32 32 32h128c17.6 0 32-14.4 32-32v-128c0-17.6-14.4-32-32-32h-128c-17.6 0-32 14.4-32 32v128zM512 640c105.984 0 192-86.016 192-192s-86.016-192-192-192c-105.984 0-192 86.016-192 192s86.016 192 192 192zM896 96v0c0-17.6-14.4-32-32-32h-704c-17.6 0-32 14.4-32 32v0 416h70.4c-4.224-20.608-6.4-41.984-6.4-64 0-176.768 143.168-320 320-320s320 143.232 320 320c0 22.016-2.176 43.392-6.4 64h70.4v-416z" />
<glyph unicode="&#xe93f;" glyph-name="telegram" d="M512 960c-282.816 0-512-229.184-512-512s229.184-512 512-512 512 229.184 512 512-229.184 512-512 512zM763.584 609.024l-84.032-395.776c-5.824-28.224-22.784-34.816-46.4-21.824l-128 94.592-61.376-59.776c-7.168-6.976-12.8-12.8-25.6-12.8-16.576 0-13.824 6.208-19.392 22.016l-43.584 143.168-126.592 39.424c-27.392 8.384-27.584 27.2 6.208 40.576l493.184 190.4c22.4 10.176 44.224-5.376 35.584-40z" />
<glyph unicode="&#xe940;" glyph-name="dropbox" d="M736 928l-224-192 288-192 224 192zM512 736l-224 192-288-192 224-192zM800 544l224-192-288-160-224 192zM512 384l-288 160-224-192 288-160zM728.128 114.432l-216.128 185.28-216.128-185.28-135.872 75.456v-93.888l352-160 352 160v93.888z" />
<glyph unicode="&#xe941;" glyph-name="appleinc" d="M791.488 415.936c-1.28 129.664 105.728 191.872 110.528 194.944-60.16 88-153.856 100.096-187.264 101.44-79.744 8.064-155.584-46.976-196.096-46.976-40.384 0-102.848 45.76-168.96 44.544-86.912-1.28-167.040-50.56-211.84-128.384-90.304-156.672-23.104-388.864 64.896-515.904 43.008-62.208 94.272-132.096 161.6-129.6 64.832 2.56 89.344 41.984 167.744 41.984s100.416-41.984 169.024-40.64c69.76 1.28 113.984 63.424 156.672 125.824 49.408 72.192 69.696 142.016 70.912 145.6-1.536 0.704-136.064 52.224-137.408 207.104zM662.592 796.48c35.712 43.328 59.84 103.488 53.248 163.52-51.456-2.112-113.856-34.304-150.784-77.568-33.152-38.4-62.144-99.648-54.4-158.464 57.472-4.48 116.16 29.184 151.872 72.448z" />
<glyph unicode="&#xe942;" glyph-name="android" d="M896 576c-35.2 0-64-28.8-64-64v-256c0-35.2 28.8-64 64-64s64 28.8 64 64v256c0 35.2-28.8 64-64 64zM128 576c-35.2 0-64-28.8-64-64v-256c0-35.2 28.8-64 64-64s64 28.8 64 64v256c0 35.2-28.8 64-64 64zM224 224c0-52.992 43.008-96 96-96v0-128c0-35.2 28.8-64 64-64s64 28.8 64 64v128h128v-128c0-35.2 28.8-64 64-64s64 28.8 64 64v128c52.992 0 96 43.008 96 96v352h-576v-352zM798.208 640c-9.728 87.872-59.008 163.776-129.6 209.664l32 64.064c7.872 15.808 1.472 35.008-14.336 42.944s-35.008 1.472-42.944-14.336l-32.128-64.256-8.32 3.328c-28.544 9.472-59.136 14.656-90.88 14.656s-62.336-5.184-90.88-14.656l-8.32-3.328-32.128 64.256c-7.872 15.808-27.136 22.208-42.944 14.336s-22.208-27.136-14.336-42.944l32-64.064c-70.592-45.824-119.872-121.792-129.6-209.664v-32h574.208v32h-1.792zM416 704c-17.664 0-32 14.336-32 32s14.272 31.936 31.936 32c0 0 0.064 0 0.064 0s0.064 0 0.064 0c17.664-0.064 31.936-14.336 31.936-32s-14.336-32-32-32zM608 704c-17.664 0-32 14.336-32 32s14.272 31.936 31.936 32c0 0 0.064 0 0.064 0s0.064 0 0.128 0c17.664-0.064 31.936-14.336 31.936-32s-14.336-32-32-32z" />
<glyph unicode="&#xe943;" glyph-name="windows8" d="M0.32 448l-0.32 312.064 384 52.16v-364.224zM448 821.504l511.872 74.496v-448h-511.872zM960 384l-0.128-448-511.872 72v376zM384 16.192l-383.68 52.608v315.264h383.68z" />
<glyph unicode="&#xe944;" glyph-name="linkedin2" d="M384 576h177.088v-90.752h2.56c24.64 44.224 84.928 90.752 174.848 90.752 186.944 0 221.504-116.352 221.504-267.712v-308.288h-184.64v273.28c0 65.152-1.344 149.056-96 149.056-96.128 0-110.848-70.976-110.848-144.32v-278.016h-184.512v576zM64 576h192v-576h-192v576zM256 736c0-52.992-43.008-96-96-96s-96 43.008-96 96c0 52.992 43.008 96 96 96s96-43.008 96-96z" />
<glyph unicode="&#xe945;" glyph-name="file-pdf" d="M841.984 370.496c-13.632 13.44-43.904 20.544-89.984 21.184-31.168 0.32-68.672-2.432-108.16-7.936-17.664 10.176-35.904 21.312-50.176 34.688-38.464 35.904-70.592 85.76-90.56 140.608 1.28 5.12 2.432 9.6 3.456 14.208 0 0 21.696 123.072 15.936 164.672-0.768 5.696-1.28 7.36-2.816 11.776l-1.856 4.864c-5.888 13.568-17.472 27.968-35.584 27.2l-10.944 0.32c-20.224 0-36.672-10.304-40.96-25.792-13.12-48.448 0.448-120.896 24.96-214.72l-6.272-15.296c-17.6-42.88-39.616-86.080-59.072-124.16l-2.56-4.928c-20.48-40.064-39.040-74.048-55.872-102.848l-17.344-9.216c-1.28-0.64-31.040-16.448-38.016-20.672-59.264-35.392-98.496-75.52-105.024-107.392-2.048-10.176-0.512-23.168 9.984-29.184l16.832-8.448c7.296-3.648 14.976-5.504 22.848-5.504 42.176 0 91.2 52.544 158.72 170.368 77.952 25.344 166.656 46.464 244.416 58.112 59.264-33.344 132.16-56.512 178.112-56.512 8.192 0 15.232 0.768 20.928 2.304 8.832 2.368 16.256 7.36 20.8 14.208 8.896 13.44 10.752 31.936 8.32 50.88-0.704 5.632-5.184 12.544-10.048 17.344zM211.648 145.92c7.68 21.056 38.144 62.656 83.2 99.584 2.816 2.304 9.792 8.832 16.192 14.912-47.104-75.136-78.656-105.088-99.392-114.432zM478.464 760.32c13.568 0 21.312-34.176 21.952-66.24s-6.848-54.592-16.128-71.232c-7.68 24.64-11.456 63.488-11.456 88.896 0 0-0.576 48.576 5.632 48.576v0zM398.848 322.496c9.472 16.896 19.264 34.752 29.312 53.696 24.512 46.336 39.936 82.56 51.456 112.32 22.912-41.664 51.456-77.12 84.992-105.536 4.16-3.52 8.64-7.104 13.248-10.624-68.224-13.504-127.168-29.888-179.072-49.856v0zM828.928 326.336c-4.16-2.624-16.064-4.096-23.68-4.096-24.704 0-55.296 11.264-98.112 29.696 16.448 1.216 31.552 1.856 45.12 1.856 24.768 0 32.128 0.128 56.32-6.080s24.512-18.752 20.352-21.312v0zM917.824 730.944c-22.208 30.272-53.184 65.728-87.168 99.712s-69.44 64.96-99.712 87.168c-51.584 37.824-76.608 42.176-90.944 42.176h-496c-44.096 0-80-35.904-80-80v-864c0-44.096 35.904-80 80-80h736c44.096 0 80 35.904 80 80v624c0 14.336-4.352 39.36-42.176 90.944v0zM785.344 785.344c30.72-30.72 54.784-58.368 72.576-81.344h-153.984v153.92c22.976-17.792 50.688-41.856 81.344-72.576v0zM896 16c0-8.704-7.296-16-16-16h-736c-8.64 0-16 7.296-16 16v864c0 8.64 7.36 16 16 16 0 0 495.936 0 496 0v-224c0-17.664 14.336-32 32-32h224v-624z" />
<glyph unicode="&#xe946;" glyph-name="file-word" d="M639.808 484.096h44.224l-51.008-226.176-66.304 318.016h-106.56l-77.12-318.016-57.792 318.016h-111.424l113.088-511.872h108.864l76.288 302.72 68.224-302.72h100.352l129.6 511.872h-170.432v-91.84zM917.824 730.944c-22.208 30.272-53.184 65.728-87.168 99.712s-69.44 64.96-99.712 87.168c-51.584 37.824-76.608 42.176-90.944 42.176h-496c-44.096 0-80-35.904-80-80v-864c0-44.096 35.904-80 80-80h736c44.096 0 80 35.904 80 80v624c0 14.336-4.352 39.36-42.176 90.944v0zM785.344 785.344c30.72-30.72 54.784-58.368 72.576-81.344h-153.984v153.92c22.976-17.792 50.688-41.856 81.344-72.576v0zM896 16c0-8.704-7.296-16-16-16h-736c-8.64 0-16 7.296-16 16v864c0 8.64 7.36 16 16 16 0 0 495.936 0 496 0v-224c0-17.664 14.336-32 32-32h224v-624z" />
<glyph unicode="&#xe947;" glyph-name="file-excel" d="M743.040 576h-135.296l-95.744-141.056-95.744 141.056h-135.296l162.176-242.432-182.976-269.568h251.84v91.584h-50.176l50.176 75.008 111.424-166.592h140.416l-182.976 269.568 162.176 242.432zM917.824 730.944c-22.208 30.272-53.184 65.728-87.168 99.712s-69.44 64.96-99.712 87.168c-51.584 37.824-76.608 42.176-90.944 42.176h-496c-44.096 0-80-35.904-80-80v-864c0-44.096 35.904-80 80-80h736c44.096 0 80 35.904 80 80v624c0 14.336-4.352 39.36-42.176 90.944v0zM785.344 785.344c30.72-30.72 54.784-58.368 72.576-81.344h-153.984v153.92c22.976-17.792 50.688-41.856 81.344-72.576v0zM896 16c0-8.704-7.296-16-16-16h-736c-8.64 0-16 7.296-16 16v864c0 8.64 7.36 16 16 16 0 0 495.936 0 496 0v-224c0-17.664 14.336-32 32-32h224v-624z" />
<glyph unicode="&#xe948;" glyph-name="archive" horiz-adv-x="819" d="M760.218 891.187h-701.235c-9.83 0-18.022-8.192-18.022-18.022v-165.478c0-9.83 8.192-18.022 18.022-18.022h18.022v-460.39c0-9.83 8.192-18.022 18.022-18.022h626.688c9.83 0 18.022 8.192 18.022 18.022v459.571h18.022c9.83 0 18.022 8.192 18.022 18.022v166.298c2.458 9.83-5.734 18.022-15.565 18.022zM704.512 246.477h-589.824v442.368h589.824v-442.368zM741.376 725.709h-663.552v128.614h663.552v-128.614zM511.181 578.253c15.565 0 31.949-12.288 31.949-27.853s-17.203-27.853-31.949-27.853h-203.162c-15.565 0-31.949 12.288-31.949 27.853s17.203 27.853 31.949 27.853h203.162zM511.181 615.117h-203.162c-35.226 0-64.717-28.672-64.717-64.717s28.672-64.717 64.717-64.717h203.162c35.226 0 64.717 28.672 64.717 64.717-0.819 35.226-29.491 64.717-64.717 64.717z" />
<glyph unicode="&#xe949;" glyph-name="calendar" horiz-adv-x="819" d="M702.874 866.611h-100.762v21.299c0 20.48-16.384 36.864-36.864 36.864s-36.864-16.384-36.864-36.864v-21.299h-238.387v21.299c0 20.48-16.384 36.864-36.864 36.864s-36.864-16.384-36.864-36.864v-21.299h-99.942c-52.429 0-95.846-42.598-95.846-95.846v-498.893c0-52.429 42.598-95.846 95.846-95.846h587.366c52.429 0 95.846 42.598 95.846 95.846v498.893c-0.819 53.248-43.418 95.846-96.666 95.846zM116.326 792.883h100.762v-21.299c0-20.48 16.384-36.864 36.864-36.864s36.864 16.384 36.864 36.864v21.299h238.387v-21.299c0-20.48 16.384-36.864 36.864-36.864s36.864 16.384 36.864 36.864v21.299h100.762c12.288 0 22.118-9.83 22.118-22.118v-97.485h-631.603v97.485c0 12.288 9.83 22.118 22.118 22.118zM702.874 249.754h-586.547c-12.288 0-22.118 9.83-22.118 22.118v328.499h631.603v-328.499c-0.819-12.288-10.65-22.118-22.938-22.118z" />
<glyph unicode="&#xe94a;" glyph-name="project" d="M512 384l-512 256 512 256 512-256zM921.472 499.264l102.528-51.264-512-256-512 256 102.528 51.264 409.472-204.736zM921.472 307.264l102.528-51.264-512-256-512 256 102.528 51.264 409.472-204.736z" />
<glyph unicode="&#xe94b;" glyph-name="delete" d="M768 106.667v554.667h-512v-554.667c0-46.933 38.4-85.333 85.333-85.333h341.333c46.933 0 85.333 38.4 85.333 85.333zM213.333 789.333h597.333v-85.333h-597.333v85.333zM725.333 704l-128 128h-170.667l-128-128z" />
<glyph unicode="&#xe94c;" glyph-name="file-xml" d="M480 384l-64 64-192-192 192-192 64 64-128 128 128 128zM544 128l64-64 192 192-192 192-64-64 128-128-128-128zM917.824 730.944c-22.208 30.272-53.184 65.728-87.168 99.712s-69.44 64.96-99.712 87.168c-51.584 37.824-76.608 42.176-90.944 42.176h-496c-44.096 0-80-35.904-80-80v-864c0-44.096 35.904-80 80-80h736c44.096 0 80 35.904 80 80v624c0 14.336-4.352 39.36-42.176 90.944v0zM785.344 785.344c30.72-30.72 54.784-58.368 72.576-81.344h-153.984v153.92c22.976-17.792 50.688-41.856 81.344-72.576v0zM896 16c0-8.704-7.296-16-16-16h-736c-8.64 0-16 7.296-16 16v864c0 8.64 7.36 16 16 16 0 0 495.936 0 496 0v-224c0-17.664 14.336-32 32-32h224v-624z" />
<glyph unicode="&#xe94d;" glyph-name="emoji" horiz-adv-x="819" d="M409.6 919.040c-203.162 0-368.64-165.478-368.64-368.64s165.478-368.64 368.64-368.64 368.64 165.478 368.64 368.64-165.478 368.64-368.64 368.64zM409.6 222.72c-181.043 0-327.68 146.637-327.68 327.68s146.637 327.68 327.68 327.68 327.68-146.637 327.68-327.68-146.637-327.68-327.68-327.68zM602.112 619.213c0-25.789-20.906-46.694-46.694-46.694s-46.694 20.906-46.694 46.694c0 25.789 20.906 46.694 46.694 46.694s46.694-20.906 46.694-46.694zM310.477 619.213c0-25.789-20.906-46.694-46.694-46.694s-46.694 20.906-46.694 46.694c0 25.789 20.906 46.694 46.694 46.694s46.694-20.906 46.694-46.694zM541.491 476.672c-73.728-65.536-190.054-65.536-263.782 0-8.192 7.373-21.299 6.554-28.672-1.638s-6.554-21.299 1.638-28.672c44.237-40.141 101.581-59.802 158.925-59.802s114.688 19.661 158.925 59.802c8.192 7.373 9.011 20.48 1.638 28.672s-20.48 9.011-28.672 1.638z" />
<glyph unicode="&#xe94e;" glyph-name="filters" horiz-adv-x="819" d="M165.888 816.64c8.192 34.816 40.96 61.44 79.872 61.44s69.632-26.624 79.872-61.44h391.168c10.24 0 20.48-8.192 20.48-20.48s-10.24-20.48-20.48-20.48h-391.168c-8.192-34.816-40.96-61.44-79.872-61.44s-69.632 26.624-79.872 61.44h-63.488c-12.288 0-20.48 8.192-20.48 20.48s10.24 20.48 20.48 20.48h63.488zM493.568 570.88c8.192 34.816 40.96 61.44 79.872 61.44s69.632-26.624 79.872-61.44h63.488c10.24 0 20.48-8.192 20.48-20.48s-10.24-20.48-20.48-20.48h-63.488c-8.192-34.816-40.96-61.44-79.872-61.44s-69.632 26.624-79.872 61.44h-391.168c-10.24 0-20.48 8.192-20.48 20.48s10.24 20.48 20.48 20.48h391.168zM329.728 325.12c8.192 34.816 40.96 61.44 79.872 61.44s69.632-26.624 79.872-61.44h227.328c10.24 0 20.48-8.192 20.48-20.48s-10.24-20.48-20.48-20.48h-227.328c-8.192-34.816-40.96-61.44-79.872-61.44s-69.632 26.624-79.872 61.44h-227.328c-10.24 0-20.48 8.192-20.48 20.48s10.24 20.48 20.48 20.48h227.328zM409.6 243.2c34.816 0 61.44 26.624 61.44 61.44s-26.624 61.44-61.44 61.44-61.44-26.624-61.44-61.44c0-34.816 26.624-61.44 61.44-61.44zM573.44 488.96c34.816 0 61.44 26.624 61.44 61.44s-26.624 61.44-61.44 61.44-61.44-26.624-61.44-61.44 26.624-61.44 61.44-61.44zM245.76 734.72c34.816 0 61.44 26.624 61.44 61.44s-26.624 61.44-61.44 61.44-61.44-26.624-61.44-61.44 26.624-61.44 61.44-61.44z" />
<glyph unicode="&#xe94f;" glyph-name="foledr" horiz-adv-x="819" d="M163.84 804.352h114.688c15.565 0 30.31-7.373 39.322-19.661l19.661-26.214c9.011-12.288 23.757-19.661 39.322-19.661h278.528c27.034 0 49.152-22.118 49.152-49.152v-344.064c0-27.034-22.118-49.152-49.152-49.152h-491.52c-27.034 0-49.152 22.118-49.152 49.152v409.6c0 27.034 22.118 49.152 49.152 49.152z" />
<glyph unicode="&#xe950;" glyph-name="file-presentation" d="M192 448h192v-64h-192v64zM192 320h192v-64h-192v64zM192 192h192v-64h-192v64zM576 256h188.8c-14.848-73.024-79.36-128-156.8-128-88.384 0-160 71.616-160 160 0 77.376 54.976 141.952 128 156.8v-188.8zM672 512c88.384 0 160-71.616 160-160 0-10.944-1.088-21.632-3.2-32h-188.8v188.8c10.368 2.112 21.056 3.2 32 3.2zM917.824 730.944c-22.208 30.272-53.184 65.728-87.168 99.712s-69.44 64.96-99.712 87.168c-51.584 37.824-76.608 42.176-90.944 42.176h-496c-44.096 0-80-35.904-80-80v-864c0-44.096 35.904-80 80-80h736c44.096 0 80 35.904 80 80v624c0 14.336-4.352 39.36-42.176 90.944v0zM785.344 785.344c30.72-30.72 54.784-58.368 72.576-81.344h-153.984v153.92c22.976-17.792 50.688-41.856 81.344-72.576v0zM896 16c0-8.704-7.296-16-16-16h-736c-8.64 0-16 7.296-16 16v864c0 8.64 7.36 16 16 16 0 0 495.936 0 496 0v-224c0-17.664 14.336-32 32-32h224v-624z" />
<glyph unicode="&#xe951;" glyph-name="new-window" horiz-adv-x="819" d="M768 550.4v-230.4c0-71.68-56.32-128-128-128h-460.8c-71.68 0-128 56.32-128 128v460.8c0 71.68 56.32 128 128 128h230.4c15.36 0 25.6-10.24 25.6-25.6s-10.24-25.6-25.6-25.6h-230.4c-43.52 0-76.8-33.28-76.8-76.8v-460.8c0-43.52 33.28-76.8 76.8-76.8h460.8c43.52 0 76.8 33.28 76.8 76.8v230.4c0 15.36 10.24 25.6 25.6 25.6s25.6-10.24 25.6-25.6zM563.2 857.6h117.76l-289.28-289.28c-10.24-10.24-10.24-25.6 0-35.84 0 0 0 0 0 0 10.24-10.24 25.6-10.24 35.84 0 0 0 0 0 0 0l289.28 289.28v-117.76c0-15.36 10.24-25.6 25.6-25.6v0c15.36 0 25.6 10.24 25.6 25.6v179.2c0 7.68-2.56 12.8-7.68 17.92s-10.24 7.68-17.92 7.68h-179.2c-15.36 0-25.6-10.24-25.6-25.6s10.24-25.6 25.6-25.6z" />
<glyph unicode="&#xe952;" glyph-name="task" d="M512 896c-247.424 0-448-200.576-448-448s200.576-448 448-448 448 200.576 448 448-200.576 448-448 448zM512 128c-176.704 0-320 143.296-320 320s143.296 320 320 320 320-143.296 320-320-143.296-320-320-320zM752 448c0-132.544-107.456-240-240-240s-240 107.456-240 240c0 132.544 107.456 240 240 240s240-107.456 240-240z" />
<glyph unicode="&#xe953;" glyph-name="subtask" d="M512 896c-247.424 0-448-200.576-448-448s200.576-448 448-448 448 200.576 448 448-200.576 448-448 448zM512 128c-176.704 0-320 143.296-320 320s143.296 320 320 320 320-143.296 320-320-143.296-320-320-320zM512 624c97.024 0 176-78.976 176-176s-78.976-176-176-176-176 78.976-176 176 78.976 176 176 176zM512 688c-132.544 0-240-107.456-240-240s107.456-240 240-240c132.544 0 240 107.456 240 240s-107.456 240-240 240v0z" />
<glyph unicode="&#xe954;" glyph-name="search" horiz-adv-x="819" d="M352.256 877.77c-149.094 0-270.336-121.242-270.336-270.336s121.242-270.336 270.336-270.336c56.525 0 108.954 18.022 153.19 47.514l148.275-148.275c18.842-18.842 50.79-18.842 69.632 0s18.842 49.971 0 69.632l-148.275 149.094c30.31 43.418 47.514 96.666 47.514 153.19 0 148.275-122.061 269.517-270.336 269.517zM352.256 779.466c95.846 0 172.032-76.186 172.032-172.032s-76.186-172.032-172.032-172.032c-95.846 0-172.032 76.186-172.032 172.032s76.186 172.032 172.032 172.032z" />
<glyph unicode="&#xe955;" glyph-name="file-exe" d="M915.2 729.6c-19.2 32-51.2 64-83.2 102.4s-70.4 64-102.4 89.6c-51.2 32-76.8 38.4-89.6 38.4h-499.2c-38.4 0-76.8-38.4-76.8-76.8v-864c0-44.8 38.4-83.2 76.8-83.2h736c44.8 0 76.8 38.4 76.8 76.8v627.2c6.4 12.8 0 38.4-38.4 89.6v0 0zM787.2 787.2c32-32 57.6-57.6 70.4-83.2h-153.6v153.6c25.6-19.2 51.2-38.4 83.2-70.4v0 0 0zM896 12.8c0-6.4-6.4-12.8-12.8-12.8h-742.4c-6.4 0-12.8 6.4-12.8 12.8v870.4c0 6.4 6.4 12.8 12.8 12.8 0 0 492.8 0 499.2 0v-224c0-19.2 12.8-32 32-32h224v-627.2z" />
<glyph unicode="&#xe956;" glyph-name="shared-folder" horiz-adv-x="819" d="M675.84 734.72h-589.824v-393.216c0-36.045 29.491-65.536 65.536-65.536h524.288c36.045 0 65.536 29.491 65.536 65.536v327.68c0 36.045-29.491 65.536-65.536 65.536zM413.696 611.84c29.491 0 53.248-23.757 53.248-53.248s-23.757-53.248-53.248-53.248-53.248 23.757-53.248 53.248 23.757 53.248 53.248 53.248zM520.192 398.848h-212.992v26.214c0 35.226 71.27 53.248 106.496 53.248s106.496-18.022 106.496-53.248v-26.214zM315.392 824.832h-163.84c-36.045 0-65.536-29.491-65.536-65.536h294.912l-65.536 65.536z" />
<glyph unicode="&#xe957;" glyph-name="stop" horiz-adv-x="819" d="M652.902 521.728c-20.48-0.819-39.322-10.65-52.429-26.214l-32.768-39.322v359.629c2.458 29.491-19.661 54.886-49.152 57.344s-54.886-19.661-57.344-49.152c0-2.458 0-5.734 0-8.192v-222.822c0-4.915-3.277-8.192-8.192-8.192 0 0 0 0-0.819 0-4.915 0-8.192 3.277-8.192 8.192v288.358c2.458 29.491-19.661 54.886-49.152 57.344s-54.886-19.661-57.344-49.152c0-2.458 0-5.734 0-8.192v-288.358c0-4.915-3.277-8.192-8.192-8.192 0 0 0 0-0.819 0-4.915 0-8.192 3.277-8.192 8.192v239.206c-2.458 29.491-27.853 51.61-57.344 49.152-26.214-2.458-46.694-22.938-49.152-49.152v-239.206c0-2.458-0.819-4.096-2.458-5.734s-3.277-2.458-5.734-2.458h-0.819c-4.915 0-8.192 3.277-8.192 8.192v156.467c2.458 29.491-19.661 54.886-49.152 57.344s-54.886-19.661-57.344-49.152c0-2.458 0-5.734 0-8.192v-386.662c0-108.954 87.654-196.608 196.608-196.608h135.168c58.163 0 113.050 25.395 150.733 70.451l139.264 165.478c26.214 31.13 22.118 77.005-9.011 103.219-13.926 11.469-31.949 17.203-49.971 16.384v0z" />
<glyph unicode="&#xe958;" glyph-name="stopped" horiz-adv-x="819" d="M410.718 960c-227.938 0-410.718-182.78-410.718-410.718 0-225.787 182.78-408.568 410.718-408.568 225.787 0 408.568 182.78 408.568 408.568 0 227.938-182.78 410.718-408.568 410.718zM636.506 519.177c0-8.601-4.301-15.052-12.902-15.052h-427.921c-6.451 0-12.902 6.451-12.902 15.052v62.36c0 8.601 6.451 15.052 12.902 15.052h427.921c8.601 0 12.902-6.451 12.902-15.052v-62.36z" />
<glyph unicode="&#xe959;" glyph-name="team" horiz-adv-x="1408" d="M768 254.72v13.248c92.544 35.392 160 145.6 160 276.032 0 159.040-100.288 288-224 288s-224-128.96-224-288c0-130.432 67.456-240.64 160-276.032v-13.248c-217.088-8.896-384-62.208-384-126.72v-128h896v128c0 64.512-166.912 117.824-384 126.72zM1152 511.424v5.056c73.024 20.736 128 111.168 128 219.52 0 123.712-71.616 224-160 224s-160-100.288-160-224c0-108.352 54.976-198.784 128-219.52v-5.056c-31.808-1.152-62.080-4.096-89.856-8.384-6.272-68.224-28.096-131.264-61.76-182.976h471.616v96c0 49.408-112 90.112-256 95.424zM409.856 502.976c-27.84 4.352-58.048 7.232-89.856 8.384v5.056c73.024 20.736 128 111.168 128 219.52 0 123.712-71.616 224-160 224s-160-100.288-160-224c0-108.352 54.976-198.784 128-219.52v-5.056c-144-5.312-256-46.016-256-95.424v-96h471.616c-33.664 51.776-55.488 114.816-61.76 182.976z" />
<glyph unicode="&#xe95a;" glyph-name="timer" horiz-adv-x="819" d="M409.6 725.399c-123.699 0-224.461-100.762-224.461-224.461s100.762-224.461 224.461-224.461c123.699 0 224.461 100.762 224.461 224.461 0 9.011-7.373 16.384-16.384 16.384h-191.693v191.693c0 9.011-7.373 16.384-16.384 16.384zM407.962 910.538c-16.384 0-31.949-2.458-44.237-7.373-6.554-2.458-12.288-4.915-17.203-9.83-4.915-4.096-9.83-11.469-9.83-20.48s4.915-15.565 9.83-20.48c4.915-4.096 10.65-7.373 17.203-9.83s13.107-4.096 21.299-5.734l-13.926-29.491c-153.19-19.661-271.974-150.733-271.974-308.838 0-171.213 139.264-310.477 311.296-310.477 171.213 0 311.296 139.264 311.296 310.477 0 158.106-118.784 289.178-271.974 308.838l-13.926 29.491c7.373 0.819 14.746 3.277 21.299 5.734s12.288 4.915 17.203 9.83c4.915 4.096 9.83 11.469 9.83 20.48s-4.915 15.565-9.83 20.48c-4.915 4.096-10.65 7.373-17.203 9.83-12.288 4.915-27.853 7.373-44.237 7.373h-3.277c0 0-1.638 0-1.638 0zM409.6 778.647c154.010 0 278.528-124.518 278.528-278.528s-124.518-277.709-278.528-277.709c-154.010 0-278.528 124.518-278.528 277.709s124.518 278.528 278.528 278.528z" />
<glyph unicode="&#xe95b;" glyph-name="unzip" horiz-adv-x="819" d="M346.522 274.33h-158.925c-22.938 0-41.779 18.842-41.779 41.779v471.040c0 22.938 18.842 41.779 41.779 41.779h41.779v-61.44h-43.418c-4.915 0-8.192-3.277-8.192-8.192v-5.734c0-4.915 3.277-8.192 8.192-8.192h43.418v-36.045h-43.418c-4.915 0-8.192-3.277-8.192-8.192v-5.734c0-4.915 3.277-8.192 8.192-8.192h43.418v-36.045h-43.418c-4.915 0-8.192-3.277-8.192-8.192v-5.734c0-4.915 3.277-8.192 8.192-8.192h43.418v-41.779h-28.672c-4.915 0-8.192-3.277-8.192-8.192v-103.219c0-4.915 3.277-8.192 8.192-8.192h73.728c4.915 0 8.192 3.277 8.192 8.192v103.219c0 4.915-3.277 8.192-8.192 8.192h-28.672v51.61h43.418c4.915 0 8.192 3.277 8.192 8.192v5.734c0 4.915-3.277 8.192-8.192 8.192h-43.418v36.045h43.418c4.915 0 8.192 3.277 8.192 8.192v5.734c0 4.915-3.277 8.192-8.192 8.192h-43.418v36.045h43.418c4.915 0 8.192 3.277 8.192 8.192v5.734c0 4.915-3.277 8.192-8.192 8.192h-43.418v51.61h177.766v-112.23c0-4.915 3.277-8.192 8.192-8.192h112.23v-58.982c0-4.915 3.277-8.192 8.192-8.192s8.192 3.277 8.192 8.192v66.355c0 0 0 0.819 0 0.819 0 2.458-1.638 4.915-3.277 6.554l-119.603 119.603c0 0 0 0 0 0-0.819 0.819-1.638 0.819-2.458 1.638 0 0-0.819 0-0.819 0-0.819 0-1.638 0-2.458 0.819 0 0 0 0-0.819 0h-244.122c-31.949 0-58.163-26.214-58.163-58.163v-471.859c0-31.949 26.214-58.163 58.163-58.163h158.925c4.915 0 8.192 3.277 8.192 8.192s-3.277 9.011-7.373 9.011zM208.896 483.226v46.694h57.344v-46.694c-0.819 0-57.344 0-57.344 0zM531.661 572.518c-87.654 0-158.106-71.27-158.106-158.106s70.451-158.925 158.106-158.925c87.654 0 158.106 71.27 158.106 158.106s-71.27 158.925-158.106 158.925zM531.661 556.134c36.045 0 69.632-13.926 94.208-36.045l-200.704-200.704c-22.118 25.395-36.045 58.163-36.045 94.208 0 78.643 63.898 142.541 142.541 142.541zM531.661 271.872c-36.045 0-69.632 13.926-94.208 36.045l200.704 200.704c22.118-25.395 36.045-58.163 36.045-94.208-0.819-78.643-64.717-142.541-142.541-142.541z" />
<glyph unicode="&#xe95c;" glyph-name="www" horiz-adv-x="820" d="M497.087 298.874c-27.34-49.709-64.621-79.534-96.932-79.534-42.252 0-86.99 44.738-116.816 119.301 34.796 2.485 74.563 4.971 116.816 4.971 29.825 0 57.165 0 84.505-2.485l-17.398 52.194c-22.369 0-44.738 2.485-64.621 2.485v0c0 0-2.485 0-2.485 0-44.738 0-89.476-2.485-134.214-4.971-12.427 42.252-19.883 89.476-19.883 141.67h310.68c0-9.942 0-19.883-2.485-27.34l49.709-14.913c2.485 14.913 2.485 29.825 2.485 44.738h129.243c-2.485-27.34-7.456-54.68-17.398-79.534l47.223-14.913c12.427 37.282 19.883 79.534 19.883 121.786 0 74.563-22.369 144.155-57.165 203.806-9.942 14.913-19.883 29.825-32.311 44.738-72.078 84.505-178.951 139.184-298.252 139.184v0 0c0 0-2.485 0-2.485 0-119.301 0-226.175-54.68-298.252-139.184-7.456-22.369-17.398-37.282-27.34-52.194-37.282-59.65-57.165-129.243-57.165-203.806s19.883-144.155 57.165-203.806c9.942-14.913 19.883-29.825 32.311-44.738 72.078-84.505 178.951-139.184 298.252-139.184 0 0 2.485 0 2.485 0v0c0 0 0 0 0 0 44.738 0 89.476 7.456 129.243 22.369l-34.796 109.359zM477.204 582.214h-233.631c2.485 52.194 9.942 99.417 19.883 141.67 44.738-4.971 89.476-4.971 134.214-4.971 0 0 2.485 0 2.485 0 44.738 0 89.476 2.485 134.214 4.971 12.427-42.252 19.883-89.476 19.883-141.67h-77.049zM678.524 743.767c32.311-47.223 52.194-101.903 57.165-164.039h-129.243c-2.485 52.194-9.942 101.903-19.883 146.641 32.311 7.456 64.621 12.427 91.961 17.398zM643.728 788.505c-22.369-2.485-47.223-7.456-72.078-9.942-12.427 34.796-29.825 64.621-47.223 91.961 44.738-19.883 84.505-47.223 119.301-82.019zM400.155 892.893c2.485 0 4.971 0 4.971 0s0 0 0 0c2.485 0 2.485 0 4.971 0 39.767-7.456 79.534-49.709 106.874-119.301-14.913-2.485-32.311-2.485-49.709-2.485v0c-22.369 0-44.738-2.485-69.592-2.485-42.252 0-82.019 2.485-116.816 4.971 29.825 74.563 74.563 119.301 119.301 119.301zM275.883 868.039c-17.398-24.854-34.796-54.68-47.223-91.961-24.854 2.485-49.709 7.456-72.078 12.427 34.796 34.796 74.563 62.136 119.301 79.534zM121.786 743.767c27.34-4.971 59.65-9.942 91.961-14.913-12.427-44.738-19.883-94.447-19.883-146.641h-129.243c4.971 59.65 24.854 114.33 57.165 161.553zM121.786 368.466c-32.311 47.223-52.194 104.388-57.165 164.039h129.243c2.485-52.194 9.942-101.903 19.883-146.641-32.311-7.456-64.621-12.427-91.961-17.398zM156.583 323.728c22.369 4.971 44.738 7.456 72.078 12.427 12.427-34.796 29.825-64.621 47.223-91.961-44.738 17.398-84.505 44.738-119.301 79.534zM765.515 385.864l-84.505 27.34c-19.883 4.971-52.194 17.398-69.592 22.369l-84.505 27.34c-19.883 4.971-29.825-4.971-24.854-24.854l27.34-84.505c4.971-19.883 17.398-52.194 22.369-69.592l27.34-84.505c4.971-19.883 22.369-22.369 37.282-9.942l39.767 39.767 72.078-72.078 79.534 79.534-72.078 72.078 39.767 39.767c14.913 12.427 9.942 29.825-9.942 37.282z" />
<glyph unicode="&#xe95d;" glyph-name="zip" horiz-adv-x="819" d="M346.522 274.33h-158.925c-22.938 0-41.779 18.842-41.779 41.779v471.040c0 22.938 18.842 41.779 41.779 41.779h41.779v-61.44h-43.418c-4.915 0-8.192-3.277-8.192-8.192v-5.734c0-4.915 3.277-8.192 8.192-8.192h43.418v-36.045h-43.418c-4.915 0-8.192-3.277-8.192-8.192v-5.734c0-4.915 3.277-8.192 8.192-8.192h43.418v-36.045h-43.418c-4.915 0-8.192-3.277-8.192-8.192v-5.734c0-4.915 3.277-8.192 8.192-8.192h43.418v-41.779h-28.672c-4.915 0-8.192-3.277-8.192-8.192v-104.038c0-4.915 3.277-8.192 8.192-8.192h73.728c4.915 0 8.192 3.277 8.192 8.192v103.219c0 4.915-3.277 8.192-8.192 8.192h-28.672v51.61h43.418c4.915 0 8.192 3.277 8.192 8.192v5.734c0 4.915-3.277 8.192-8.192 8.192h-43.418v36.045h43.418c4.915 0 8.192 3.277 8.192 8.192v5.734c0 4.915-3.277 8.192-8.192 8.192h-43.418v36.864h43.418c4.915 0 8.192 3.277 8.192 8.192v5.734c0 4.915-3.277 8.192-8.192 8.192h-43.418v51.61h177.766v-112.23c0-4.915 3.277-8.192 8.192-8.192h112.23v-58.982c0-4.915 3.277-8.192 8.192-8.192s8.192 3.277 8.192 8.192v66.355c0 0 0 0.819 0 0.819 0 2.458-1.638 4.915-3.277 6.554l-119.603 119.603c0 0 0 0 0 0-0.819 0.819-1.638 0.819-2.458 1.638 0 0-0.819 0-0.819 0-0.819 0-1.638 0-2.458 0.819 0 0 0 0-0.819 0h-244.122c-31.949 0-58.163-26.214-58.163-58.163v-471.859c0-31.949 26.214-58.163 58.163-58.163h158.925c4.915 0 8.192 3.277 8.192 8.192s-3.277 9.011-7.373 9.011zM208.896 483.226v46.694h57.344v-46.694h-57.344zM531.661 572.518c-87.654 0-158.106-71.27-158.106-158.106s70.451-158.925 158.106-158.925c87.654 0 158.106 71.27 158.106 158.106s-71.27 158.925-158.106 158.925zM531.661 271.872c-78.643 0-141.722 63.898-141.722 141.722s63.898 141.722 141.722 141.722c78.643 0 141.722-63.898 141.722-141.722s-63.898-141.722-141.722-141.722zM602.931 421.786h-63.078v63.078c0 4.915-3.277 8.192-8.192 8.192s-8.192-3.277-8.192-8.192v-63.078h-63.078c-4.915 0-8.192-3.277-8.192-8.192s3.277-8.192 8.192-8.192h63.078v-63.078c0-4.915 3.277-8.192 8.192-8.192s8.192 3.277 8.192 8.192v63.078h63.078c4.915 0 8.192 3.277 8.192 8.192s-4.096 8.192-8.192 8.192z" />
<glyph unicode="&#xe95e;" d="M886.553 448c0-37.198-30.155-67.353-67.353-67.353s-67.353 30.155-67.353 67.353c0 37.198 30.155 67.353 67.353 67.353s67.353-30.155 67.353-67.353z" />
<glyph unicode="&#xe95f;" d="M779.564 180.436c-27.803-27.803-72.879-27.803-100.682 0s-27.803 72.879 0 100.682c27.803 27.803 72.879 27.803 100.682 0s27.803-72.879 0-100.682z" />
<glyph unicode="&#xe960;" d="M512 65.767c-41.44 0-75.033 33.593-75.033 75.033s33.593 75.033 75.033 75.033c41.44 0 75.033-33.593 75.033-75.033s-33.593-75.033-75.033-75.033z" />
<glyph unicode="&#xe961;" d="M239.005 175.005c-30.802 30.802-30.802 80.741 0 111.543s80.741 30.802 111.543 0c30.802-30.802 30.802-80.741 0-111.543s-80.741-30.802-111.543 0z" />
<glyph unicode="&#xe962;" d="M122.087 448c0 45.681 37.032 82.713 82.713 82.713s82.713-37.032 82.713-82.713c0-45.681-37.032-82.713-82.713-82.713s-82.713 37.032-82.713 82.713z" />
<glyph unicode="&#xe963;" d="M233.575 726.425c33.801 33.801 88.603 33.801 122.404 0s33.801-88.603 0-122.404c-33.801-33.801-88.603-33.801-122.404 0s-33.801 88.603 0 122.404z" />
<glyph unicode="&#xe964;" d="M512 845.593c49.923 0 90.393-40.47 90.393-90.393s-40.47-90.393-90.393-90.393c-49.923 0-90.393 40.47-90.393 90.393s40.47 90.393 90.393 90.393z" />
<glyph unicode="&#xe965;" d="M774.134 710.134c24.803-24.803 24.803-65.018 0-89.821s-65.018-24.803-89.821 0c-24.803 24.803-24.803 65.018 0 89.821s65.018 24.803 89.821 0z" />
<glyph unicode="&#xe966;" glyph-name="spinner2" d="M1024 448c-1.28 66.88-15.808 133.504-42.56 194.432-26.688 60.992-65.472 116.288-113.024 161.92s-103.936 81.792-164.992 105.664c-60.992 23.936-126.592 35.328-191.424 33.984-64.832-1.28-129.344-15.36-188.352-41.344-59.072-25.92-112.512-63.488-156.736-109.568s-79.168-100.736-102.208-159.808c-23.104-59.072-34.112-122.496-32.768-185.28 1.28-62.784 14.976-125.12 40.128-182.208 25.088-57.088 61.504-108.8 106.112-151.552s97.472-76.48 154.624-98.752c57.088-22.272 118.464-32.896 179.136-31.552 60.736 1.28 120.96 14.528 176.064 38.912 55.168 24.256 105.088 59.456 146.368 102.656s73.856 94.208 95.232 149.44c13.056 33.472 21.888 68.416 26.56 103.808 1.216-0.064 2.496-0.128 3.776-0.128 35.328 0 64 28.672 64 64 0 1.792-0.064 3.584-0.256 5.312h0.256zM922.304 278.080c-23.488-53.184-57.472-101.376-99.2-141.184s-91.008-71.168-144.256-91.776c-53.248-20.672-110.272-30.464-166.912-29.056-56.576 1.28-112.576 13.76-163.84 36.48-51.264 22.656-97.664 55.488-136 95.68s-68.544 87.744-88.32 139.072c-19.84 51.264-29.248 106.24-27.84 160.768s13.312 108.416 35.264 157.696c21.888 49.28 53.504 93.952 92.224 130.816s84.544 65.856 133.888 84.864c49.344 19.072 102.144 28.032 154.624 26.624s104.256-12.928 151.552-34.048c47.36-21.056 90.24-51.52 125.632-88.768s63.232-81.28 81.408-128.704c18.24-47.36 26.752-98.048 25.408-148.48h0.256c-0.128-1.728-0.256-3.52-0.256-5.312 0-33.024 24.96-60.16 57.088-63.616-6.208-34.816-16.512-68.8-30.784-100.992z" />
<glyph unicode="&#xe967;" glyph-name="paste" d="M704 832h-128v64c0 35.2-28.8 64-64 64h-128c-35.2 0-64-28.8-64-64v-64h-128v-128h512v128zM512 832h-128v63.872c0.064 0.064 0.064 0.064 0.128 0.128h127.744c0.064-0.064 0.064-0.064 0.128-0.128v-63.872zM832 640v160c0 17.6-14.4 32-32 32h-64v-64h32v-128h-384v-448h-256v576h32v64h-64c-17.6 0-32-14.4-32-32v-640c0-17.6 14.4-32 32-32h288v-192h448l192 192v512h-192zM832 26.496v101.504h101.504l-101.504-101.504zM960 192h-192v-192h-320v576h512v-384z" />
<glyph unicode="&#xe968;" glyph-name="users21" horiz-adv-x="1152" d="M768 189.376v52.8c70.464 39.744 128 138.752 128 237.824 0 159.040 0 288-192 288s-192-128.96-192-288c0-99.072 57.472-198.080 128-237.824v-52.8c-217.088-17.728-384-124.416-384-253.376h896c0 128.96-166.912 235.648-384 253.376zM207.488 344c-13.568-4.928-26.624-10.304-39.104-16h306.048c-2.432 5.312-4.8 10.624-6.976 16h-259.968zM27.2 216c-3.392-5.248-6.464-10.56-9.216-16h373.376c12.288 5.696 24.896 11.008 37.952 16h-402.176zM87.488 280c-6.72-5.184-13.056-10.496-19.136-16h443.712c-3.84 5.184-7.552 10.56-11.136 16h-413.504zM336.704 376c-27.136-3.968-53.312-9.344-78.208-16h202.88c-1.92 5.312-3.648 10.624-5.312 16h-119.296zM384 408v-16h67.456c-1.408 5.312-2.624 10.624-3.776 16h-63.68zM374.464 440c3.136-2.048 6.336-4.032 9.536-5.824v-10.176h60.608c-0.896 5.312-1.6 10.688-2.24 16h-67.968zM1.92 152c-0.832-5.312-1.408-10.624-1.728-16h288.064c6.528 5.44 13.376 10.816 20.544 16h-306.88zM110.016 296h381.12c-1.536 2.688-3.072 5.376-4.608 8.128-1.408 2.624-2.816 5.248-4.224 7.872h-345.728c-9.28-5.12-18.112-10.432-26.56-16zM256.32 728c-0.128-5.312-0.192-10.624-0.192-16h213.696c0.256 0.576 0.512 1.152 0.768 1.792 2.24 4.864 4.672 9.6 7.168 14.208h-221.44zM10.752 184c-2.048-5.248-3.84-10.624-5.312-16h326.976c8.704 5.568 17.728 10.88 27.072 16h-348.736zM297.152 904h301.632c-4.48 5.696-9.472 11.072-14.976 16h-271.68c-5.504-4.928-10.496-10.304-14.976-16zM38.528 232h438.080c16.384 4.864 33.216 9.28 50.368 13.056-0.832 0.96-1.6 1.92-2.432 2.944h-472.384c-4.864-5.248-9.408-10.56-13.632-16zM336.32 472c5.44-5.696 11.072-11.072 16.832-16h87.744c-0.384 5.312-0.64 10.688-0.768 16h-103.808zM310.272 504c3.84-5.504 7.872-10.88 12.032-16h117.76c0 5.376 0 10.688 0 16h-129.728zM272.32 856c-1.728-5.184-3.2-10.496-4.608-16h360.448c-1.344 5.504-2.88 10.816-4.608 16h-351.296zM264.32 824c-0.96-5.248-1.856-10.56-2.624-16h296c11.456 6.272 23.808 11.584 36.992 16h-330.368zM257.408 760c-0.256-5.248-0.512-10.624-0.64-16h230.72c3.712 5.568 7.68 10.88 11.84 16h-241.92zM259.776 792c-0.512-5.248-1.024-10.56-1.408-16h255.68c5.888 5.696 12.096 11.072 18.688 16h-272.96zM375.424 952c-15.552-3.968-29.12-9.344-40.832-16h226.816c-11.776 6.656-25.344 12.032-40.896 16h-145.024zM290.816 536c2.88-5.44 5.888-10.816 9.024-16h140.288c0.064 5.376 0.128 10.688 0.192 16h-149.504zM286.4 888c-2.944-5.12-5.632-10.432-8-16h339.2c-2.368 5.568-5.056 10.88-8 16h-323.2zM265.728 600c1.408-5.376 3.072-10.688 4.736-16h171.712c0.32 5.376 0.768 10.688 1.216 16h-177.728zM276.224 568c2.112-5.44 4.352-10.752 6.72-16h157.696c0.192 5.376 0.384 10.688 0.576 16h-165.056zM256 696c0-5.312 0-10.624 0-16h201.92c1.6 5.44 3.392 10.752 5.376 16h-207.232zM256.128 664c0.192-5.312 0.512-10.688 1.024-16h192.896c1.024 5.376 2.24 10.752 3.52 16h-197.44zM259.072 632c0.832-5.376 1.728-10.688 2.88-16h183.168c0.64 5.376 1.344 10.688 2.176 16h-188.224z" />
<glyph unicode="&#xe969;" glyph-name="user" d="M576 253.376v52.8c70.528 39.744 128 138.752 128 237.824 0 159.040 0 288-192 288s-192-128.96-192-288c0-99.072 57.472-198.080 128-237.824v-52.8c-217.088-17.728-384-124.416-384-253.376h896c0 128.96-166.912 235.648-384 253.376z" />
<glyph unicode="&#xe96a;" glyph-name="users" horiz-adv-x="1152" d="M768 189.376v52.8c70.528 39.744 128 138.752 128 237.824 0 159.040 0 288-192 288s-192-128.96-192-288c0-99.072 57.472-198.080 128-237.824v-52.8c-217.088-17.728-384-124.416-384-253.376h896c0 128.96-166.912 235.648-384 253.376zM327.168 164.672c55.296 36.16 124.096 63.616 199.808 80.384-15.040 17.792-28.736 37.632-40.512 59.008-30.4 55.232-46.464 116.032-46.464 175.872 0 86.016 0 167.296 30.592 233.792 29.696 64.512 83.136 104.512 159.232 119.488-16.896 76.48-61.952 126.72-181.824 126.72-192 0-192-128.96-192-288 0-99.072 57.472-198.080 128-237.824v-52.8c-217.088-17.728-384-124.416-384-253.376h278.976c14.528 12.928 30.592 25.152 48.192 36.672z" />
<glyph unicode="&#xe96b;" glyph-name="user-plus" d="M384 224c0 151.232 95.872 280.512 230.016 330.176 16.256 36.544 25.984 77.184 25.984 117.824 0 159.040 0 288-192 288s-192-128.96-192-288c0-99.072 57.472-198.080 128-237.824v-52.8c-217.088-17.728-384-124.416-384-253.376h397.312c-8.64 30.528-13.312 62.72-13.312 96zM736 512c-159.040 0-288-128.96-288-288s128.96-288 288-288c159.040 0 288 128.96 288 288s-128.96 288-288 288zM896 192h-128v-128h-64v128h-128v64h128v128h64v-128h128v-64z" />
<glyph unicode="&#xe96c;" glyph-name="user-check" d="M960 352l-288-288-96 96-64-64 160-160 352 352zM448 192h320v115.136c-67.2 39.232-156.288 66.112-256 74.24v52.8c70.528 39.744 128 138.752 128 237.824 0 159.040 0 288-192 288s-192-128.96-192-288c0-99.072 57.472-198.080 128-237.824v-52.8c-217.088-17.728-384-124.416-384-253.376h448v64z" />
<glyph unicode="&#xe96d;" glyph-name="users4" horiz-adv-x="1408" d="M768 254.72v13.248c92.544 35.392 160 145.6 160 276.032 0 159.040-100.288 288-224 288s-224-128.96-224-288c0-130.432 67.456-240.64 160-276.032v-13.248c-217.088-8.896-384-62.208-384-126.72v-128h896v128c0 64.512-166.912 117.824-384 126.72zM1152 511.424v5.056c73.024 20.736 128 111.168 128 219.52 0 123.712-71.616 224-160 224s-160-100.288-160-224c0-108.352 54.976-198.784 128-219.52v-5.056c-31.808-1.152-62.080-4.096-89.856-8.384-6.272-68.224-28.096-131.264-61.76-182.976h471.616v96c0 49.408-112 90.112-256 95.424zM409.856 502.976c-27.84 4.352-58.048 7.232-89.856 8.384v5.056c73.024 20.736 128 111.168 128 219.52 0 123.712-71.616 224-160 224s-160-100.288-160-224c0-108.352 54.976-198.784 128-219.52v-5.056c-144-5.312-256-46.016-256-95.424v-96h471.616c-33.664 51.776-55.488 114.816-61.76 182.976z" />
<glyph unicode="&#xe96e;" glyph-name="plus2" d="M992 576h-352v352c0 17.664-14.336 32-32 32h-192c-17.664 0-32-14.336-32-32v-352h-352c-17.664 0-32-14.336-32-32v-192c0-17.664 14.336-32 32-32h352v-352c0-17.664 14.336-32 32-32h192c17.664 0 32 14.336 32 32v352h352c17.664 0 32 14.336 32 32v192c0 17.664-14.336 32-32 32z" />
<glyph unicode="&#xe96f;" glyph-name="bell2" d="M1024 128c-106.048 0-192 85.952-192 192v285.12c0 140.736-109.952 258.112-256 285.056v69.824h-128v-69.824c-146.048-26.944-256-144.32-256-285.056v-285.12c0-106.048-85.952-192-192-192v-64h429.568c-5.184-11.392-8.128-24.128-8.128-37.504 0-49.984 40.512-90.496 90.496-90.496s90.496 40.512 90.496 90.496c0 13.376-2.88 26.048-8.128 37.504h429.632v64z" />
<glyph unicode="&#xe970;" glyph-name="download41" d="M896 256v-128h-768v128h-128v-256h1024v256zM768 576h-192v320h-128v-320h-192l256-384z" />
<glyph unicode="&#xe971;" glyph-name="upload41" d="M896 256v-128h-768v128h-128v-256h1024v256zM256 512h192v-320h128v320h192l-256 384z" />
<glyph unicode="&#xe972;" glyph-name="cog2" d="M1024 351.936v192.192l-146.752 24.448c-5.952 18.112-13.248 35.648-21.696 52.48l86.464 121.024-135.872 135.872-120.832-86.336c-16.896 8.576-34.56 15.872-52.8 21.888l-24.384 146.432h-192.192l-24.384-146.432c-18.24-6.016-35.84-13.376-52.736-21.888l-120.832 86.336-135.872-135.872 86.464-121.024c-8.448-16.832-15.744-34.368-21.696-52.48l-146.752-24.448v-192.192l147.136-24.512c5.952-17.984 13.184-35.328 21.632-52.032l-86.72-121.472 135.872-135.872 121.664 86.912c16.576-8.32 33.92-15.552 51.776-21.44l24.576-147.456h192.192l24.576 147.456c17.856 5.888 35.136 13.056 51.776 21.44l121.664-86.912 135.872 135.872-86.72 121.472c8.448 16.704 15.68 34.048 21.632 52.032l147.136 24.512zM512 320c-70.72 0-128 57.28-128 128s57.28 128 128 128c70.72 0 128-57.28 128-128s-57.28-128-128-128z" />
<glyph unicode="&#xe973;" glyph-name="bubble-dots" d="M836.032 896h-648c-103.424 0-188.032-84.608-188.032-188.032v-708.032l192 192h644.032c103.424 0 188.032 84.608 188.032 188.032v328c0 103.424-84.608 188.032-188.032 188.032zM320 448c-35.328 0-64 28.672-64 64s28.672 64 64 64 64-28.672 64-64-28.672-64-64-64zM512 448c-35.328 0-64 28.672-64 64s28.672 64 64 64 64-28.672 64-64-28.672-64-64-64zM704 448c-35.328 0-64 28.672-64 64s28.672 64 64 64 64-28.672 64-64-28.672-64-64-64z" />
<glyph unicode="&#xe974;" glyph-name="server" d="M832 960h-640l-192-256h1024l-192 256zM0 640v-192h1024v192h-1024zM960 512h-64v64h64v-64zM0 384v-192h1024v192h-1024zM960 256h-64v64h64v-64zM0 128v-192h1024v192h-1024zM960 0h-64v64h64v-64z" />
<glyph unicode="&#xe975;" glyph-name="calendar1" d="M0 0c0-35.328 28.672-64 64-64h896c35.328 0 64 28.672 64 64v576h-1024v-576zM704 512h256v-128h-256v128zM704 320h256v-128h-256v128zM704 128h256v-128h-256v128zM384 512h256v-128h-256v128zM384 320h256v-128h-256v128zM384 128h256v-128h-256v128zM64 512h256v-128h-256v128zM64 320h256v-128h-256v128zM64 128h256v-128h-256v128zM960 832h-128v91.456c0 20.224-14.336 36.544-32 36.544s-32-16.384-32-36.544v-91.456h-512v91.456c0 20.224-14.336 36.544-32 36.544s-32-16.384-32-36.544v-91.456h-128c-35.328 0-64-28.672-64-64v-128h1024v128c0 35.328-28.672 64-64 64zM224 672c-35.328 0-64 28.672-64 64 0 23.68 12.864 44.352 32 55.424v-55.424c0-17.664 14.336-32 32-32s32 14.336 32 32v55.424c19.136-11.072 32-31.744 32-55.424 0-35.328-28.672-64-64-64zM800 672c-35.328 0-64 28.672-64 64 0 23.68 12.864 44.352 32 55.424v-55.424c0-17.664 14.336-32 32-32s32 14.336 32 32v55.424c19.136-11.072 32-31.744 32-55.424 0-35.328-28.672-64-64-64z" />
<glyph unicode="&#xe976;" glyph-name="import" horiz-adv-x="819" d="M561.36 584c-84.72 0-153.44-68.64-153.44-153.44s68.64-153.44 153.44-153.44 153.44 68.64 153.44 153.44-68.72 153.44-153.44 153.44zM561.36 314c-64.4 0-116.56 52.24-116.56 116.56 0 64.4 52.24 116.56 116.56 116.56 64.4 0 116.56-52.16 116.56-116.56 0-64.32-52.16-116.56-116.56-116.56 0 0 0 0 0 0v0zM633.68 448.56h-100.48l27.6 26.48c7.36 7.040 7.6 18.64 0.56 26 0 0 0 0 0 0-7.040 7.36-18.64 7.6-26 0.56 0 0 0 0 0 0l-58.4-56.080c-7.36-7.040-7.6-18.64-0.56-26 0.48-0.48 0.96-0.96 1.44-1.36l57.6-60c6.16-6.4 16.32-6.64 22.72-0.48l3.36 3.28c6.4 6.16 6.64 16.32 0.48 22.72l-26.96 28.080h98.72c10.16 0 18.4 8.24 18.4 18.4s-8.32 18.4-18.48 18.4zM460.080 702.4c0 10.16-8.24 18.4-18.4 18.4h-238.8c-10.16 0-18.4-8.24-18.4-18.4s8.24-18.4 18.4-18.4h238.88c10.080 0 18.32 8.24 18.32 18.4 0 0 0 0 0 0zM378.32 555.2c0 10.16-8.24 18.4-18.4 18.4h-161.2c-10.16 0-18.4-8.24-18.4-18.4s8.24-18.4 18.4-18.4h161.12c10.24 0 18.48 8.24 18.48 18.4 0 0 0 0 0 0zM184.48 426.32h142.72v-36.8h-142.72v36.8zM446.56 281.040h-276.96c-15.2 0-27.52 12.32-27.52 27.52v0 484.96c0 15.2 12.32 27.52 27.52 27.52h362.16c15.2 0 27.52-12.32 27.52-27.52v0-162.48c0-10.16 8.24-18.4 18.4-18.4s18.4 8.24 18.4 18.4v199.28c0 15.2-12.32 27.52-27.52 27.52v0h-435.84c-15.2 0-27.52-12.32-27.52-27.52v-558.56c0-15.2 12.32-27.52 27.52-27.52v0h433.76c-37.040-0.080-73.2 11.12-103.76 32-4.8 3.2-10.4 4.88-16.16 4.8v0z" />
<glyph unicode="&#xe977;" glyph-name="user-tie" d="M320 768c0 106.048 85.952 192 192 192s192-85.952 192-192c0-106.048-85.952-192-192-192s-192 85.952-192 192zM768.064 512h-35.392l-199.104-404.224 74.432 372.224-96 96-96-96 74.432-372.224-199.104 404.224h-35.456c-127.936 0-127.936-86.016-127.936-192v-320h768v320c0 105.984 0 192-127.936 192z" />
<glyph unicode="&#xe978;" glyph-name="embed2" horiz-adv-x="1280" d="M832 224l96-96 320 320-320 320-96-96 224-224zM448 672l-96 96-320-320 320-320 96 96-224 224zM701.312 809.472l69.44-18.944-192-704-69.44 18.944 192 704z" />
<glyph unicode="&#xe979;" glyph-name="stethoscope" d="M896 576c-70.72 0-128-57.28-128-128 0-47.36 25.728-88.704 64-110.848v-241.152c0-52.928-43.072-96-96-96h-256c-52.928 0-96 43.072-96 96v96h32c17.664 0 32 14.336 32 32v49.984c68.224 26.752 127.936 82.944 175.744 166.336 52.672 91.904 80.256 202.24 80.256 263.68v96c0 52.928-43.072 96-96 96h-96c-35.328 0-64-28.672-64-64s28.672-64 64-64 64 28.672 64 64h32c17.664 0 32-14.336 32-32v-96c0-69.248-36.992-171.136-71.744-231.872-72.064-125.76-157.376-152.128-216.256-152.128s-144.192 26.368-216.256 152.128c-46.592 81.344-71.744 180.16-71.744 231.872v96c0 17.664 14.336 32 32 32h32c0-35.328 28.672-64 64-64s64 28.672 64 64-28.672 64-64 64h-96c-52.928 0-96-43.072-96-96v-96c0-61.44 27.584-171.776 80.256-263.68 47.808-83.392 107.52-139.584 175.744-166.336v-49.984c0-17.664 14.336-32 32-32h32v-96c0-88.256 71.808-160 160-160h256c88.256 0 160 71.744 160 160v224c70.72 0 128 57.28 128 128s-57.28 128-128 128zM896 384c-35.264 0-64 28.736-64 64s28.736 64 64 64 64-28.736 64-64c0-35.264-28.736-64-64-64z" />
<glyph unicode="&#xe97a;" glyph-name="spinner10" d="M0.064 446.4v0c0 0 0-0.064 0-0.192 0.128-3.904 0.576-7.68 1.344-11.328 0.192-1.728 0.448-3.648 0.704-5.76 0.192-1.856 0.448-3.904 0.704-6.080 0.384-2.56 0.768-5.312 1.216-8.192 0.832-5.76 1.792-12.096 2.88-18.944 1.344-6.464 2.816-13.44 4.352-20.864 0.704-3.712 1.792-7.488 2.816-11.392s2.048-7.872 3.136-12.032c0.576-2.048 1.024-4.16 1.728-6.208s1.344-4.16 1.984-6.272 2.752-8.576 4.16-12.992c0.384-1.088 0.704-2.24 1.088-3.328s0.832-2.176 1.216-3.328 1.664-4.48 2.496-6.72c1.728-4.48 3.392-9.088 5.184-13.76 1.984-4.544 3.968-9.216 6.016-13.952 1.024-2.368 2.048-4.736 3.072-7.104s2.24-4.672 3.392-7.104 4.672-9.472 7.040-14.336c2.496-4.8 5.184-9.536 7.872-14.336 1.344-2.368 2.688-4.8 4.032-7.232s2.88-4.736 4.352-7.168 5.952-9.536 8.96-14.336c12.672-18.88 26.688-37.568 42.24-55.296 15.68-17.6 32.704-34.24 50.688-49.6 18.176-15.104 37.248-28.928 56.704-41.088 19.584-12.032 39.616-22.336 59.392-31.168 4.992-2.048 9.984-4.032 14.848-6.080 2.432-0.96 4.864-2.048 7.36-2.944s4.928-1.728 7.36-2.624 9.664-3.456 14.464-4.992c4.8-1.408 9.6-2.816 14.336-4.224 2.368-0.704 4.672-1.408 6.976-1.984s4.672-1.152 6.976-1.728 9.152-2.24 13.632-3.328c4.48-0.896 8.896-1.728 13.248-2.56 2.176-0.384 4.288-0.832 6.464-1.216 1.088-0.192 2.112-0.384 3.136-0.576s2.112-0.32 3.136-0.448c4.224-0.576 8.32-1.152 12.288-1.728 1.984-0.256 3.968-0.576 5.952-0.832s3.904-0.384 5.824-0.576 7.552-0.64 11.136-0.96c3.584-0.32 7.104-0.704 10.496-0.768 0.256 0 0.448 0 0.704 0 0.64-34.816 28.992-62.848 64-62.848 0.512 0 1.088 0 1.6 0.064v0c0 0 0.064 0 0.256 0 3.904 0.128 7.68 0.576 11.328 1.344 1.728 0.192 3.648 0.448 5.76 0.704 1.856 0.192 3.904 0.448 6.080 0.704 2.56 0.384 5.312 0.768 8.192 1.216 5.76 0.832 12.096 1.792 18.944 2.88 6.464 1.344 13.44 2.816 20.864 4.352 3.712 0.704 7.488 1.792 11.392 2.816s7.872 2.112 12.032 3.136c2.048 0.576 4.16 1.024 6.208 1.728s4.16 1.344 6.272 1.984 8.576 2.752 12.992 4.16c1.088 0.384 2.24 0.704 3.328 1.088s2.176 0.832 3.328 1.216 4.48 1.664 6.72 2.496c4.48 1.728 9.088 3.392 13.76 5.184 4.544 1.984 9.216 3.968 13.952 6.016 2.368 1.024 4.736 2.048 7.104 3.072s4.672 2.24 7.104 3.392 9.472 4.672 14.336 7.040c4.8 2.496 9.536 5.184 14.336 7.872 2.368 1.344 4.8 2.688 7.232 4.032s4.736 2.88 7.168 4.352 9.536 5.952 14.336 8.96c18.88 12.608 37.568 26.688 55.296 42.24 17.6 15.68 34.24 32.704 49.6 50.688 15.104 18.176 28.928 37.248 41.088 56.704 12.032 19.584 22.336 39.616 31.168 59.392 2.048 4.992 4.032 9.984 6.080 14.848 0.96 2.432 2.048 4.864 2.944 7.36s1.728 4.928 2.56 7.36 3.456 9.664 4.992 14.464c1.408 4.8 2.816 9.6 4.224 14.336 0.704 2.368 1.408 4.672 1.984 6.976s1.152 4.672 1.728 6.976 2.24 9.152 3.328 13.632c0.896 4.48 1.728 8.896 2.56 13.248 0.384 2.176 0.832 4.288 1.216 6.464 0.192 1.088 0.384 2.112 0.576 3.136s0.32 2.112 0.448 3.2c0.576 4.16 1.152 8.32 1.728 12.288 0.256 1.984 0.576 3.968 0.832 5.952s0.384 3.904 0.576 5.824 0.64 7.552 0.96 11.136c0.32 3.584 0.704 7.104 0.768 10.56 0 0.512 0.064 1.024 0.064 1.6 35.2 0.128 63.744 28.736 63.744 64 0 0.512 0 1.088-0.064 1.6v0c0 0 0 0.064 0 0.192-0.128 3.904-0.576 7.68-1.344 11.328-0.192 1.728-0.448 3.648-0.704 5.76-0.192 1.856-0.448 3.904-0.704 6.080-0.384 2.56-0.768 5.312-1.216 8.192-0.832 5.76-1.792 12.096-2.88 18.944-1.344 6.464-2.816 13.44-4.352 20.864-0.704 3.712-1.792 7.488-2.816 11.392s-2.048 7.872-3.136 12.032c-0.576 2.048-1.024 4.16-1.728 6.208s-1.344 4.16-1.984 6.272-2.752 8.576-4.16 12.992c-0.32 1.088-0.704 2.24-1.088 3.328s-0.832 2.176-1.216 3.328-1.664 4.48-2.496 6.72c-1.728 4.48-3.392 9.088-5.184 13.76-1.984 4.544-3.968 9.216-6.016 13.952-1.024 2.368-2.048 4.736-3.072 7.104s-2.24 4.672-3.392 7.104-4.672 9.472-7.040 14.336c-2.496 4.8-5.184 9.536-7.872 14.336-1.344 2.368-2.688 4.8-4.032 7.232s-2.88 4.736-4.352 7.168-5.952 9.536-8.96 14.336c-12.608 18.88-26.688 37.568-42.24 55.296-15.68 17.6-32.704 34.24-50.688 49.6-18.176 15.104-37.248 28.928-56.704 41.088-19.584 12.032-39.616 22.336-59.392 31.168-4.992 2.048-9.984 4.032-14.848 6.080-2.432 0.96-4.864 2.048-7.36 2.944s-4.928 1.728-7.36 2.56-9.664 3.456-14.464 4.992c-4.8 1.408-9.6 2.816-14.336 4.224-2.368 0.64-4.672 1.408-6.976 1.984s-4.672 1.152-6.976 1.728-9.152 2.24-13.632 3.328c-4.48 0.896-8.896 1.728-13.248 2.56-2.176 0.384-4.288 0.832-6.464 1.216-1.088 0.192-2.112 0.384-3.136 0.576s-2.112 0.32-3.136 0.448c-4.224 0.576-8.32 1.152-12.288 1.728-1.984 0.256-3.968 0.576-5.952 0.832s-3.904 0.384-5.824 0.576-7.552 0.64-11.136 0.96c-3.584 0.32-7.104 0.704-10.496 0.768-0.832 0-1.664 0.064-2.496 0.064-0.64 34.752-29.056 62.784-63.936 62.784-0.512 0-1.088 0-1.6-0.064v0c0 0-0.064 0-0.192 0-3.904-0.128-7.68-0.576-11.328-1.344-1.728-0.192-3.648-0.448-5.76-0.704-1.856-0.192-3.904-0.448-6.080-0.704-2.56-0.384-5.312-0.768-8.192-1.216-5.76-0.832-12.096-1.792-18.944-2.88-6.464-1.344-13.44-2.816-20.864-4.352-3.712-0.704-7.488-1.792-11.392-2.816s-7.872-2.112-12.032-3.136c-2.048-0.576-4.16-1.024-6.208-1.728s-4.16-1.344-6.272-1.984-8.576-2.752-12.992-4.16c-1.088-0.384-2.24-0.704-3.328-1.088s-2.176-0.832-3.328-1.216-4.48-1.664-6.72-2.496c-4.48-1.728-9.088-3.392-13.76-5.184-4.544-1.984-9.216-3.968-13.952-6.016-2.368-1.024-4.736-2.048-7.104-3.072s-4.672-2.24-7.104-3.392-9.472-4.672-14.336-7.040c-4.8-2.496-9.536-5.184-14.336-7.872-2.368-1.344-4.8-2.688-7.232-4.032s-4.736-2.88-7.168-4.352-9.536-5.952-14.336-8.96c-18.88-12.672-37.568-26.688-55.296-42.24-17.6-15.68-34.24-32.704-49.6-50.688-15.104-18.176-28.928-37.248-41.088-56.704-12.032-19.584-22.336-39.616-31.168-59.392-2.048-4.992-4.032-9.984-6.080-14.848-0.96-2.432-2.048-4.864-2.944-7.36s-1.728-4.928-2.56-7.36-3.456-9.664-4.992-14.464c-1.408-4.8-2.816-9.6-4.224-14.336-0.704-2.368-1.408-4.672-2.048-6.976s-1.152-4.672-1.728-6.976-2.24-9.152-3.328-13.632c-0.896-4.48-1.728-8.896-2.56-13.248-0.384-2.176-0.832-4.288-1.216-6.464-0.192-1.088-0.384-2.112-0.576-3.136s-0.32-2.112-0.448-3.2c-0.576-4.16-1.152-8.32-1.728-12.288-0.256-1.984-0.576-3.968-0.832-5.952s-0.384-3.904-0.576-5.824-0.64-7.552-0.96-11.136c-0.32-3.584-0.704-7.104-0.768-10.56 0-0.576-0.064-1.088-0.064-1.6-34.368-1.088-61.888-29.312-61.888-63.936 0-0.512 0-1.088 0.064-1.6zM73.536 511.296c0.064 0.192 0.064 0.384 0.128 0.576 0.64 3.264 1.664 6.528 2.56 9.92s1.92 6.848 2.88 10.432c0.512 1.792 0.96 3.584 1.536 5.376s1.216 3.648 1.792 5.504 2.432 7.424 3.712 11.264c0.32 0.96 0.64 1.92 0.96 2.88s0.768 1.92 1.088 2.88 1.472 3.84 2.24 5.824 3.072 7.872 4.672 11.904c1.792 3.968 3.584 8 5.376 12.096 0.896 2.048 1.792 4.096 2.752 6.144s2.048 4.096 3.072 6.144 4.16 8.192 6.272 12.416c2.176 4.16 4.672 8.192 6.976 12.416 1.152 2.048 2.368 4.16 3.584 6.272s2.56 4.096 3.904 6.144c2.624 4.096 5.248 8.256 7.936 12.416 11.264 16.32 23.616 32.384 37.312 47.616 13.888 15.104 28.864 29.376 44.608 42.56 16 12.928 32.704 24.64 49.664 35.008 17.152 10.176 34.624 18.816 51.712 26.24 4.352 1.728 8.64 3.392 12.928 5.056 2.112 0.832 4.224 1.728 6.336 2.432s4.288 1.408 6.4 2.112 8.384 2.88 12.544 4.16c4.16 1.152 8.32 2.304 12.416 3.456 2.048 0.576 4.032 1.216 6.080 1.664s4.032 0.896 6.016 1.344 7.872 1.792 11.776 2.688c3.904 0.704 7.68 1.344 11.456 2.048 1.856 0.32 3.712 0.64 5.568 0.96 0.896 0.192 1.856 0.32 2.752 0.512s1.856 0.192 2.752 0.32c3.584 0.448 7.168 0.896 10.624 1.28 1.728 0.192 3.392 0.448 5.12 0.64s3.392 0.256 4.992 0.384 6.528 0.448 9.6 0.704c3.136 0.192 6.080 0.512 9.088 0.512 5.824 0.128 11.328 0.256 16.384 0.384 4.672-0.192 8.96-0.32 12.8-0.448 1.92-0.064 3.712-0.128 5.44-0.128 2.112-0.128 4.096-0.256 5.952-0.384 2.112-0.128 4.032-0.256 5.824-0.384 3.264-0.512 6.592-0.768 9.984-0.768 0.448 0 0.96 0 1.408 0.064 0.128 0 0.256 0 0.256 0v0c31.168 0.768 56.768 23.808 61.568 53.76 0.512-0.128 1.088-0.256 1.6-0.384 3.264-0.64 6.528-1.664 9.92-2.56s6.848-1.92 10.432-2.88c1.792-0.512 3.584-0.96 5.376-1.536s3.648-1.216 5.504-1.792 7.424-2.432 11.264-3.712c0.96-0.32 1.92-0.64 2.88-0.96s1.92-0.768 2.88-1.088 3.84-1.472 5.824-2.24 7.872-3.072 11.904-4.672c3.968-1.792 8-3.584 12.096-5.376 2.048-0.896 4.096-1.792 6.144-2.752s4.096-2.048 6.144-3.072 8.192-4.16 12.416-6.272c4.16-2.176 8.256-4.672 12.416-6.976 2.048-1.152 4.16-2.368 6.272-3.584s4.096-2.56 6.144-3.904 8.256-5.248 12.416-7.936c16.32-11.264 32.384-23.616 47.616-37.312 15.104-13.888 29.376-28.864 42.56-44.608 12.928-16 24.64-32.704 35.008-49.664 10.176-17.152 18.816-34.624 26.24-51.712 1.728-4.352 3.392-8.64 5.056-12.928 0.832-2.112 1.728-4.224 2.432-6.336s1.408-4.288 2.112-6.4 2.88-8.384 4.16-12.544c1.152-4.16 2.304-8.32 3.456-12.416 0.576-2.048 1.216-4.032 1.664-6.080s0.896-4.032 1.344-6.016 1.792-7.872 2.688-11.776c0.704-3.904 1.344-7.68 2.048-11.456 0.32-1.856 0.64-3.712 0.96-5.568 0.192-0.896 0.32-1.856 0.512-2.752s0.192-1.856 0.32-2.752c0.448-3.584 0.896-7.168 1.28-10.624 0.192-1.728 0.448-3.392 0.64-5.12s0.256-3.392 0.384-4.992 0.448-6.528 0.704-9.6c0.192-3.136 0.512-6.080 0.512-9.088 0.128-5.824 0.256-11.328 0.384-16.384-0.192-4.672-0.32-8.96-0.448-12.8-0.064-1.92-0.128-3.712-0.128-5.44-0.128-2.112-0.256-4.096-0.384-5.952-0.128-2.112-0.256-4.032-0.384-5.824-0.512-3.264-0.768-6.592-0.768-9.984 0-0.448 0-0.96 0.064-1.408 0-0.128 0-0.256 0-0.256v0c0.768-30.784 23.232-56.128 52.672-61.376-0.064-0.32-0.128-0.576-0.192-0.896-0.64-3.264-1.6-6.528-2.56-9.92s-1.92-6.848-2.88-10.432c-0.512-1.792-0.96-3.584-1.536-5.376s-1.216-3.648-1.792-5.504-2.496-7.424-3.712-11.264c-0.32-0.96-0.64-1.92-0.96-2.88s-0.768-1.92-1.088-2.88-1.472-3.84-2.24-5.824-3.072-7.872-4.672-11.904c-1.792-3.968-3.584-8-5.376-12.096-0.896-2.048-1.792-4.096-2.752-6.144s-2.048-4.096-3.072-6.144-4.16-8.192-6.272-12.416c-2.176-4.16-4.672-8.256-6.976-12.416-1.152-2.048-2.368-4.16-3.584-6.272s-2.56-4.096-3.904-6.144-5.248-8.256-7.936-12.416c-11.264-16.32-23.616-32.384-37.312-47.616-13.888-15.104-28.864-29.376-44.608-42.56-16-12.928-32.704-24.64-49.664-35.008-17.152-10.176-34.624-18.816-51.712-26.24-4.352-1.728-8.64-3.392-12.928-5.056-2.112-0.832-4.224-1.728-6.336-2.432s-4.288-1.408-6.4-2.112-8.384-2.88-12.544-4.16c-4.16-1.152-8.32-2.304-12.416-3.456-2.048-0.576-4.032-1.216-6.080-1.664s-4.032-0.896-6.016-1.344-7.872-1.792-11.776-2.688c-3.904-0.704-7.68-1.344-11.456-2.048-1.856-0.32-3.712-0.64-5.568-0.96-0.896-0.192-1.792-0.32-2.752-0.512s-1.856-0.192-2.752-0.32c-3.584-0.448-7.168-0.896-10.624-1.28-1.728-0.192-3.392-0.448-5.12-0.64s-3.392-0.256-4.992-0.384-6.528-0.448-9.6-0.704c-3.136-0.192-6.080-0.512-9.088-0.512-5.824-0.128-11.328-0.256-16.384-0.384-4.672 0.192-8.96 0.32-12.8 0.448-1.92 0.064-3.712 0.128-5.44 0.128-2.112 0.128-4.096 0.256-5.952 0.384-2.112 0.128-4.032 0.256-5.824 0.384-3.264 0.512-6.592 0.768-9.984 0.768-0.448 0-0.96 0-1.408-0.064-0.128 0-0.192 0-0.192 0v0c-30.976-0.768-56.512-23.616-61.504-53.376-3.2 0.64-6.464 1.6-9.792 2.496s-6.848 1.92-10.432 2.88c-1.792 0.512-3.584 0.96-5.376 1.536s-3.648 1.216-5.504 1.792-7.424 2.496-11.264 3.712c-0.96 0.32-1.92 0.64-2.88 0.96s-1.92 0.768-2.88 1.088-3.84 1.472-5.824 2.24-7.872 3.072-11.904 4.672c-3.968 1.792-8 3.584-12.096 5.376-2.048 0.896-4.096 1.792-6.144 2.752s-4.096 2.048-6.144 3.072-8.192 4.16-12.416 6.272c-4.16 2.176-8.256 4.672-12.416 6.976-2.048 1.152-4.16 2.368-6.272 3.584s-4.096 2.56-6.144 3.904c-4.096 2.624-8.256 5.248-12.416 7.936-16.32 11.2-32.384 23.616-47.616 37.312-15.104 13.888-29.376 28.864-42.56 44.608-12.928 16-24.64 32.704-35.008 49.664-10.176 17.152-18.816 34.624-26.24 51.712-1.728 4.352-3.392 8.64-5.056 12.928-0.832 2.112-1.728 4.224-2.432 6.336s-1.408 4.288-2.112 6.4-2.88 8.384-4.16 12.544c-1.152 4.16-2.304 8.32-3.456 12.416-0.576 2.048-1.216 4.032-1.664 6.080s-0.896 4.032-1.344 6.016-1.792 7.872-2.688 11.776c-0.704 3.904-1.344 7.68-2.048 11.456-0.32 1.856-0.64 3.712-0.96 5.568-0.192 0.896-0.32 1.792-0.512 2.752s-0.192 1.856-0.32 2.752c-0.448 3.584-0.896 7.168-1.28 10.624-0.192 1.728-0.448 3.392-0.64 5.12s-0.256 3.392-0.384 4.992-0.448 6.464-0.704 9.6c-0.192 3.136-0.512 6.080-0.512 9.088-0.128 5.824-0.256 11.328-0.384 16.384 0.192 4.672 0.32 8.96 0.448 12.8 0.064 1.92 0.128 3.712 0.128 5.44 0.128 2.112 0.256 4.096 0.384 5.952 0.128 2.112 0.256 4.032 0.384 5.824 0.512 3.264 0.768 6.592 0.768 9.984 0 0.448 0 0.96-0.064 1.408 0 0.128 0 0.192 0 0.192v0c-0.768 31.36-24.128 57.152-54.464 61.696z" />
<glyph unicode="&#xe97b;" glyph-name="stack2" d="M1024 640l-512 256-512-256 512-256 512 256zM512 811.008l342.080-171.008-342.080-171.008-342.080 171.008 342.080 171.008zM921.472 499.264l102.528-51.264-512-256-512 256 102.528 51.264 409.472-204.736zM921.472 307.264l102.528-51.264-512-256-512 256 102.528 51.264 409.472-204.736z" />
<glyph unicode="&#xe97c;" glyph-name="graduation" d="M192 372.672v-148.672c0-64 143.296-160 320-160s320 96 320 160v148.672l-320-160-320 160zM512 832l-512-256 512-256 415.424 207.744-31.424-271.744h64v288l64 32-512 256zM544 561.6c-25.6 0-46.4 20.8-46.4 46.4s20.8 46.4 46.4 46.4 46.4-20.8 46.4-46.4c0-25.6-20.8-46.4-46.4-46.4z" />
<glyph unicode="&#xe97d;" glyph-name="library2" d="M960 512h-128v-448h-128v448h-128v-448h-128v448h-128v-448h-128v448h-128v-512h-64v-64h1024v64h-64v512zM544 960h-64l-480-320v-64h1024v64l-480 320zM512 704c-35.328 0-64 28.672-64 64s28.672 64 64 64 64-28.672 64-64-28.672-64-64-64z" />
<glyph unicode="&#xe97e;" glyph-name="map2" d="M768 800l-512 128-256-160v-832l256 160 512-128 256 160v832l-256-160zM704 49.984l-384 96v700.032l384-96v-700.032z" />
<glyph unicode="&#xe97f;" glyph-name="flag7" d="M0 960h128v-1024h-128v1024zM192 896v-512h800l-256 256 256 256z" />
<glyph unicode="&#xe980;" glyph-name="target" d="M512 960c-282.304 0-512-229.696-512-512s229.696-512 512-512c282.304 0 512 229.696 512 512s-229.696 512-512 512zM512 49.792c-219.584 0-398.208 178.624-398.208 398.208s178.624 398.208 398.208 398.208 398.208-178.624 398.208-398.208c0-219.584-178.624-398.208-398.208-398.208zM512 732.416c-156.864 0-284.416-127.616-284.416-284.416s127.616-284.416 284.416-284.416 284.416 127.616 284.416 284.416c0 156.864-127.616 284.416-284.416 284.416zM512 277.312c-94.144 0-170.688 76.544-170.688 170.688s76.544 170.688 170.688 170.688c94.080 0 170.688-76.544 170.688-170.688s-76.544-170.688-170.688-170.688zM448 448c0 35.328 28.672 64 64 64s64-28.672 64-64c0-35.328-28.672-64-64-64s-64 28.672-64 64z" />
<glyph unicode="&#xe981;" d="M678.4 691.2c-25.6 0-44.8 0-64-6.4 0 0-6.4 0-6.4 6.4 25.6 19.2 44.8 38.4 44.8 64v64c0 70.4-140.8 128-313.6 128s-313.6-57.6-313.6-128v-64c0-25.6 12.8-44.8 44.8-64-25.6-19.2-44.8-38.4-44.8-64v-64c0-25.6 12.8-44.8 44.8-64-25.6-19.2-44.8-38.4-44.8-64v-64c0-25.6 12.8-44.8 44.8-64-25.6-19.2-44.8-38.4-44.8-64v-64c0-70.4 140.8-128 313.6-128 44.8 0 89.6 6.4 128 12.8 57.6-44.8 134.4-76.8 217.6-76.8 192 0 345.6 153.6 345.6 345.6s-160 358.4-352 358.4zM51.2 819.2c0 19.2 25.6 44.8 70.4 57.6 57.6 19.2 128 32 211.2 32s153.6-12.8 211.2-32c44.8-19.2 70.4-38.4 70.4-57.6s-25.6-44.8-70.4-64c-19.2-6.4-38.4-12.8-64-19.2-44.8-6.4-96-12.8-147.2-12.8s-108.8 6.4-153.6 12.8c-19.2 6.4-38.4 12.8-57.6 19.2-44.8 19.2-70.4 44.8-70.4 64zM51.2 441.6c0 12.8 12.8 32 44.8 44.8 57.6-25.6 147.2-44.8 243.2-44.8 6.4 0 6.4 0 12.8 0-6.4-32-12.8-64-12.8-96 0 0 0 0 0 0-51.2 0-102.4 6.4-147.2 19.2-32 0-51.2 6.4-70.4 12.8-44.8 19.2-70.4 44.8-70.4 64v0zM332.8 160c-83.2 0-153.6 12.8-211.2 32-44.8 19.2-70.4 38.4-70.4 57.6 0 12.8 12.8 32 44.8 44.8 57.6-25.6 147.2-44.8 243.2-44.8 6.4 0 6.4 0 12.8 0 6.4-32 25.6-64 44.8-89.6-32 0-44.8 0-64 0v0zM332.8 537.6c-51.2 0-108.8 6.4-153.6 19.2-19.2 0-38.4 6.4-57.6 12.8-44.8 19.2-70.4 38.4-70.4 57.6 0 12.8 12.8 32 38.4 44.8 57.6-25.6 147.2-44.8 243.2-44.8 64 0 128 6.4 172.8 19.2-44.8-25.6-89.6-64-121.6-108.8-12.8 0-32 0-51.2 0v0zM678.4 64c-160 0-281.6 128-281.6 281.6s128 281.6 281.6 281.6 281.6-128 281.6-281.6-128-281.6-281.6-281.6z" />
<glyph unicode="&#xe982;" d="M633.6 320c0-6.4 0-19.2-6.4-25.6 0-6.4 0-6.4-6.4-12.8s-6.4-6.4-6.4-12.8c-12.8-12.8-32-19.2-51.2-19.2-6.4 0-6.4 0-12.8 0h-6.4c0 0 0 0 0 0h-6.4c-6.4 0-12.8 6.4-19.2 12.8-6.4 19.2-12.8 38.4-12.8 57.6v38.4l12.8-6.4h6.4l6.4-19.2v-12.8c0-6.4 0-12.8 0-12.8 0-6.4 6.4-6.4 6.4-12.8v0 0l6.4-6.4h32c0 0 6.4 0 6.4 6.4 0 0 6.4 6.4 6.4 6.4v140.8h25.6v-121.6zM697.6 300.8h-12.8c-6.4 0-6.4 0-12.8 6.4-6.4 0-6.4 6.4-12.8 12.8 0 6.4-6.4 12.8-6.4 12.8 0 6.4 0 12.8 0 19.2v89.6h25.6v-83.2c0-6.4 0-19.2 6.4-19.2 0 0 6.4 0 6.4-6.4h6.4v-32zM697.6 326.4v-32h25.6c12.8 0 19.2 6.4 25.6 12.8s6.4 12.8 6.4 25.6c0 0 0 6.4 0 6.4s0 6.4-6.4 12.8v25.6l-12.8 6.4-25.6-19.2 12.8-25.6v-6.4c0-6.4-6.4-6.4-12.8-6.4h-12.8zM729.6 249.6h-25.6v25.6h25.6v-25.6zM761.6 249.6h-25.6v25.6h25.6v-25.6zM844.8 268.8c0 0-6.4-6.4-12.8-12.8l-19.2-12.8-19.2-19.2-12.8-6.4-12.8-12.8-12.8 25.6h12.8l6.4 6.4 12.8 6.4 12.8 12.8c12.8 6.4 19.2 19.2 25.6 25.6 0 6.4 0 6.4 0 12.8v44.8c0 0 0 0 0 0l6.4 12.8 12.8-32 6.4-12.8c0-6.4 0-6.4 0-12.8v-12.8c0 0 0 0 0-6.4v-6.4c0 0 0 0 0 0h-6.4z" />
</font>
</defs>
</svg>
